<svg id="Calque_1" data-name="Calque 1" xmlns="http://www.w3.org/2000/svg" viewBox="0 0 278.1 351.16"><defs><style>.cls-1{fill:#daaf50;}.cls-2{fill:#afa715;}.cls-3{fill:#802489;}.cls-4{fill:#c84b24;}</style></defs><title>citoyen</title><path class="cls-1" d="M140.82,4.54a44.5,44.5,0,0,0-29.24,78.08V99.39A15.47,15.47,0,0,0,127,114.83h27.59a15.47,15.47,0,0,0,15.45-15.45V82.61A44.5,44.5,0,0,0,140.82,4.54Zm17.9,68.93-2.9,2.13V99.39a1.24,1.24,0,0,1-1.21,1.21H127a1.24,1.24,0,0,1-1.21-1.21V75.6l-2.9-2.13a30,30,0,0,1-12.39-24.4,30.3,30.3,0,1,1,60.6,0A30,30,0,0,1,158.72,73.47Z"/><rect class="cls-1" x="116.55" y="119.29" width="48.53" height="13.71" rx="6.5" ry="6.5"/><rect class="cls-1" x="116.55" y="137.58" width="48.53" height="13.72" rx="6.5" ry="6.5"/><path class="cls-1" d="M140.82,171.14a13.69,13.69,0,0,0,13.69-13.69H127.13A13.69,13.69,0,0,0,140.82,171.14Z"/><circle class="cls-2" cx="140.32" cy="235.89" r="29.64"/><path class="cls-2" d="M157.22,274.89H122.56a11.05,11.05,0,0,0-10.75,8.49L99.87,333.48a11.05,11.05,0,0,0,10.75,13.62h58.54a11.05,11.05,0,0,0,10.75-13.62L168,283.38A11.05,11.05,0,0,0,157.22,274.89Z"/><circle class="cls-3" cx="48.82" cy="177.89" r="29.64"/><path class="cls-3" d="M65.72,216.89H31.06a11.05,11.05,0,0,0-10.75,8.49L8.37,275.48A11.05,11.05,0,0,0,19.12,289.1H77.66a11.05,11.05,0,0,0,10.75-13.62L76.47,225.38A11.05,11.05,0,0,0,65.72,216.89Z"/><circle class="cls-4" cx="231.82" cy="177.89" r="29.64"/><path class="cls-4" d="M248.72,216.89H214.06a11.05,11.05,0,0,0-10.75,8.49l-11.94,50.11a11.05,11.05,0,0,0,10.75,13.62h58.54a11.05,11.05,0,0,0,10.75-13.62l-11.94-50.11A11.05,11.05,0,0,0,248.72,216.89Z"/></svg>