<svg id="Calque_1" data-name="Calque 1" xmlns="http://www.w3.org/2000/svg" viewBox="0 0 365.43 398"><defs><style>.cls-1{fill:#7e2884;}.cls-2{fill:#afa715;}</style></defs><title>page8_icon2</title><path class="cls-1" d="M3.82,335.82c-1-.6,53.93-60,94.22-58.33,37.39,1.55,61,28.18,61,28.18l25.53,1s24-41.71,53.05-11.56a331.71,331.71,0,0,1-40.5,43.15c-5.54,5.07-67,15.18-104.78,7.26V353c11.63,8.46,116.83,3.74,121.45-19.37,12.33-1.54,54.65-12.33,64.34-15S362,287.83,361.31,318C334.9,329.87,236.5,367.74,236.5,367.74s-15.19,6.38-19.81,10.13-10.79,8.36-16.29,9.47-61.2-10.13-66-10.35-49.31-10.57-80.57,17.83C28.87,397-1.9,347.35,3.82,335.82Z"/><path class="cls-2" d="M209.78,4.48H92.29v218.2H272.16V67.92Zm22.9,178.71H131.77V44H189V88.7h43.68v94.49Z"/></svg>