<svg id="Calque_1" data-name="Calque 1" xmlns="http://www.w3.org/2000/svg" viewBox="0 0 402.99 316.78"><defs><style>.cls-1{fill:#afa70e;}.cls-2{fill:#7e2884;}.cls-3{fill:#daaf50;}</style></defs><title>page8_icon1</title><path class="cls-1" d="M329.1,241.12c0-.82.06-1.64,0.06-2.47a72.24,72.24,0,0,0-128.76-45l-52.9,52.9a49.88,49.88,0,0,0-14.65,35.08h66c13.25,17.77,30.88,32.25,58.1,31.14,38.92,0,53-39.2,53-39.2s-63.71-4.59-63.71-16C246.16,243.13,280.14,241.25,329.1,241.12Zm-67.41-23.32a14.62,14.62,0,1,1,14.62,14.62A14.62,14.62,0,0,1,261.69,217.81Z"/><path class="cls-2" d="M197.4,138.81c0-.82.06-1.64,0.06-2.47a72.24,72.24,0,0,0-128.76-45l-52.9,52.9A49.88,49.88,0,0,0,1.16,179.31h66c13.25,17.77,30.88,32.25,58.1,31.14,38.92,0,53-39.2,53-39.2s-63.71-4.59-63.71-16C114.46,140.82,148.44,138.94,197.4,138.81ZM130,115.5a14.62,14.62,0,1,1,14.62,14.62A14.62,14.62,0,0,1,130,115.5Z"/><path class="cls-3" d="M286.7,92.15c0,11.42-63.71,16-63.71,16s14,39.2,53,39.2c27.22,1.1,44.85-13.37,58.1-31.14h66a49.88,49.88,0,0,0-14.65-35.08l-52.9-52.9a72.24,72.24,0,0,0-128.76,45c0,0.83,0,1.65.06,2.47C252.72,75.85,286.7,77.73,286.7,92.15ZM256.54,67a14.62,14.62,0,1,1,14.62-14.62A14.62,14.62,0,0,1,256.54,67Z"/></svg>