<?xml version="1.0" encoding="utf-8"?>
<!-- Generator: Adobe Illustrator 19.2.1, SVG Export Plug-In . SVG Version: 6.00 Build 0)  -->
<svg version="1.1" id="Calque_1" xmlns="http://www.w3.org/2000/svg" xmlns:xlink="http://www.w3.org/1999/xlink" x="0px" y="0px"
	 viewBox="0 0 403 316.8" style="enable-background:new 0 0 403 316.8;" xml:space="preserve">
<style type="text/css">
	.st0{fill:#C84B24;}
	.st1{fill:#0091C3;}
	.st2{fill:#AFA70E;}
</style>
<title>page8_icon1</title>
<path class="st0" d="M329.1,241.1c0-0.8,0.1-1.6,0.1-2.5c0-39.9-32.3-72.2-72.2-72.2c-22,0-42.8,10-56.5,27.2l-52.9,52.9
	c-9.3,9.3-14.6,21.9-14.6,35.1h66c13.3,17.8,30.9,32.3,58.1,31.1c38.9,0,53-39.2,53-39.2s-63.7-4.6-63.7-16
	C246.2,243.1,280.1,241.3,329.1,241.1z M261.7,217.8c0-8.1,6.5-14.6,14.6-14.6c8.1,0,14.6,6.5,14.6,14.6s-6.5,14.6-14.6,14.6l0,0
	C268.2,232.4,261.7,225.9,261.7,217.8L261.7,217.8z"/>
<path class="st1" d="M197.4,138.8c0-0.8,0.1-1.6,0.1-2.5c0-39.9-32.3-72.2-72.2-72.2c-22,0-42.8,10-56.5,27.2l-52.9,52.9
	c-9.3,9.3-14.6,21.9-14.6,35.1h66c13.3,17.8,30.9,32.3,58.1,31.1c38.9,0,53-39.2,53-39.2s-63.7-4.6-63.7-16
	C114.5,140.8,148.4,138.9,197.4,138.8z M130,115.5c0-8.1,6.5-14.6,14.6-14.6c8.1,0,14.6,6.5,14.6,14.6c0,8.1-6.5,14.6-14.6,14.6
	c0,0,0,0,0,0C136.5,130.1,130,123.6,130,115.5z"/>
<path class="st2" d="M286.7,92.2c0,11.4-63.7,16-63.7,16s14,39.2,53,39.2c27.2,1.1,44.9-13.4,58.1-31.1h66
	c-0.1-13.2-5.3-25.8-14.6-35.1l-52.9-52.9C307.7-3,262.2-8.1,231,16.7c-17.2,13.7-27.3,34.5-27.2,56.5c0,0.8,0,1.7,0.1,2.5
	C252.7,75.8,286.7,77.7,286.7,92.2z M256.5,67c-8.1,0-14.6-6.5-14.6-14.6c0-8.1,6.5-14.6,14.6-14.6c8.1,0,14.6,6.5,14.6,14.6
	c0,0,0,0,0,0C271.2,60.5,264.6,67,256.5,67z"/>
</svg>
