<svg id="Calque_1" data-name="Calque 1" xmlns="http://www.w3.org/2000/svg" viewBox="0 0 94.07 79.69"><defs><style>.cls-1{fill:#aea614;}.cls-2{fill:#95891b;}.cls-3{fill:#0d6e95;}.cls-4{fill:none;}.cls-5,.cls-6,.cls-7{fill:#105560;}.cls-5{opacity:0.41;}.cls-6{opacity:0.46;}.cls-7{opacity:0.63;}</style></defs><title>page9_icon1</title><circle class="cls-1" cx="45.28" cy="37.04" r="34.68"/><path class="cls-2" d="M11.32,32.18l-0.2.22A34.89,34.89,0,0,0,10.81,36a2,2,0,0,1,1.07.42c0.85,0.81,1.85-.61,1-1,0.08-.71,1-2.09-0.45-1.7-0.82.53-1.22-.74-0.45-1.05,0.37-1,1.51-2.4.22-3.28a0.77,0.77,0,0,0-.42-0.67,34.51,34.51,0,0,0-.67,3.41h0.17Z"/><path class="cls-2" d="M43.15,20.89a14.62,14.62,0,0,1,2.84-1c1.36-.34.28-2-0.69-1.68s-2.49-.13-3.35.57a1.28,1.28,0,0,0-1.2-.61c-0.77,0-1.78,1.36-.39.91,1-.18-0.48.8,0.4,1C40.26,20.95,42.46,20.71,43.15,20.89Z"/><path class="cls-2" d="M21.79,13.33c-0.41,1.09,2,.16,1.56,1.21-0.56-.15-1.61-0.14-0.93.66,1.13,1.06-1.09.79-1.49,1.5a2.49,2.49,0,0,0-.39,2.77,4.51,4.51,0,0,0,1,3.5c0.83,0,1.76-.12,2.25.79,1,0.52,1.62-.76,2.25-1.32,0.2-1.07,1.55-1.19,1.88-2.24,0.42-1.24,1.84-1,2.68-1.49,1,0.44,2.43-.44,3.39-1,0.8-.93,1.75-0.76,2.84-0.92a17.19,17.19,0,0,0,4.39-1.38c0.86-.71-1.75-0.54-0.74-1.11,0.53,1,2.5.77,1.78-.56-0.33-.44-1.94-1-0.6-1.13a3.59,3.59,0,0,0,3.16-1.41c0.78-.5-0.71-1.6.61-1.47,0.93-.3-0.07-1-0.16-1.1a8,8,0,0,1,2.49-1.29c0.83-.5,2.57-0.17,2.81-1.18a25,25,0,0,0-4.25-.15c-0.69.26-.45-0.71-1.28-0.61a16.93,16.93,0,0,0-4.52-.42,19.69,19.69,0,0,1-3.89.25c-1.82-.11-3.57.54-5.39,0.5H31a34.73,34.73,0,0,0-8.94,5.92A2.4,2.4,0,0,1,21.79,13.33Z"/><path class="cls-2" d="M76.91,51.86a14,14,0,0,1-2.35-.7c-0.77-.39-1.61-1-2.53-0.54-1.05.18-1.17,1.19-1,2-1.06.8-1.95-1-3.16-.7-0.6-.59-1-1.69-2.16-1.42A3.34,3.34,0,0,1,63,49.37a2,2,0,0,0,.37-2.14c0.7-.51,0-1.08-0.48-1.06-0.94-.19-1.94.31-3,0.11-0.9.51-1.8-.17-2.77,0.22s-2.25,0-3,.82A3.61,3.61,0,0,1,51,48.1c-0.88.56-1.49-1.36-2.08-.06-0.36,1.48-1.92,1.9-2.81,3S46,53.5,44.84,54.34c-0.69,1.06-2.48.71-2.49,2.21-0.69.49-1.66,1-1.32,2-0.81,1.06-1.88,2.11-2.13,3.57-0.11.8,0.91,1.2,0.44,2.15a5,5,0,0,1-.51,3.74c-0.64.62-.35,1.17,0.12,1.77a1.51,1.51,0,0,0,0,1.47A34.72,34.72,0,0,0,76.91,51.86Z"/><path class="cls-2" d="M61.5,44.53c1.7,0.14.85-2,.75-2.82,0.06-.27.41-1.2-0.13-1.14-1,.15-0.42,1.09-0.24,1.53C60.84,42.41,61.42,43.76,61.5,44.53Z"/><path class="cls-2" d="M47.29,31c-0.63.91,0.91,1.56,1.5,0.72a1.84,1.84,0,0,0,1.76-2c1.17-.56.2-1.75-0.85-1.75H49.47c-0.75,0-.78,1.33-1.71,1.05C46.84,29.5,48.53,30.78,47.29,31Z"/><path class="cls-2" d="M53.16,25.58c0.29-.5-0.74-0.37-1-0.44a2,2,0,0,0-1.5,1.77c0.56,0.47-.24,1.14.47,1.53,0.45,0.63,1.35.17,1.5,1,0.79,1.12-1.85.68-.89,1.72-0.4.22-.94,0.74-0.09,0.86,0.7-.06.68,0.17,0,0.35s-1.59,1.42-.32,1.09a9.07,9.07,0,0,1,3.22-.55c0.82,0,2-.41,1-1a0.72,0.72,0,0,0-.2-1.42,27.65,27.65,0,0,0-1.88-3.06c0.28-.44.93-1,0.11-1.38C53.08,26,52.2,26.06,53.16,25.58Z"/><path class="cls-2" d="M76.26,48.33a6.34,6.34,0,0,0-1.85-.39C73.8,48.45,76,48.66,76.26,48.33Z"/><path class="cls-2" d="M69.47,15c-1.3-.7-1.77,1.11-2.93,1.36-0.65,1.11-2,1.56-2.49,2.77A6.66,6.66,0,0,1,61,21c-0.84.72-2.49,0.81-2,2.27,0.23,1,.25,2.48,1.5,2.59,1,0.07,1.75-1,2.6-1.13a7.63,7.63,0,0,0,1.37,2.11c0.52,1.11-1.92.56-1,1.73-0.66.39,0.89,1-.17,0.68-1.58-.46-0.22-2-0.3-3a1.74,1.74,0,0,0-1.91,2.15c0.65,0.56.41,1.76-.58,1.37-0.9.64-2.31,0.49-2.62,1.81-0.59.62-1.66,0.68-2,1.49a1.86,1.86,0,0,1-2.4.64c-0.49.36-.14,1.4-1.16,0.85-1-.4-2.25.73-0.83,1.2A2.44,2.44,0,0,1,53.47,39c0,1.6-1.85.75-2.83,0.79-1.19,0-2.48-.5-3.41.45-0.19,1,.15,2.21-0.32,3.22a1.68,1.68,0,0,0-.07,2.06c-0.53,1.76,2,.21,2.33,1.65,1,0.48,2.16-.4,3.28-0.3,0.88-.47,1.93-1.46,1.9-2.38a2.76,2.76,0,0,1,2.05-2.23c1.3-.36.36-2.56,2.07-2.15,1.35,0.77,2.32-.54,3.51-0.83,1,0.46,1.24,1.77,2.24,2.3a24.27,24.27,0,0,1,3,1.9c1,1.11-.37,2.05-1.49,1.77-0.72-.32-1.46.46-0.52,0.75,0.62,0.22,1.94,1.42,1.94.05,0.17-.75,1.32-0.66,1.4-1.63-0.19-.52-0.31-1.6.54-1,1.06,0.6.59-.94-0.19-1-1-.49-1.81-1.13-2.77-1.68C65.85,39.83,64,39,65,38.15c1.23-.46,1.79,1.18,2.72,1.69a5.26,5.26,0,0,1,2.48,1.82,5.77,5.77,0,0,0,1.36,3.23c0.77,0.74.56,2.24,2,2,0.69-.11-0.06-1.33-0.23-1.55,0.79,0.74,1.47-.37.65-1,0.14-.59-0.68-1.32.34-1.41,0.41-.61,1.66,0,2,0.1-1,.65.91,1.62-0.07,2.15,0.72,0.48.71,1.93,1.87,1.47,0.21,0.11.43,0.24,0.65,0.34a34.72,34.72,0,0,0-7.28-32.76A16.73,16.73,0,0,1,69.47,15Zm2.79,4.8c-1,.71-2.72,1.69-1.54,3.1,0.09,1.46,2.11,1.35,3.12.93,0.67-.13,2.22-0.54,2.27.08-0.85,1-2.15-.13-3.2.49-1.26.25-1.68,1.61-2.08,2.66C71,28,70.24,29.5,69.2,28.86a4.65,4.65,0,0,0-2.33.46A1.19,1.19,0,0,1,65.13,29c-0.53-.26-1.48.59-0.76-0.28,0.26-.49,0-1.3.5-0.46,1,0.77,1.3-.76,2.24-0.58,0.62-.88.07-2.44,1.44-2.71,1-.7.23-1.42-0.51-1.86-0.75-1.38.84-1.92,1.77-2.45,1.07-.32.5-1.3,1.46-1.64C71.92,19,73.34,19,72.26,19.83Z"/><path class="cls-3" d="M91.1,12.79C90,19.57,84.13,23,76.9,25.13c-5.47,1.61-13.3.31-17.18-5.36,0.31,7.15,8.5,16.43,16.37,16.5C73.8,47.4,62.47,56,51.06,55.77a24.69,24.69,0,0,1-6.51-.94c3.8-8.33,11-14.9,11.62-13.86-1-1.54-4.16-3-6-2.84-6.07.39-11.85,5.57-17.35,6.11L32.67,44c-0.75-3.91,7-11.54,7.67-18.64A14.92,14.92,0,0,1,32.07,30c2.22-1.35,7.15-4.87,7.85-9.4,0.48-5.86,1.66-7.94-.9-14-5.26-1.42-13.44-.5-18.49,2.91C10,15.52,6.6,24.76,6.6,38.48a36.93,36.93,0,0,0,1.76,11.3A91.19,91.19,0,0,0,4.14,60.95c-1.27,4.69,0,13.14,1.9,16.63a52.58,52.58,0,0,1,8.67-6.94c4.65-2.85,7-2.31,7-2.31A37,37,0,0,0,80.52,38.48c0-1,0-2-.13-3C88.88,32.81,93.62,20.71,91.1,12.79ZM29.61,20.1A2.88,2.88,0,1,1,26.74,23,2.88,2.88,0,0,1,29.61,20.1Z"/><circle class="cls-4" cx="29.61" cy="22.98" r="2.88"/><path class="cls-3" d="M91.1,12.79C90,19.57,84.13,23,76.9,25.13c-5.47,1.61-13.3.31-17.18-5.36,0.31,7.15,8.5,16.43,16.37,16.5C73.8,47.4,62.47,56,51.06,55.77a24.69,24.69,0,0,1-6.51-.94c3.8-8.33,11-14.9,11.62-13.86-1-1.54-4.16-3-6-2.84-6.07.39-11.85,5.57-17.35,6.11L32.67,44c-0.75-3.91,7-11.54,7.67-18.64A14.92,14.92,0,0,1,32.07,30c2.22-1.35,7.15-4.87,7.85-9.4,0.48-5.86,1.66-7.94-.9-14L38.6,6.55c3.86,17.26-8.21,23.54-16.06,26.39-7.48,2.71-12.94-4.53-12.8-12.09C7.49,25.67,6.6,31.5,6.6,38.48a36.93,36.93,0,0,0,1.76,11.3A91.18,91.18,0,0,0,4.14,60.95c-1.27,4.69,0,13.14,1.9,16.63a52.58,52.58,0,0,1,8.67-6.94c4.65-2.85,7-2.31,7-2.31A37,37,0,0,0,80.52,38.48c0-1,0-2-.13-3C88.88,32.81,93.62,20.71,91.1,12.79Z"/><path class="cls-4" d="M23.73,69.67c2.79,2.16,6.49,3.84,11.91,4.92A36.75,36.75,0,0,1,23.73,69.67Z"/><path class="cls-4" d="M50.54,55.75a32.1,32.1,0,0,1-6-1l0,0.07A24.41,24.41,0,0,0,50.54,55.75Z"/><circle class="cls-4" cx="29.61" cy="22.98" r="2.88"/><path class="cls-3" d="M50.69,55.76h0Z"/><path class="cls-5" d="M21.76,68.33q1,0.7,2,1.34c-4.47-3.46-6.61-8.15-9.79-13.56C6.66,58.88,6,70.85,6.19,77.43a52.33,52.33,0,0,1,8.52-6.79C19.36,67.79,21.76,68.33,21.76,68.33Z"/><path class="cls-6" d="M77.68,36.23c1.15,16.06-8.49,26.61-22,32.89-9.78,4.53-28.6.61-34.64-4.89,1.67,4.23,6.06,7.16,10,9a36.67,36.67,0,0,0,4.65,1.34c1.24,0.25,2.56.46,4,.64a37.34,37.34,0,0,0,3.93.21,37,37,0,0,0,37-37c0-1,0-2-.12-2.93C79.26,35.83,78.31,36.05,77.68,36.23Z"/><path class="cls-7" d="M44,42.8c-2.29,1.76-6.81,4.82-10.4,5.14,2.61,3.87,7.19,5.83,10.95,6.82C47.79,47.76,53.36,42,55.42,41,51.11,38.82,46.05,41.25,44,42.8Z"/><path class="cls-6" d="M90.85,14c-1.58,6-7.16,9.14-13.95,11.14-5.3,1.56-12.82.39-16.81-4.84,2.31,7.19,10.53,11.5,12.83,12.16C75.52,33.21,81,33.73,86,28.19,90.16,23.66,90.81,17.62,90.85,14Z"/></svg>