<svg id="Calque_1" data-name="Calque 1" xmlns="http://www.w3.org/2000/svg" viewBox="0 0 75.29 74.53"><defs><style>.cls-1{fill:#0c6d95;}</style></defs><title>page9_icon2</title><path class="cls-1" d="M37.53,2A35.68,35.68,0,1,0,73.22,37.72,35.72,35.72,0,0,0,37.53,2ZM7.43,40.44H15a40,40,0,0,0,2.78,12.19H11.26A30,30,0,0,1,7.43,40.44ZM40.26,17.35v-8a35.15,35.15,0,0,1,8.06,8H40.26ZM51.55,22.8A34.56,34.56,0,0,1,54.81,35H40.26V22.8H51.55ZM34.81,9.48v7.87H26.94A35.15,35.15,0,0,1,34.81,9.48Zm0,13.32V35H20.45A34.56,34.56,0,0,1,23.71,22.8h11.1ZM15,35H7.43A30,30,0,0,1,11.26,22.8h6.51A40,40,0,0,0,15,35Zm5.46,5.45H34.81V52.63H23.71A34.58,34.58,0,0,1,20.45,40.44ZM34.81,58.08V66a35.15,35.15,0,0,1-7.87-7.88h7.87Zm5.45,8v-8h8.07A35.15,35.15,0,0,1,40.26,66.11Zm0-13.47V40.44H54.81a34.58,34.58,0,0,1-3.26,12.19H40.26Zm20-12.19h7.37a30,30,0,0,1-3.82,12.19H57.5A40,40,0,0,0,60.27,40.44Zm0-5.45A40,40,0,0,0,57.5,22.8h6.31A30,30,0,0,1,67.64,35H60.27ZM59.86,17.35h-5a40.55,40.55,0,0,0-5.75-7.57A30.36,30.36,0,0,1,59.86,17.35ZM26.3,9.66a40.56,40.56,0,0,0-5.87,7.69H15.21A30.35,30.35,0,0,1,26.3,9.66ZM15.21,58.08h5.23a40.57,40.57,0,0,0,5.87,7.7A30.35,30.35,0,0,1,15.21,58.08Zm33.85,7.57a40.58,40.58,0,0,0,5.76-7.57h5A30.36,30.36,0,0,1,49.06,65.66Z"/></svg>