<?xml version="1.0" encoding="utf-8"?>
<!-- Generator: Adobe Illustrator 20.1.0, SVG Export Plug-In . SVG Version: 6.00 Build 0)  -->
<svg version="1.1" id="Calque_1" xmlns="http://www.w3.org/2000/svg" xmlns:xlink="http://www.w3.org/1999/xlink" x="0px" y="0px"
	 viewBox="0 0 800 800" style="enable-background:new 0 0 800 800;" xml:space="preserve">
<style type="text/css">
	.st0{fill:#0F6E96;}
	.st1{fill:#C94B24;}
	.st2{fill:#AFA715;}
</style>
<g>
	<polygon class="st0" points="222,455.3 222,392 108,392 108,107 229,107 229,200 315,200 315,271 400,271 400,159 271,29 30,29 
		30,477 222,477 	"/>
</g>
<path class="st1" d="M662.1,555.5c-60.2,0-109,48.8-109,109c0,60.2,48.8,109,109,109c60.2,0,109-48.8,109-109h-109V555.5z"/>
<path class="st2" d="M557,527h149v100h64V314H265v348h252.5c0-35,10.5-73,39.5-96.9V527z M557,385h149v71H557V385z M485,598H336v-71
	h149V598z M485,456H336v-71h149V456z"/>
</svg>
