<?xml version="1.0" encoding="utf-8"?>
<!-- Generator: Adobe Illustrator 19.2.1, SVG Export Plug-In . SVG Version: 6.00 Build 0)  -->
<svg version="1.1" id="Calque_1" xmlns="http://www.w3.org/2000/svg" xmlns:xlink="http://www.w3.org/1999/xlink" x="0px" y="0px"
	 viewBox="0 0 75.3 74.5" style="enable-background:new 0 0 75.3 74.5;" xml:space="preserve">
<style type="text/css">
	.st0{fill:#C84B24;}
</style>
<title>page9_icon2</title>
<path class="st0" d="M37.5,2C17.8,2,1.9,18,1.9,37.7s16,35.7,35.7,35.7c19.7,0,35.6-16,35.7-35.6C73.2,18,57.2,2,37.5,2z M7.4,40.4
	H15c0.3,4.2,1.2,8.3,2.8,12.2h-6.5C9.1,48.9,7.8,44.7,7.4,40.4z M40.3,17.4v-8c3.1,2.2,5.8,4.9,8.1,8H40.3z M51.5,22.8
	c1.8,3.8,2.9,8,3.3,12.2H40.3V22.8H51.5z M34.8,9.5v7.9h-7.9C29.1,14.3,31.8,11.7,34.8,9.5z M34.8,22.8V35H20.5
	c0.3-4.2,1.4-8.4,3.3-12.2C23.7,22.8,34.8,22.8,34.8,22.8z M15,35H7.4c0.4-4.3,1.7-8.5,3.8-12.2h6.5C16.2,26.7,15.3,30.8,15,35z
	 M20.5,40.5h14.4v12.2H23.7C21.9,48.8,20.8,44.7,20.5,40.5L20.5,40.5z M34.8,58.1V66c-3-2.2-5.7-4.9-7.9-7.9L34.8,58.1L34.8,58.1z
	 M40.3,66.1v-8h8.1C46.1,61.2,43.4,63.9,40.3,66.1L40.3,66.1z M40.3,52.6V40.4h14.5c-0.3,4.2-1.4,8.4-3.3,12.2L40.3,52.6L40.3,52.6z
	 M60.3,40.4h7.4c-0.4,4.3-1.7,8.4-3.8,12.2h-6.3C59.1,48.7,60,44.6,60.3,40.4L60.3,40.4z M60.3,35c-0.3-4.2-1.2-8.3-2.8-12.2h6.3
	c2.1,3.7,3.4,7.9,3.8,12.2L60.3,35L60.3,35z M59.9,17.4h-5c-1.6-2.7-3.5-5.3-5.8-7.6C53.2,11.5,56.9,14.1,59.9,17.4z M26.3,9.7
	c-2.3,2.3-4.2,4.9-5.9,7.7h-5.2C18.3,14,22.1,11.4,26.3,9.7z M15.2,58.1h5.2c1.6,2.8,3.6,5.4,5.9,7.7C22.1,64.1,18.3,61.4,15.2,58.1
	z M49.1,65.7c2.2-2.3,4.1-4.8,5.8-7.6h5C56.8,61.4,53.2,64,49.1,65.7L49.1,65.7z"/>
</svg>
