<?xml version="1.0" encoding="utf-8"?>
<!-- Generator: Adobe Illustrator 19.2.1, SVG Export Plug-In . SVG Version: 6.00 Build 0)  -->
<svg version="1.1" id="Calque_1" xmlns="http://www.w3.org/2000/svg" xmlns:xlink="http://www.w3.org/1999/xlink" x="0px" y="0px"
	 viewBox="0 0 389.1 388.3" style="enable-background:new 0 0 389.1 388.3;" xml:space="preserve">
<style type="text/css">
	.st0{fill:#0291C4;}
	.st1{fill:none;stroke:#7F2A86;stroke-miterlimit:10;}
	.st2{fill:#FFFFFF;}
</style>
<g>
	<circle class="st0" cx="195.4" cy="193.9" r="190.6"/>
	<path class="st1" d="M179.2,87.5"/>
	<path class="st1" d="M159.1,87.5"/>
	<g>
		<path class="st2" d="M292.4,312.9H99.1c-23.9,0-43.4-19.5-43.4-43.4V116.8c0-23.9,19.5-43.4,43.4-43.4h63v28.3h-63
			c-8.3,0-15.1,6.8-15.1,15.1v152.7c0,8.3,6.8,15.1,15.1,15.1h193.3L292.4,312.9L292.4,312.9z"/>
		<path class="st2" d="M163.3,273.3v-67.2c0-23.9,19.5-43.4,43.4-43.4h45c8.3,0,15.1-6.8,15.1-15.1v-30.8c0-8.3-6.8-15.1-15.1-15.1
			h-72.6V73.3h72.6c23.9,0,43.4,19.5,43.4,43.4v30.8c0,23.9-19.5,43.4-43.4,43.4h-45c-8.3,0-15.1,6.8-15.1,15.1v38.9h100.8v28.3
			L163.3,273.3z"/>
		<path class="st2" d="M332.7,294.8l-9.5-7.6c-11.9-9.5-18.8-23.9-18.8-39.1V135.2l9.5,7.6c11.9,9.5,18.8,23.9,18.8,39.1V294.8z"/>
		<circle class="st2" cx="318.5" cy="114" r="14.1"/>
	</g>
</g>
</svg>
