<?xml version="1.0" encoding="utf-8"?>
<!-- Generator: Adobe Illustrator 17.1.0, SVG Export Plug-In . SVG Version: 6.00 Build 0)  -->
<!DOCTYPE svg PUBLIC "-//W3C//DTD SVG 1.1//EN" "http://www.w3.org/Graphics/SVG/1.1/DTD/svg11.dtd">
<svg version="1.1" id="Calque_1" xmlns="http://www.w3.org/2000/svg" xmlns:xlink="http://www.w3.org/1999/xlink" x="0px" y="0px"
	 viewBox="0 0 1500 300" enable-background="new 0 0 1500 300" xml:space="preserve">
<g>
	<path fill="#AFA70E" d="M333.4,150.8h20.3v49.6c0,6.8,3.6,10.2,10.8,10.2c2.2,0,4.2-0.1,6-0.2c1.8-0.1,3.4-0.3,4.8-0.6v-59h20.3
		v74.3c-5.9,3.3-16.3,5-31.1,5c-20.7,0-31.1-9.9-31.1-29.7V150.8z"/>
	<path fill="#AFA70E" d="M409.7,131.5l20.3-4.8V230h-20.3V131.5z"/>
	<path fill="#AFA70E" d="M454.4,131.5l20.3-4.8v24.1h21v19.4h-21v30.1c0,6.8,2.4,10.2,7.3,10.2c2.7,0,6.6-1,11.8-3.1l5.1,17.3
		c-5.1,3.5-10.8,5.2-16.9,5.2c-18.4,0-27.6-9.9-27.6-29.7v-30.1H444v-19.4h10.5V131.5z"/>
	<path fill="#AFA70E" d="M509.8,150.8h20.3v49.6c0,6.8,3.6,10.2,10.8,10.2c2.2,0,4.2-0.1,6-0.2c1.8-0.1,3.4-0.3,4.8-0.6v-59h20.3
		v74.3c-5.9,3.3-16.3,5-31.1,5c-20.7,0-31.1-9.9-31.1-29.7V150.8z"/>
	<path fill="#AFA70E" d="M586.1,155.3c6.1-3,16.5-4.5,31.1-4.5c3.4,0,7.6,0.5,12.6,1.5l-4.5,19.3c-3.4-0.9-6.1-1.3-8-1.3
		c-2.2,0-4.2,0.1-6,0.2c-1.8,0.1-3.4,0.3-4.8,0.6v59h-20.3V155.3z"/>
	<path fill="#AFA70E" d="M636.6,187.1c0-24.2,11.1-36.3,33.2-36.3c21.2,0,31.8,12.1,31.8,36.3c0,8.7-2.2,13-6.6,13h-38.1
		c0,7,3.6,10.5,10.8,10.5c8.9,0,17-1.3,24.4-4l3.8,18c-6.7,3.6-16.1,5.5-28.3,5.5c-20.7,0-31.1-12.1-31.1-36.3V187.1z M681.4,181.4
		c0-7.4-3.8-11.1-11.5-11.1c-8.6,0-12.9,3.7-12.9,11.1H681.4z"/>
	<path fill="#0C6D95" d="M745,130.9h19l33.5,57.3v-57.3h20.3V230h-19l-33.5-57.3V230H745V130.9z"/>
	<path fill="#0C6D95" d="M831.8,150.8H852v49.6c0,6.8,3.6,10.2,10.8,10.2c2.2,0,4.2-0.1,6-0.2c1.8-0.1,3.4-0.3,4.8-0.6v-59H894v74.3
		c-5.9,3.3-16.3,5-31.1,5c-20.7,0-31.1-9.9-31.1-29.7V150.8z"/>
	<path fill="#0C6D95" d="M908,155.3c6.1-3,16.5-4.5,31.1-4.5c7.6,0,13.1,1.4,16.5,4.1c4.4-2.7,11.7-4.1,22-4.1
		c18.4,0,27.6,9.9,27.6,29.7V230h-20.3v-49.6c0-6.8-2.4-10.2-7.3-10.2c-4.3,0-7.9,0.7-10.8,2.2V230h-20.3v-49.6
		c0-6.8-2.4-10.2-7.3-10.2c-2.2,0-4.2,0.1-6,0.2c-1.8,0.1-3.4,0.3-4.8,0.6v59H908V155.3z"/>
	<path fill="#0C6D95" d="M1019.2,187.1c0-24.2,11.1-36.3,33.2-36.3c21.2,0,31.8,12.1,31.8,36.3c0,8.7-2.2,13-6.6,13h-38.1
		c0,7,3.6,10.5,10.8,10.5c8.9,0,17-1.3,24.4-4l3.8,18c-6.7,3.6-16.1,5.5-28.3,5.5c-20.7,0-31.1-12.1-31.1-36.3V187.1z M1064,181.4
		c0-7.4-3.8-11.1-11.5-11.1c-8.6,0-12.9,3.7-12.9,11.1H1064z M1047.2,118.1h22.7l-11,26h-16.3L1047.2,118.1z"/>
	<path fill="#0C6D95" d="M1096.2,155.3c6.1-3,16.5-4.5,31.1-4.5c3.4,0,7.6,0.5,12.6,1.5l-4.5,19.3c-3.4-0.9-6.1-1.3-8-1.3
		c-2.2,0-4.2,0.1-6,0.2c-1.8,0.1-3.4,0.3-4.8,0.6v59h-20.3V155.3z"/>
	<path fill="#0C6D95" d="M1153.9,120.7h20.3v22.7h-20.3V120.7z M1153.9,150.8h20.3V230h-20.3V150.8z"/>
	<path fill="#0C6D95" d="M1188.1,183.7c0-22,10.4-32.9,31.1-32.9c14.8,0,25.2,1.6,31.1,4.9v100.7l-20.3,4.8v-32c-2.4,0.7-6,1-10.8,1
		c-20.7,0-31.1-11-31.1-33V183.7z M1230.1,171c-1.4-0.2-3.1-0.4-4.8-0.6c-1.8-0.1-3.8-0.2-6-0.2c-7.2,0-10.8,4.5-10.8,13.5V197
		c0,9,3.6,13.6,10.8,13.6c2.2,0,4.2-0.1,6-0.2c1.8-0.1,3.4-0.3,4.8-0.6V171z"/>
	<path fill="#0C6D95" d="M1264.4,150.8h20.3v49.6c0,6.8,3.6,10.2,10.8,10.2c2.2,0,4.2-0.1,6-0.2c1.8-0.1,3.4-0.3,4.8-0.6v-59h20.3
		v74.3c-5.9,3.3-16.3,5-31.1,5c-20.7,0-31.1-9.9-31.1-29.7V150.8z"/>
	<path fill="#0C6D95" d="M1340.6,187.1c0-24.2,11.1-36.3,33.2-36.3c21.2,0,31.8,12.1,31.8,36.3c0,8.7-2.2,13-6.6,13h-38.1
		c0,7,3.6,10.5,10.8,10.5c8.9,0,17-1.3,24.4-4l3.8,18c-6.7,3.6-16.1,5.5-28.3,5.5c-20.7,0-31.1-12.1-31.1-36.3V187.1z M1385.4,181.4
		c0-7.4-3.8-11.1-11.5-11.1c-8.6,0-12.9,3.7-12.9,11.1H1385.4z"/>
	<path fill="#C8BEBE" d="M300.9,199.8c-6.2-1.5-14.8,10.2-19.9,18.3c9.1,4.2,19,6.7,29.5,7.2C309.7,215.8,307.2,201.3,300.9,199.8z"
		/>
	<path fill="#C8BEBE" d="M280.6,73.3c5,8.1,13.9,20.5,20.3,19c6.5-1.5,8.9-16.9,9.7-26.4C300,66.4,289.8,69,280.6,73.3z"/>
	<path fill="#C8BEBE" d="M267.7,80.9c-6.8,4.9-12.9,10.9-17.9,17.8c7,3.5,18.5,8.3,22.3,4.4C276,99.3,271.2,87.9,267.7,80.9z"/>
	<path fill="#C8BEBE" d="M250.3,193.2c5,6.7,11,12.5,17.7,17.4c3.4-7.1,7.8-17.9,4.1-21.6C268.4,185.3,257.4,189.7,250.3,193.2z"/>
	<path fill="#0C6D95" d="M228.8,145.6c0-47,37.9-85.2,84.8-85.5c-30.5-27.3-77.4-26.3-106.8,3l-27.5,27.5l-67.6,67.8
		c-10,11.4-15.4,25.5-15.8,40.9l82.2,0c0.4,0.4,0.8,0.9,1.3,1.3l27.5,27.5c29.3,29.3,76.2,30.3,106.8,3
		C266.8,230.7,228.8,192.6,228.8,145.6z M201.2,154.1c-4.7,4.7-12.3,4.7-16.9,0c-4.7-4.7-4.7-12.3,0-16.9c4.7-4.7,12.3-4.7,16.9,0
		C205.9,141.8,205.9,149.4,201.2,154.1z"/>
</g>
</svg>
