<svg id="Calque_1" data-name="Calque 1" xmlns="http://www.w3.org/2000/svg" viewBox="0 0 567 380"><defs><style>.cls-1{fill:#1858a0;}.cls-2{fill:#94c3e6;}.cls-3{fill:#ffd236;}.cls-4{fill:#fff;}</style></defs><title>logo_unr</title><path class="cls-1" d="M326.49,69.92a18.83,18.83,0,1,1-18.84-18.84A18.85,18.85,0,0,1,326.49,69.92Z"/><path class="cls-1" d="M262.77,246.06a46.15,46.15,0,0,1-7-2.74S88.31,57.25,98.93,46s32.84-19.29,43.44-19.89,21.2-5.17,21.2-5.17c6.38-2.6,7.36,4.2,8.06,7.4s2.57,4.5,8.95,13.15S178.67,56,179.3,65.94c0.32,15.73,16.74,31.13,31.83,33.39S232,82.28,252.27,86.15s22.85,21.55,23.81,31.2,7.7,12.51,30.19,17.05,31.83,16,30.5,31.8,4.5,16,4.5,16c6.13,1.29,3.86-5.75,10.94-8,5.66-1.8,10.09,1.63,13.51,3.34a276.81,276.81,0,0,1-42.29,35.27C299.3,229.05,268.1,243.77,262.77,246.06Z"/><path class="cls-1" d="M400.81,178.45a14.38,14.38,0,0,1,4.76,8.34c1.62,6.39,3.84-1.32,6.43.31s-0.29,10.27-3.24,18.29,3.53,10,8.7,13.18,2.25,14.16-4.54,17.35-2.87,7.73-6.71,9.64-11.23,1-15.45-3.83-30.86-4.18-41.14-4.85a39.38,39.38,0,0,0-12.11,1S363.12,222,377,207.67A240.15,240.15,0,0,0,400.81,178.45Z"/><path class="cls-2" d="M105.07,40.52s-45,9.62-58.84,24.77c-6.72,6.71-10.9,1.6-14.14,5.77s4.85,7.68,5.78,23.45-3.81,21.22-2.23,34.69c1.3,9,2.6,19.66-.31,30.91-2.6,9.94-2.6,21.51,9.35,29.22,5.75,3.85,19.57-7.71,32.09-.32s22.17,15.76,28,22.85,12.47,6.71,26.6,3.17,29-7.36,32.87-.63-5.83,7.73-7.75,15.1,2.88,10.33,6.75,5.45,12.2-10.55,20.54-1.91,11.61,11,15.48,8.7,2.88-8.39,2.88-8.39,14.43-3.19,8.35,10c-3.24,8.36,6.08,13.52,15.09,10.27s22.47-11.87,30.21-6.42c0.66-9.63.32-16.72,4.18-22.79s11.25-14.47,6.09-22.86-37.58-15.09-27.62-28.9c6.41-9.67,10.27-22.53-2.89-26.37s-29.26-5.14-29.26-5.14c1.3-13.83,2.56-14.78,6.09-20.61,2.28-2.17,4.88-9.6-7-9.32-5.47,1,1.61,7.14-1.94,11s-8-5.5-18.9-3.84-29.61.62-36.71-8.42,3.58-16,2.26-20.52-7.68-1.61-11.58-2-9.61,0-15.7-10.63S107,41.15,105.07,40.52Z"/><path class="cls-3" d="M284.71,72a27,27,0,0,0,3.92,10.86,204.81,204.81,0,0,0-22.92,3.92s-6.35-6.13-21-5.87S224.56,92.94,214,94.17s-18.27-7.9-18.27-7.9h0c31.72-12.83,60.46-20.41,89.3-23.61C285.08,62.66,283.86,65.64,284.71,72Zm46-1.38a26.71,26.71,0,0,0-1.35-9.7c18.43,0.89,32.48,4.15,46.48,10.16h0c16.51,7.07,29.81,18.43,36.13,34.12h0l-9.64,3.91,9.64-3.91a55.77,55.77,0,0,1,4,20.88h0c-0.21,26.52-16.49,53.25-42.15,78.07h0C348,228.93,312,251.87,269.57,269h0C227,286.24,185,294.68,149.09,294.71h0c-22.63,0-42.86-3.37-59.51-10.46h0C73,277.12,59.82,265.8,53.44,250.05h0a56.64,56.64,0,0,1-4-20.89h0c0.12-13.35,3.67-25.23,11-38.37,0,0,10.68-2.72,19.74,7.59-7.39,12.18-10.1,21.23-10,30.79h0a35.39,35.39,0,0,0,2.48,13.14h0c3.87,9.45,12,17.14,25.11,22.87h0c13.14,5.59,30.77,8.8,51.32,8.73h0c32.64,0.07,72.37-7.84,112.78-24.11h0c40.15-16.23,74.06-38,97.55-60.62h0c23.62-22.57,36-45.89,35.77-63.11h0a34.22,34.22,0,0,0-2.46-13h0c-3.84-9.51-12-17.21-25.14-22.91h0c-11-4.8-23-7.73-39.58-8.53A35.31,35.31,0,0,0,330.68,70.59Z"/><path class="cls-1" d="M137.35,213a38.05,38.05,0,0,1-27.44-11.53,43,43,0,0,1-8.33-12.43,41.52,41.52,0,0,1-3.52-15.36V123.65a16.24,16.24,0,0,1,4.67-11.55,16,16,0,0,1,11.68-4.84,15.43,15.43,0,0,1,11.54,4.93,16.47,16.47,0,0,1,4.53,11.46v49.8A6.09,6.09,0,0,0,131,176a9.35,9.35,0,0,0,1.69,2.56,5.72,5.72,0,0,0,1.91,1.31,6.54,6.54,0,0,0,2.75.55,6.88,6.88,0,0,0,2.69-.51,5.56,5.56,0,0,0,2.12-1.38,8.9,8.9,0,0,0,1.71-2.51,6.23,6.23,0,0,0,.49-2.61v-49.8a16.15,16.15,0,0,1,4.74-11.58,15.68,15.68,0,0,1,11.61-4.81,15.86,15.86,0,0,1,11.55,4.82,16.44,16.44,0,0,1,4.66,11.57v49.8a40.66,40.66,0,0,1-11.47,27.67A39.39,39.39,0,0,1,153,209.78,37.83,37.83,0,0,1,137.35,213ZM111,173.3a28.2,28.2,0,0,0,2.39,10.48,30,30,0,0,0,5.8,8.69,25.48,25.48,0,0,0,8.15,5.59,25.91,25.91,0,0,0,20.34-.13,26.22,26.22,0,0,0,8.45-5.85A27.69,27.69,0,0,0,164,173.32V123.65a3.37,3.37,0,0,0-1-2.55,3.39,3.39,0,0,0-4.6.06,3.17,3.17,0,0,0-1,2.49v49.8a19.12,19.12,0,0,1-1.65,8,21.8,21.8,0,0,1-4.14,6.1A18.07,18.07,0,0,1,144.9,192a20.2,20.2,0,0,1-15.29-.1,18.53,18.53,0,0,1-6.29-4.31,22.41,22.41,0,0,1-4.11-6.13,19,19,0,0,1-1.71-8v-49.8a3.49,3.49,0,0,0-1-2.59,2.52,2.52,0,0,0-2.08-.83,3,3,0,0,0-2.4.93,3.25,3.25,0,0,0-1,2.49V173.3Z"/><path class="cls-1" d="M234.66,213a16.14,16.14,0,0,1-16.39-16.36v-50a6.22,6.22,0,0,0-.52-2.58,8.32,8.32,0,0,0-1.48-2.29,7.78,7.78,0,0,0-2.22-1.45,6.16,6.16,0,0,0-2.64-.52,7.09,7.09,0,0,0-4.91,1.92,7.46,7.46,0,0,0-1.58,2.31,6.34,6.34,0,0,0-.49,2.61v50a16,16,0,0,1-4.84,11.67A15.57,15.57,0,0,1,188.31,213,16.09,16.09,0,0,1,172,196.69v-50a39.7,39.7,0,0,1,3.18-15.19,38.33,38.33,0,0,1,8.57-12.45,41.74,41.74,0,0,1,12.18-8.33,43.05,43.05,0,0,1,15.23-3.47h0.28a37.39,37.39,0,0,1,15.1,3.12,39.22,39.22,0,0,1,12.28,8.37,41.32,41.32,0,0,1,12.07,27.65v50.29a16.26,16.26,0,0,1-4.65,11.57A16,16,0,0,1,234.66,213Zm-23.24-86.16a18.76,18.76,0,0,1,7.82,1.6,20.44,20.44,0,0,1,6,3.92l0.24,0.23a21.35,21.35,0,0,1,4.16,6.2,19.33,19.33,0,0,1,1.64,7.85v50a3.19,3.19,0,0,0,3.42,3.39,3,3,0,0,0,2.34-.93,3.36,3.36,0,0,0,.91-2.46V146.86a28.33,28.33,0,0,0-8.27-18.94,26.41,26.41,0,0,0-8.28-5.65,24.2,24.2,0,0,0-9.79-2,30,30,0,0,0-10.4,2.36,28.84,28.84,0,0,0-8.36,5.74,25.21,25.21,0,0,0-5.74,8.33,26.59,26.59,0,0,0-2.12,10.14v49.9a3.15,3.15,0,0,0,3.36,3.39,2.7,2.7,0,0,0,2.13-.9,3.21,3.21,0,0,0,1-2.5v-50a19.35,19.35,0,0,1,1.57-7.78,20.37,20.37,0,0,1,4.31-6.32A20.08,20.08,0,0,1,211.42,126.89Z"/><path class="cls-1" d="M302.71,213a16.35,16.35,0,0,1-11.32-4.48l-12.94-12.92v1a16.28,16.28,0,1,1-32.55,0v-50a39.93,39.93,0,0,1,3.2-15.1,39.22,39.22,0,0,1,8.36-12.5,41,41,0,0,1,12.43-8.55,37.81,37.81,0,0,1,30.53-.13,42.87,42.87,0,0,1,12.37,8.27,40.67,40.67,0,0,1,8.61,12.55,37.21,37.21,0,0,1,3.25,15.46,38.43,38.43,0,0,1-6.86,22.39,39.92,39.92,0,0,1-9.77,10l6.17,6.17a15.8,15.8,0,0,1,3.65,5.75,17,17,0,0,1,0,11.6,15.45,15.45,0,0,1-3.53,5.67l-0.31.3A16.37,16.37,0,0,1,302.71,213Zm-37.23-48.69,34.91,34.88a3.21,3.21,0,0,0,2.32.84,3.29,3.29,0,0,0,2.33-.87,2.63,2.63,0,0,0,.54-0.79,5.16,5.16,0,0,0,.32-1.59,5.32,5.32,0,0,0-.33-1.66h0a3.27,3.27,0,0,0-.65-0.87l-18.86-18.87,8.8-3.77a27.48,27.48,0,0,0,12.26-9.95,25.41,25.41,0,0,0,4.57-15,24.4,24.4,0,0,0-2.13-10.17,27.68,27.68,0,0,0-5.83-8.56,29.35,29.35,0,0,0-8.51-5.67,24.78,24.78,0,0,0-20,.05,28.29,28.29,0,0,0-8.58,5.87,26.33,26.33,0,0,0-5.62,8.41,26.6,26.6,0,0,0-2.19,10.19v49.87a3.31,3.31,0,0,0,3.21,3.39,3.17,3.17,0,0,0,2.45-1,3.1,3.1,0,0,0,1-2.43V164.36Zm20,2.33a19.59,19.59,0,0,1-7.79-1.59,20.81,20.81,0,0,1-6.32-4.35,21.15,21.15,0,0,1-4.23-6.39,18.59,18.59,0,0,1-1.65-7.66,20.34,20.34,0,0,1,1.48-7.61,19.54,19.54,0,0,1,4.38-6.54,21,21,0,0,1,6.31-4.12,20.17,20.17,0,0,1,15.48,0,19.39,19.39,0,0,1,6.25,4.09,21.81,21.81,0,0,1,4.29,6.29,19.61,19.61,0,0,1,1.67,7.87,19.31,19.31,0,0,1-6,14.34A19.11,19.11,0,0,1,285.48,166.69Zm0-26.83a6.44,6.44,0,0,0-2.63.45l-0.22.09a7.74,7.74,0,0,0-2.37,1.56,6.37,6.37,0,0,0-1.29,2,7.25,7.25,0,0,0-.52,2.71,5.81,5.81,0,0,0,.55,2.43,8.35,8.35,0,0,0,1.64,2.54,7.69,7.69,0,0,0,2.29,1.56,6.63,6.63,0,0,0,2.55.49,6.31,6.31,0,0,0,4.82-2,6.88,6.88,0,0,0,1.53-7.65,8.57,8.57,0,0,0-1.61-2.37,6.64,6.64,0,0,0-2.08-1.29A6.38,6.38,0,0,0,285.48,139.86Z"/><path class="cls-4" d="M137.35,207.45a30.86,30.86,0,0,1-12.56-2.52,31.7,31.7,0,0,1-10.25-7,36.13,36.13,0,0,1-7-10.55,34.71,34.71,0,0,1-3-13V124.5a9.83,9.83,0,0,1,9.86-9.86,9,9,0,0,1,6.81,2.93A9.68,9.68,0,0,1,124,124.5v49.85a12.43,12.43,0,0,0,1.13,5.28A15.52,15.52,0,0,0,128,184a13,13,0,0,0,4.22,2.88,13.55,13.55,0,0,0,5.17,1,14.11,14.11,0,0,0,5.22-1,12.29,12.29,0,0,0,4.29-2.88,15.11,15.11,0,0,0,2.91-4.34,12.5,12.5,0,0,0,1.07-5.28V124.5a9.81,9.81,0,0,1,16.8-6.93,9.58,9.58,0,0,1,2.8,6.93v49.85A33.19,33.19,0,0,1,167.76,187a33.62,33.62,0,0,1-7,10.53,33.2,33.2,0,0,1-10.45,7.29A31.12,31.12,0,0,1,137.35,207.45Z"/><path class="cls-4" d="M211.42,114.64a31.36,31.36,0,0,1,12.5,2.53,34.11,34.11,0,0,1,10.3,7.08,34.66,34.66,0,0,1,10.18,23.36v50a9.82,9.82,0,0,1-2.81,7.08,9.42,9.42,0,0,1-6.92,2.79,9.6,9.6,0,0,1-9.9-9.87v-50a13.09,13.09,0,0,0-1.07-5.25,15.53,15.53,0,0,0-2.88-4.23,13.41,13.41,0,0,0-4.25-2.84,12.43,12.43,0,0,0-5.14-1,13.08,13.08,0,0,0-5.22,1,11.84,11.84,0,0,0-4.27,2.84,14.6,14.6,0,0,0-3,4.23,13.15,13.15,0,0,0-1,5.25v50a9.55,9.55,0,0,1-2.9,7.08,9.14,9.14,0,0,1-6.75,2.79,9.56,9.56,0,0,1-9.85-9.87v-50a32.82,32.82,0,0,1,2.65-12.6,32,32,0,0,1,7.1-10.42,34.61,34.61,0,0,1,10.39-7A36,36,0,0,1,211.42,114.64Z"/><path class="cls-4" d="M309.6,190.75a8.79,8.79,0,0,1,2.11,3.32,11.41,11.41,0,0,1,.67,3.65,11.86,11.86,0,0,1-.67,3.73,9.38,9.38,0,0,1-2.11,3.3,10.15,10.15,0,0,1-13.79,0L272,180.9v16.68a9.7,9.7,0,0,1-9.89,9.87,9.73,9.73,0,0,1-9.7-9.87v-50a32.93,32.93,0,0,1,2.68-12.55,34,34,0,0,1,7-10.56,35.72,35.72,0,0,1,10.48-7.15,31.33,31.33,0,0,1,25.28-.09,36.32,36.32,0,0,1,10.47,7.07,33.32,33.32,0,0,1,7.16,10.45,30.74,30.74,0,0,1,2.71,12.84,31.8,31.8,0,0,1-5.7,18.67,34.34,34.34,0,0,1-15.06,12.32ZM285.48,134.3a12.94,12.94,0,0,0-5.28,1,13.24,13.24,0,0,0-4.31,2.84,13.5,13.5,0,0,0-2.91,4.23,14.2,14.2,0,0,0-1,5.25,12.16,12.16,0,0,0,1.13,5.08,13.91,13.91,0,0,0,7.16,7.37,13.78,13.78,0,0,0,5.23,1.11,13.18,13.18,0,0,0,9.38-3.88,12.9,12.9,0,0,0,4-9.67,13.33,13.33,0,0,0-1.09-5.25,15.93,15.93,0,0,0-2.92-4.23,12.36,12.36,0,0,0-4.3-2.84A12.79,12.79,0,0,0,285.48,134.3Z"/><path class="cls-1" d="M328.53,249.7v16.76a9.2,9.2,0,0,0,1.17,5.24,6.27,6.27,0,0,0,9.86,0q1.17-1.6,1.17-5.24V249.7h4.2v17.93a10,10,0,0,1-2.74,7.25,10.6,10.6,0,0,1-15.13,0,10,10,0,0,1-2.74-7.25V249.7h4.2Z"/><path class="cls-1" d="M351.09,260h4.08v1.62a6.65,6.65,0,0,1,4.8-2.11,6.06,6.06,0,0,1,4.78,1.93q1.48,1.64,1.48,5.36v10.77h-4.08v-9.8a6.42,6.42,0,0,0-.72-3.58,2.91,2.91,0,0,0-2.56-1,3.14,3.14,0,0,0-2.87,1.33,9.17,9.17,0,0,0-.83,4.59v8.47h-4.08V260Z"/><path class="cls-1" d="M370.73,252.68a2.51,2.51,0,0,1,.77-1.84,2.63,2.63,0,0,1,3.73,0,2.49,2.49,0,0,1,.77,1.86,2.55,2.55,0,0,1-.77,1.87,2.5,2.5,0,0,1-1.86.78A2.65,2.65,0,0,1,370.73,252.68Zm4.67,7.3v17.56h-4.06V260h4.06Z"/><path class="cls-1" d="M382.72,260l4.54,9.86,4.53-9.86h4.56l-9.12,18.77L378.18,260h4.54Z"/><path class="cls-1" d="M414.46,269.72H401.87a5.34,5.34,0,0,0,1.41,3.44,4.29,4.29,0,0,0,3.19,1.26,4.15,4.15,0,0,0,2.51-.72A10.26,10.26,0,0,0,411.2,271l3.43,1.91a13.53,13.53,0,0,1-1.68,2.32,8.88,8.88,0,0,1-1.89,1.59,7.6,7.6,0,0,1-2.18.91,10.66,10.66,0,0,1-2.54.29,8.27,8.27,0,0,1-6.31-2.53,9.47,9.47,0,0,1-2.38-6.75,9.73,9.73,0,0,1,2.31-6.74,8.8,8.8,0,0,1,12.3-.07,9.72,9.72,0,0,1,2.23,6.8Zm-4.16-3.32a3.89,3.89,0,0,0-4.09-3.25,4.19,4.19,0,0,0-1.39.23,4,4,0,0,0-1.18.65,4.15,4.15,0,0,0-.91,1,4.75,4.75,0,0,0-.58,1.35h8.15Z"/><path class="cls-1" d="M418.9,260H423v1.57a7.74,7.74,0,0,1,2-1.6,4.54,4.54,0,0,1,2.09-.45,6.55,6.55,0,0,1,3.35,1l-1.86,3.71a3.87,3.87,0,0,0-2.25-.83q-3.32,0-3.32,5v9.11H418.9V260Z"/><path class="cls-1" d="M442.92,263l-3.35,1.79a2.32,2.32,0,0,0-2-1.6,1.35,1.35,0,0,0-1,.37,1.23,1.23,0,0,0-.4.94q0,1,2.35,2a14,14,0,0,1,4.35,2.56,4.38,4.38,0,0,1,1.12,3.15,5.52,5.52,0,0,1-1.88,4.25,6.73,6.73,0,0,1-10.66-2.69l3.46-1.61a7.52,7.52,0,0,0,1.1,1.61,2.51,2.51,0,0,0,1.77.69q2.06,0,2.06-1.88a2.58,2.58,0,0,0-1.59-2l-1.23-.59-1.25-.6a7.57,7.57,0,0,1-2.49-1.73,4.26,4.26,0,0,1-.92-2.83A5,5,0,0,1,434,261a5.5,5.5,0,0,1,3.89-1.5Q441.28,259.5,442.92,263Z"/><path class="cls-1" d="M447.09,252.68a2.51,2.51,0,0,1,.77-1.84,2.63,2.63,0,0,1,3.73,0,2.49,2.49,0,0,1,.77,1.86,2.55,2.55,0,0,1-.77,1.87,2.5,2.5,0,0,1-1.86.78A2.65,2.65,0,0,1,447.09,252.68Zm4.67,7.3v17.56H447.7V260h4.06Z"/><path class="cls-1" d="M461.08,263.77v13.78H457V263.77h-1.73V260H457v-6.44h4.06V260h3.16v3.79h-3.16Z"/><path class="cls-1" d="M483.31,269.72H470.73a5.34,5.34,0,0,0,1.41,3.44,4.29,4.29,0,0,0,3.19,1.26,4.16,4.16,0,0,0,2.51-.72,10.27,10.27,0,0,0,2.22-2.67l3.43,1.91a13.52,13.52,0,0,1-1.68,2.32,8.87,8.87,0,0,1-1.89,1.59,7.6,7.6,0,0,1-2.18.91,10.66,10.66,0,0,1-2.54.29,8.27,8.27,0,0,1-6.31-2.53,9.47,9.47,0,0,1-2.38-6.75A9.73,9.73,0,0,1,468.8,262a8.8,8.8,0,0,1,12.3-.07,9.72,9.72,0,0,1,2.23,6.8Zm-4.16-3.32a3.89,3.89,0,0,0-4.09-3.25,4.19,4.19,0,0,0-1.39.23,4,4,0,0,0-1.18.65,4.15,4.15,0,0,0-.91,1,4.74,4.74,0,0,0-.58,1.35h8.15Zm1.91-15.08-6.56,6-2.22-1.37,5-6.56Z"/><path class="cls-1" d="M498,263l-3.35,1.79a2.32,2.32,0,0,0-2-1.6,1.35,1.35,0,0,0-1,.37,1.23,1.23,0,0,0-.4.94q0,1,2.35,2A14,14,0,0,1,498,269a4.37,4.37,0,0,1,1.12,3.15,5.52,5.52,0,0,1-1.88,4.25,6.73,6.73,0,0,1-10.66-2.69l3.46-1.61a7.5,7.5,0,0,0,1.1,1.61,2.51,2.51,0,0,0,1.77.69q2.05,0,2.06-1.88a2.58,2.58,0,0,0-1.59-2l-1.23-.59-1.25-.6a7.57,7.57,0,0,1-2.49-1.73,4.26,4.26,0,0,1-.92-2.83,5,5,0,0,1,1.57-3.79,5.5,5.5,0,0,1,3.89-1.5Q496.32,259.5,498,263Z"/><path class="cls-1" d="M237.14,357.87V329.61l19.3,20.19V331.41h4v28.07l-19.3-20.14v18.52h-4Z"/><path class="cls-1" d="M265.48,349.4a8.3,8.3,0,0,1,2.59-6.15,9.13,9.13,0,0,1,12.65,0,8.94,8.94,0,0,1,0,12.56,8.84,8.84,0,0,1-6.39,2.52,8.48,8.48,0,0,1-6.29-2.57A8.64,8.64,0,0,1,265.48,349.4Zm3.94,0.07a5.63,5.63,0,0,0,1.34,4,5.19,5.19,0,0,0,7.23,0,6.26,6.26,0,0,0,0-7.78,5.13,5.13,0,0,0-7.2,0A5.36,5.36,0,0,0,269.43,349.47Z"/><path class="cls-1" d="M287.37,341.18h3.86v1.49a7.32,7.32,0,0,1,1.88-1.52,4.31,4.31,0,0,1,2-.43,6.24,6.24,0,0,1,3.19,1l-1.77,3.53a3.68,3.68,0,0,0-2.14-.79q-3.15,0-3.15,4.76v8.65h-3.86V341.18Z"/><path class="cls-1" d="M312.56,328.93h3.87v28.94h-3.87v-1.75a7.19,7.19,0,0,1-5.16,2.23,7.34,7.34,0,0,1-5.69-2.5,9.3,9.3,0,0,1-2.24-6.37,9,9,0,0,1,2.24-6.24,7.21,7.21,0,0,1,10.85-.12V328.93Zm-9.15,20.55a5.82,5.82,0,0,0,1.28,3.91,4.21,4.21,0,0,0,3.33,1.53,4.42,4.42,0,0,0,3.46-1.47,6.34,6.34,0,0,0,0-7.75,4.36,4.36,0,0,0-3.43-1.49,4.27,4.27,0,0,0-3.33,1.51A5.57,5.57,0,0,0,303.41,349.47Z"/><path class="cls-1" d="M318.86,347.71h7.64v3.36h-7.64v-3.36Z"/><path class="cls-1" d="M333.67,347.12v10.75h-4V331.41h4.53a20.37,20.37,0,0,1,5,.46,6.71,6.71,0,0,1,3,1.75,7.53,7.53,0,0,1,2.28,5.62,7.26,7.26,0,0,1-2.43,5.76,9.64,9.64,0,0,1-6.56,2.12h-1.85Zm0-3.7h1.49q5.5,0,5.5-4.23T335,335.09h-1.32v8.33Z"/><path class="cls-1" d="M359.26,341.18h3.87v16.69h-3.87v-1.75a7.41,7.41,0,0,1-10.85-.28,9.3,9.3,0,0,1-2.24-6.37,9,9,0,0,1,2.24-6.26,7.24,7.24,0,0,1,5.62-2.5,7.1,7.1,0,0,1,5.23,2.4v-1.94Zm-9.15,8.29a5.82,5.82,0,0,0,1.28,3.91,4.21,4.21,0,0,0,3.33,1.53,4.42,4.42,0,0,0,3.46-1.47,6.34,6.34,0,0,0,0-7.75,4.36,4.36,0,0,0-3.43-1.49,4.27,4.27,0,0,0-3.33,1.51A5.57,5.57,0,0,0,350.11,349.47Z"/><path class="cls-1" d="M377.7,344l-3.19,1.7a2.21,2.21,0,0,0-1.87-1.53,1.29,1.29,0,0,0-.91.35,1.18,1.18,0,0,0-.38.9q0,1,2.23,1.9a13.22,13.22,0,0,1,4.13,2.43,4.15,4.15,0,0,1,1.06,3,5.25,5.25,0,0,1-1.78,4,6.39,6.39,0,0,1-10.13-2.56l3.29-1.52a7,7,0,0,0,1,1.52,2.38,2.38,0,0,0,1.68.65,1.65,1.65,0,0,0,2-1.78,2.45,2.45,0,0,0-1.51-1.92l-1.16-.57-1.18-.56a7.25,7.25,0,0,1-2.37-1.65,4.05,4.05,0,0,1-.87-2.69,4.76,4.76,0,0,1,1.49-3.6,5.23,5.23,0,0,1,3.7-1.42A5.05,5.05,0,0,1,377.7,344Z"/><path class="cls-1" d="M405.37,328.93h3.87v28.94h-3.87v-1.75a7.19,7.19,0,0,1-5.16,2.23,7.35,7.35,0,0,1-5.69-2.5,9.3,9.3,0,0,1-2.24-6.37,9,9,0,0,1,2.24-6.24,7.21,7.21,0,0,1,10.85-.12V328.93Zm-9.15,20.55a5.82,5.82,0,0,0,1.28,3.91,4.21,4.21,0,0,0,3.33,1.53,4.42,4.42,0,0,0,3.46-1.47,6.34,6.34,0,0,0,0-7.75,4.36,4.36,0,0,0-3.43-1.49,4.27,4.27,0,0,0-3.33,1.51A5.57,5.57,0,0,0,396.22,349.47Z"/><path class="cls-1" d="M429.31,350.43h-12a5.06,5.06,0,0,0,1.34,3.27,4.07,4.07,0,0,0,3,1.2,4,4,0,0,0,2.38-.69,9.78,9.78,0,0,0,2.11-2.54l3.26,1.82a13,13,0,0,1-1.59,2.2,8.58,8.58,0,0,1-1.8,1.51,7.28,7.28,0,0,1-2.07.86,10.09,10.09,0,0,1-2.42.28,7.86,7.86,0,0,1-6-2.4,9,9,0,0,1-2.26-6.41,9.25,9.25,0,0,1,2.19-6.41,8.36,8.36,0,0,1,11.69-.07,9.24,9.24,0,0,1,2.12,6.46Zm-4-3.15a3.69,3.69,0,0,0-3.89-3.08,4,4,0,0,0-1.32.21A3.75,3.75,0,0,0,419,345a3.91,3.91,0,0,0-.86,1,4.42,4.42,0,0,0-.55,1.28h7.75Z"/><path class="cls-1" d="M464.65,332.82v4.72a11.08,11.08,0,0,0-7.16-2.9,9.12,9.12,0,0,0-6.87,2.93,9.88,9.88,0,0,0-2.81,7.13,9.64,9.64,0,0,0,2.81,7,9.28,9.28,0,0,0,6.89,2.86,8.43,8.43,0,0,0,3.58-.69,10.17,10.17,0,0,0,1.71-.93,20.09,20.09,0,0,0,1.86-1.4v4.82a14.38,14.38,0,0,1-7.2,1.95,13.28,13.28,0,0,1-9.68-4,13.12,13.12,0,0,1-4-9.63,13.59,13.59,0,0,1,3.34-9,13.31,13.31,0,0,1,10.64-4.85A13.56,13.56,0,0,1,464.65,332.82Z"/><path class="cls-1" d="M481.26,341.18h3.87v16.69h-3.87v-1.75a7.41,7.41,0,0,1-10.85-.28,9.3,9.3,0,0,1-2.24-6.37,9,9,0,0,1,2.24-6.26,7.24,7.24,0,0,1,5.62-2.5,7.1,7.1,0,0,1,5.23,2.4v-1.94Zm-9.15,8.29a5.82,5.82,0,0,0,1.28,3.91,4.21,4.21,0,0,0,3.33,1.53,4.42,4.42,0,0,0,3.46-1.47,6.34,6.34,0,0,0,0-7.75,4.36,4.36,0,0,0-3.43-1.49,4.27,4.27,0,0,0-3.33,1.51A5.57,5.57,0,0,0,472.1,349.47Z"/><path class="cls-1" d="M493.85,328.93v28.94H490V328.93h3.86Z"/><path class="cls-1" d="M511,341.18h3.87v16.69H511v-1.75a7.4,7.4,0,0,1-10.85-.28,9.3,9.3,0,0,1-2.24-6.37,9,9,0,0,1,2.24-6.26,7.24,7.24,0,0,1,5.62-2.5,7.1,7.1,0,0,1,5.23,2.4v-1.94Zm-9.15,8.29a5.82,5.82,0,0,0,1.28,3.91,4.21,4.21,0,0,0,3.33,1.53,4.42,4.42,0,0,0,3.46-1.47,6.34,6.34,0,0,0,0-7.75,4.36,4.36,0,0,0-3.43-1.49,4.27,4.27,0,0,0-3.33,1.51A5.57,5.57,0,0,0,501.89,349.47Z"/><path class="cls-1" d="M519.2,334.24a2.52,2.52,0,0,1,2.5-2.49,2.43,2.43,0,0,1,1.78.74,2.37,2.37,0,0,1,.74,1.77,2.43,2.43,0,0,1-.74,1.78,2.37,2.37,0,0,1-1.77.74A2.52,2.52,0,0,1,519.2,334.24Zm4.44,6.94v16.69h-3.86V341.18h3.86Z"/><path class="cls-1" d="M538.22,344l-3.19,1.7a2.21,2.21,0,0,0-1.87-1.53,1.29,1.29,0,0,0-.91.35,1.18,1.18,0,0,0-.38.9q0,1,2.23,1.9a13.22,13.22,0,0,1,4.13,2.43,4.15,4.15,0,0,1,1.06,3,5.25,5.25,0,0,1-1.78,4,6.39,6.39,0,0,1-10.13-2.56l3.29-1.52a7.05,7.05,0,0,0,1,1.52,2.38,2.38,0,0,0,1.68.65,1.65,1.65,0,0,0,2-1.78,2.44,2.44,0,0,0-1.51-1.92l-1.16-.57-1.18-.56a7.25,7.25,0,0,1-2.37-1.65,4.06,4.06,0,0,1-.87-2.69,4.76,4.76,0,0,1,1.49-3.6,5.23,5.23,0,0,1,3.7-1.42A5.05,5.05,0,0,1,538.22,344Z"/><path class="cls-1" d="M231.47,313.73V289.91l16.27,17v-15.5h3.37v23.66l-16.27-17v15.62h-3.37Z"/><path class="cls-1" d="M259.4,299.66v8.07q0,3.5,2.76,3.5t2.76-3.5v-8.07h3.25v8.15a9.08,9.08,0,0,1-.42,2.92,4.92,4.92,0,0,1-1.4,2,6.83,6.83,0,0,1-8.36,0,5,5,0,0,1-1.43-2,8,8,0,0,1-.41-2.92v-8.15h3.25Z"/><path class="cls-1" d="M272.27,299.66h3.25V301a6.83,6.83,0,0,1,1.6-1.33,3.91,3.91,0,0,1,1.78-.36,4.31,4.31,0,0,1,3.77,2.08,4.88,4.88,0,0,1,4.15-2.08q4.75,0,4.75,5.77v8.7h-3.26v-7.82a6,6,0,0,0-.49-2.86,1.78,1.78,0,0,0-1.66-.85,2.12,2.12,0,0,0-2,1,6.51,6.51,0,0,0-.61,3.25v7.27h-3.27V306q0-3.76-2.17-3.76a2.17,2.17,0,0,0-2,1,6.39,6.39,0,0,0-.63,3.23v7.27h-3.25V299.66Z"/><path class="cls-1" d="M308.49,307.46H298.41a4.28,4.28,0,0,0,1.13,2.76,3.44,3.44,0,0,0,2.56,1,3.32,3.32,0,0,0,2-.58,8.22,8.22,0,0,0,1.78-2.14l2.74,1.53a10.8,10.8,0,0,1-1.34,1.86,7.14,7.14,0,0,1-1.52,1.27,6.14,6.14,0,0,1-1.75.73,8.53,8.53,0,0,1-2,.23,6.62,6.62,0,0,1-5.06-2,7.58,7.58,0,0,1-1.91-5.4,7.79,7.79,0,0,1,1.85-5.4,7,7,0,0,1,9.85-.06,7.78,7.78,0,0,1,1.79,5.45v0.77Zm-3.34-2.66a3.12,3.12,0,0,0-3.28-2.6,3.39,3.39,0,0,0-1.11.18,3.24,3.24,0,0,0-.95.52,3.32,3.32,0,0,0-.73.81,3.78,3.78,0,0,0-.46,1.08h6.53Zm1.53-12.08-5.26,4.77-1.78-1.1,4-5.26Z"/><path class="cls-1" d="M312,299.66h3.25v1.26a6.27,6.27,0,0,1,1.59-1.29,3.67,3.67,0,0,1,1.68-.36,5.26,5.26,0,0,1,2.69.84l-1.49,3a3.11,3.11,0,0,0-1.81-.67q-2.66,0-2.66,4v7.3H312V299.66Z"/><path class="cls-1" d="M323.07,293.81a2.12,2.12,0,0,1,2.11-2.09,2,2,0,0,1,1.5.62,2,2,0,0,1,.62,1.49,2,2,0,0,1-.62,1.5,2,2,0,0,1-1.49.62A2.12,2.12,0,0,1,323.07,293.81Zm3.74,5.85v14.07h-3.25V299.66h3.25Z"/><path class="cls-1" d="M341.3,321.39v-9.23a6.15,6.15,0,0,1-9.14-.12,7.6,7.6,0,0,1-1.89-5.27,7.83,7.83,0,0,1,1.89-5.36,6.14,6.14,0,0,1,4.78-2.14,6,6,0,0,1,4.36,1.92v-1.53h3.27v21.73H341.3Zm-7.71-14.76a4.87,4.87,0,0,0,1.1,3.31,3.49,3.49,0,0,0,2.79,1.3,3.71,3.71,0,0,0,2.9-1.24,4.71,4.71,0,0,0,1.13-3.27,4.81,4.81,0,0,0-1.11-3.26,3.68,3.68,0,0,0-2.89-1.26,3.59,3.59,0,0,0-2.8,1.27A4.64,4.64,0,0,0,333.58,306.63Z"/><path class="cls-1" d="M352.25,299.66v8.07q0,3.5,2.76,3.5t2.76-3.5v-8.07H361v8.15a9.06,9.06,0,0,1-.42,2.92,4.91,4.91,0,0,1-1.4,2,6.84,6.84,0,0,1-8.37,0,5,5,0,0,1-1.43-2,8,8,0,0,1-.4-2.92v-8.15h3.25Z"/><path class="cls-1" d="M377.93,307.46H367.85a4.28,4.28,0,0,0,1.13,2.76,3.44,3.44,0,0,0,2.56,1,3.32,3.32,0,0,0,2-.58,8.23,8.23,0,0,0,1.78-2.14l2.74,1.53a10.79,10.79,0,0,1-1.34,1.86,7.14,7.14,0,0,1-1.52,1.27,6.15,6.15,0,0,1-1.75.73,8.53,8.53,0,0,1-2,.23,6.62,6.62,0,0,1-5.06-2,7.58,7.58,0,0,1-1.91-5.4,7.79,7.79,0,0,1,1.85-5.4,7,7,0,0,1,9.85-.06,7.78,7.78,0,0,1,1.79,5.45v0.77Zm-3.34-2.66a3.12,3.12,0,0,0-3.28-2.6,3.39,3.39,0,0,0-1.11.18,3.25,3.25,0,0,0-.95.52,3.32,3.32,0,0,0-.73.81,3.78,3.78,0,0,0-.46,1.08h6.53Z"/><path class="cls-1" d="M389.66,302.06L387,303.49a1.86,1.86,0,0,0-1.57-1.29,1.09,1.09,0,0,0-.77.3,1,1,0,0,0-.32.76q0,0.81,1.88,1.6a11.24,11.24,0,0,1,3.48,2,3.5,3.5,0,0,1,.9,2.53,4.42,4.42,0,0,1-1.5,3.4,5.39,5.39,0,0,1-8.54-2.15l2.77-1.29a6.11,6.11,0,0,0,.88,1.29,2,2,0,0,0,1.42.55,1.4,1.4,0,0,0,1.65-1.5,2.06,2.06,0,0,0-1.27-1.62l-1-.48-1-.48a6.08,6.08,0,0,1-2-1.39,3.41,3.41,0,0,1-.74-2.27,4,4,0,0,1,1.25-3,4.41,4.41,0,0,1,3.12-1.2A4.26,4.26,0,0,1,389.66,302.06Z"/><path class="cls-1" d="M415.43,307.46H405.35a4.28,4.28,0,0,0,1.13,2.76,3.44,3.44,0,0,0,2.56,1,3.32,3.32,0,0,0,2-.58,8.23,8.23,0,0,0,1.78-2.14l2.74,1.53a10.79,10.79,0,0,1-1.34,1.86,7.14,7.14,0,0,1-1.52,1.27,6.14,6.14,0,0,1-1.75.73,8.53,8.53,0,0,1-2,.23,6.62,6.62,0,0,1-5.06-2,7.58,7.58,0,0,1-1.91-5.4,7.79,7.79,0,0,1,1.85-5.4,7,7,0,0,1,9.85-.06,7.78,7.78,0,0,1,1.79,5.45v0.77Zm-3.34-2.66a3.12,3.12,0,0,0-3.28-2.6,3.39,3.39,0,0,0-1.11.18,3.25,3.25,0,0,0-.95.52,3.32,3.32,0,0,0-.73.81,3.78,3.78,0,0,0-.46,1.08h6.53Z"/><path class="cls-1" d="M419,299.66h3.26V301a5.33,5.33,0,0,1,3.84-1.69,4.86,4.86,0,0,1,3.83,1.55,6.33,6.33,0,0,1,1.19,4.29v8.62h-3.27v-7.85a5.14,5.14,0,0,0-.58-2.87,2.33,2.33,0,0,0-2-.81,2.51,2.51,0,0,0-2.3,1.07,7.35,7.35,0,0,0-.66,3.68v6.78H419V299.66Z"/><path class="cls-1" d="M452.51,304.23l6.91,9.51H455.3l-6.37-9.13h-0.61v9.13H445v-22.3h3.94q4.42,0,6.38,1.66a6.11,6.11,0,0,1,2.17,4.88A6.34,6.34,0,0,1,456.1,302,6.06,6.06,0,0,1,452.51,304.23Zm-4.19-2.56h1.07q4.78,0,4.78-3.65,0-3.42-4.65-3.42h-1.2v7.08Z"/><path class="cls-1" d="M474.49,307.46H464.4a4.28,4.28,0,0,0,1.13,2.76,3.44,3.44,0,0,0,2.56,1,3.32,3.32,0,0,0,2-.58,8.23,8.23,0,0,0,1.78-2.14l2.74,1.53a10.78,10.78,0,0,1-1.34,1.86,7.14,7.14,0,0,1-1.52,1.27,6.14,6.14,0,0,1-1.75.73,8.53,8.53,0,0,1-2,.23,6.62,6.62,0,0,1-5.06-2,7.58,7.58,0,0,1-1.91-5.4,7.79,7.79,0,0,1,1.85-5.4,7,7,0,0,1,9.85-.06,7.78,7.78,0,0,1,1.79,5.45v0.77Zm-3.34-2.66a3.12,3.12,0,0,0-3.28-2.6,3.39,3.39,0,0,0-1.11.18,3.25,3.25,0,0,0-.95.52,3.32,3.32,0,0,0-.73.81,3.78,3.78,0,0,0-.46,1.08h6.53Zm1.53-12.08-5.26,4.77-1.78-1.1,4-5.26Z"/><path class="cls-1" d="M491.65,313.4q0,1-.07,1.75a12.08,12.08,0,0,1-.18,1.34,5.93,5.93,0,0,1-1.36,2.73,6.58,6.58,0,0,1-5.24,2.19,7,7,0,0,1-4.64-1.52,6.24,6.24,0,0,1-2.17-4.33h3.27a3.68,3.68,0,0,0,.62,1.6,3.49,3.49,0,0,0,2.95,1.31q3.57,0,3.57-4.36v-2a6.07,6.07,0,0,1-4.46,2,6,6,0,0,1-4.71-2.08,7.71,7.71,0,0,1-1.85-5.27,8.12,8.12,0,0,1,1.72-5.23,6,6,0,0,1,4.88-2.28,5.68,5.68,0,0,1,4.42,2v-1.59h3.25V313.4Zm-3.12-6.67a4.73,4.73,0,0,0-1.1-3.28,3.63,3.63,0,0,0-2.84-1.25,3.5,3.5,0,0,0-2.92,1.37,5.64,5.64,0,0,0,0,6.32,3.5,3.5,0,0,0,2.92,1.34,3.57,3.57,0,0,0,2.95-1.36A4.83,4.83,0,0,0,488.53,306.74Z"/><path class="cls-1" d="M495.26,293.81a2.12,2.12,0,0,1,2.11-2.09,2,2,0,0,1,1.5.62,2,2,0,0,1,.62,1.49,2,2,0,0,1-.62,1.5,2,2,0,0,1-1.49.62A2.12,2.12,0,0,1,495.26,293.81Zm3.74,5.85v14.07h-3.25V299.66H499Z"/><path class="cls-1" d="M502.45,306.6a7,7,0,0,1,2.18-5.19,7.69,7.69,0,0,1,10.66,0,7.53,7.53,0,0,1,0,10.59,7.45,7.45,0,0,1-5.39,2.12,7.15,7.15,0,0,1-5.3-2.17A7.29,7.29,0,0,1,502.45,306.6Zm3.32,0.06A4.76,4.76,0,0,0,506.9,310a4.38,4.38,0,0,0,6.1,0,5.29,5.29,0,0,0,0-6.56,4.32,4.32,0,0,0-6.07,0A4.52,4.52,0,0,0,505.77,306.65Z"/><path class="cls-1" d="M520.9,299.66h3.26V301a5.33,5.33,0,0,1,3.84-1.69,4.86,4.86,0,0,1,3.83,1.55,6.33,6.33,0,0,1,1.19,4.29v8.62h-3.27v-7.85a5.14,5.14,0,0,0-.58-2.87,2.33,2.33,0,0,0-2-.81,2.51,2.51,0,0,0-2.3,1.07,7.35,7.35,0,0,0-.66,3.68v6.78H520.9V299.66Z"/></svg>