<svg id="Calque_1" data-name="Calque 1" xmlns="http://www.w3.org/2000/svg" viewBox="0 0 229 177"><defs><style>.cls-1{fill:#e8900c;}.cls-2{fill:#3a93c1;}</style></defs><title>mail01</title><path class="cls-1" d="M118,134c0-.44,0-6.3,0-6.75A39.12,39.12,0,0,0,48.3,102.83L19.66,131.48a27,27,0,0,0-7.93,19H47.44c7.17,9.62,16.72,17.46,31.46,16.86,21.07,0,29-24.23,29-24.23C81.8,143.73,51,135,118,134ZM84.92,121.4a7.1,7.1,0,1,1,7.1,7.1A7.1,7.1,0,0,1,84.92,121.4Z"/><path class="cls-2" d="M219.1,9.73H119.39V76.68h24.15v26.78l26.78-26.78H219.1V9.73Zm-24.15,43H143.54v-19h51.41v19Z"/></svg>