<?xml version="1.0" encoding="utf-8"?>
<!-- Generator: Adobe Illustrator 19.2.1, SVG Export Plug-In . SVG Version: 6.00 Build 0)  -->
<svg version="1.1" id="Calque_3" xmlns="http://www.w3.org/2000/svg" xmlns:xlink="http://www.w3.org/1999/xlink" x="0px" y="0px"
	 viewBox="0 0 196.7 250.9" style="enable-background:new 0 0 196.7 250.9;" xml:space="preserve">
<style type="text/css">
	.st0{fill:#0091C3;}
	.st1{fill:#C84B24;}
	.st2{fill:#802489;}
	.st3{fill:#AFA70E;}
	.st4{fill:#FFFFFF;}
</style>
<title>page3_icon3</title>
<rect x="0.3" y="158.2" class="st0" width="93" height="93"/>
<rect x="103.4" y="158.1" class="st1" width="93" height="93"/>
<rect x="103.2" y="55.4" class="st2" width="93" height="93"/>
<rect x="0.3" y="55.4" class="st3" width="93" height="93"/>
<path class="st4" d="M49.7,74.4c-8,0-15.6,3.5-20.9,9.6L14.3,98.5c-2.6,2.6-4,6.1-4.1,9.7H23c3.5,14.7,18.3,23.9,33.1,20.3
	c14.7-3.5,23.9-18.3,20.3-33.1C73.5,83.1,62.4,74.4,49.7,74.4z M49.7,119.4c-9.7,0-17.5-7.8-17.5-17.5S40,84.4,49.7,84.4
	c9.7,0,17.5,7.8,17.5,17.5l0,0C67.2,111.6,59.3,119.4,49.7,119.4L49.7,119.4z"/>
<polygon class="st4" points="43.7,101.9 43.7,91.7 52.5,96.8 61.4,101.9 52.5,107 43.7,112.1 "/>
<polygon class="st4" points="68.6,193.2 53.5,177.8 52.6,177.8 52.6,193.9 68.6,193.9 "/>
<path class="st4" d="M47.6,198.9v-21.1H25v52.9h43.6v-31.8H47.6z M60.9,224.9H32.7v-7.6h28.2V224.9z M60.9,212.3H32.7v-7.6h28.2
	V212.3L60.9,212.3z"/>
<path class="st4" d="M152.4,78.1L152.4,78.1c-0.8,0.5-1.6,1.2-2.3,1.9l0,0l-5.7,5.7l-3.3,3.3c-5.9,5.9-5.9,15.5,0,21.4l0,0
	c0.5,0.5,1,0.9,1.5,1.3l7-7c-0.7-0.2-1.3-0.6-1.8-1.1c-1.7-1.7-1.7-4.5,0-6.2l10.8-10.8c1.7-1.7,4.5-1.7,6.2,0
	c1.7,1.7,1.7,4.5,0,6.2l-1,1c2.3,4,3,8.7,2,13.2l5.7-5.7c5.9-5.9,5.9-15.5,0-21.4l0,0C166.4,75,158.4,74.2,152.4,78.1z"/>
<path class="st4" d="M156.8,91.9l-7,7c0.7,0.2,1.3,0.6,1.8,1.1c1.7,1.7,1.7,4.5,0,6.2L140.8,117c-1.7,1.7-4.5,1.7-6.2,0
	c-1.7-1.7-1.7-4.5,0-6.2l1-1c-2.3-4-3-8.7-2-13.2l-5.7,5.7c-5.9,5.9-5.9,15.5,0,21.4l0,0c5.9,5.9,15.5,5.9,21.4,0l0,0l5.8-5.8
	l3.3-3.3c5.9-5.9,5.9-15.5,0-21.4l0,0C157.9,92.8,157.3,92.3,156.8,91.9z"/>
<path class="st4" d="M135.7,214c-1.2-3.7-4.6-6-7.7-5l-0.6,0.2c-3,0.9-4.5,4.8-3.3,8.5l2.6,8c1.2,3.7,4.6,6,7.7,5l0.6-0.2
	c3-0.9,4.5-4.8,3.3-8.5L135.7,214z"/>
<path class="st4" d="M169.1,201c0,2-0.3,3.9-0.8,5.9c1.1-0.4,2.3-0.4,3.4-0.1c0.6-1.8,0.9-3.8,0.9-5.7c0-12.6-10.2-22.8-22.8-22.8
	l0,0l0,0c-12.6,0-22.8,10.2-22.8,22.7c0,1.9,0.3,3.9,0.9,5.7c1.1-0.3,2.3-0.3,3.4,0.1c-0.5-1.9-0.8-3.9-0.8-5.9
	c0-10.6,8.6-19.2,19.2-19.2l0,0C160.5,181.8,169.1,190.4,169.1,201L169.1,201z"/>
<path class="st4" d="M164.2,214c1.2-3.7,4.6-6,7.7-5l0.6,0.2c3,0.9,4.5,4.8,3.3,8.5l-2.6,8c-1.2,3.7-4.6,6-7.7,5l-0.6-0.2
	c-3-0.9-4.5-4.8-3.3-8.5L164.2,214z"/>
<path class="st4" d="M56.9,23.9c-1.1,0-2.1,0.5-2.8,1.4c-0.7,1.1-1.1,2.4-1,3.8c0,3.3,1.3,5,3.8,5c1.3,0,2.6-0.3,3.8-0.8v2.7
	c-1.3,0.5-2.7,0.8-4.1,0.8c-1.9,0.1-3.7-0.6-5-2C50.3,33,49.7,31,49.9,29c0-1.4,0.3-2.8,0.8-4.1c0.5-1.1,1.4-2.1,2.5-2.7
	c1.1-0.6,2.4-1,3.7-0.9c1.5,0,3,0.4,4.4,1.1l-1,2.6c-0.6-0.3-1.1-0.5-1.7-0.7C58.1,24,57.5,23.9,56.9,23.9z"/>
<path class="st4" d="M74.1,30.7c0.1,1.6-0.4,3.2-1.5,4.4c-1.1,1.1-2.6,1.7-4.1,1.6c-1,0-2-0.2-2.9-0.7c-0.8-0.5-1.5-1.2-1.9-2.1
	c-0.5-1-0.7-2.1-0.7-3.2c-0.1-1.6,0.4-3.2,1.5-4.4c1.1-1.1,2.6-1.7,4.1-1.6c1,0,2,0.2,2.9,0.7c0.8,0.5,1.5,1.2,1.9,2.1
	C73.9,28.6,74.1,29.6,74.1,30.7z M66.2,30.7c-0.1,0.9,0.1,1.8,0.6,2.6c0.4,0.6,1.1,0.9,1.8,0.9c0.7,0.1,1.4-0.3,1.8-0.9
	c0.4-0.8,0.6-1.7,0.6-2.6c0.1-0.9-0.1-1.8-0.5-2.5c-0.8-1-2.3-1.1-3.3-0.3c-0.1,0.1-0.2,0.2-0.3,0.3C66.3,29,66.1,29.9,66.2,30.7
	L66.2,30.7z"/>
<path class="st4" d="M84.8,36.5L84.4,35h-0.1c-0.3,0.5-0.8,1-1.4,1.2c-0.7,0.3-1.4,0.5-2.1,0.4c-1.1,0.1-2.2-0.3-3-1.1
	c-0.7-0.9-1.1-2-1-3.1V25h3.1v6.7c0,0.7,0.1,1.3,0.4,1.9c0.3,0.4,0.9,0.7,1.4,0.6c0.7,0.1,1.5-0.3,1.9-0.9c0.5-0.9,0.7-1.9,0.6-2.9
	V25h3.1v11.5H84.8L84.8,36.5z"/>
<path class="st4" d="M96.9,24.8c0.4,0,0.7,0,1.1,0.1l-0.2,2.9c-0.3-0.1-0.6-0.1-0.9-0.1c-0.8-0.1-1.7,0.2-2.3,0.8
	c-0.6,0.6-0.9,1.3-0.8,2.1v5.8h-3.1V25h2.4l0.5,1.9h0.2c0.3-0.6,0.8-1.2,1.4-1.5C95.5,25,96.2,24.8,96.9,24.8z"/>
<path class="st4" d="M108,33.1c0.1,1-0.4,2.1-1.2,2.7c-1.1,0.7-2.4,1-3.7,0.9c-0.7,0-1.4,0-2.1-0.2c-0.6-0.1-1.1-0.3-1.7-0.5v-2.6
	c0.6,0.3,1.3,0.5,2,0.7c0.6,0.2,1.3,0.3,1.9,0.3c1.1,0,1.7-0.3,1.7-1c0-0.2-0.1-0.4-0.2-0.6c-0.2-0.2-0.5-0.4-0.8-0.5
	c-0.4-0.2-0.9-0.4-1.5-0.7c-0.7-0.3-1.3-0.6-1.9-1c-0.4-0.3-0.7-0.7-0.9-1.1c-0.2-0.5-0.3-1-0.3-1.5c0-0.9,0.4-1.8,1.2-2.4
	c1-0.6,2.2-0.9,3.4-0.8c1.4,0,2.7,0.3,4,0.9l-0.9,2.3c-0.6-0.2-1.1-0.4-1.6-0.6c-0.5-0.2-1-0.2-1.5-0.2c-0.9,0-1.4,0.3-1.4,0.8
	c0,0.3,0.2,0.6,0.4,0.7c0.6,0.4,1.3,0.7,2,0.9c0.7,0.2,1.4,0.6,2,1c0.4,0.3,0.7,0.7,0.9,1.1C108,32.1,108,32.6,108,33.1z"/>
<path class="st4" d="M22.7,46h-8.9V21.7l0.1-4l0.1-4.4c-1.5,1.5-2.5,2.4-3.1,2.9l-4.8,3.9l-4.3-5.4L15.4,3.9h7.3
	C22.7,3.9,22.7,46,22.7,46z"/>
</svg>
