<svg id="Calque_1" data-name="Calque 1" xmlns="http://www.w3.org/2000/svg" viewBox="0 0 196.74 250.85"><defs><style>.cls-1{fill:#c84b24;}.cls-2{fill:#fff;}</style></defs><title>page3_icon1</title><rect class="cls-1" x="1.23" y="55.34" width="195.51" height="195.51"/><path class="cls-2" d="M132.77,94.57l-31.15,31.15L86.34,110.44a22.79,22.79,0,0,0-6.6,16.06V147.6L54,173.3l-10.3,38.32,38.32-10.3,78.73-78.73Zm-64.39,92.2a7.08,7.08,0,1,1,7.08-7.08A7.08,7.08,0,0,1,68.38,186.77Z"/><path class="cls-2" d="M58.56,24a3.24,3.24,0,0,0-2.78,1.35,6.28,6.28,0,0,0-1,3.76q0,5,3.76,5a11.87,11.87,0,0,0,3.83-.79V36a10.6,10.6,0,0,1-4.12.77,6.29,6.29,0,0,1-5-2,8.4,8.4,0,0,1-1.73-5.7,9.3,9.3,0,0,1,.85-4.1,6.15,6.15,0,0,1,2.45-2.7,7.24,7.24,0,0,1,3.74-.94,10.09,10.09,0,0,1,4.39,1.06l-1,2.58a17,17,0,0,0-1.69-.7A5,5,0,0,0,58.56,24Z"/><path class="cls-2" d="M75.74,30.85a6.16,6.16,0,0,1-1.48,4.38,5.35,5.35,0,0,1-4.11,1.58,5.75,5.75,0,0,1-2.91-.72A4.81,4.81,0,0,1,65.31,34a7,7,0,0,1-.68-3.16,6.13,6.13,0,0,1,1.47-4.37,5.38,5.38,0,0,1,4.12-1.56,5.78,5.78,0,0,1,2.91.72,4.79,4.79,0,0,1,1.94,2.06A6.91,6.91,0,0,1,75.74,30.85Zm-7.93,0a4.81,4.81,0,0,0,.56,2.57,2,2,0,0,0,1.82.87,2,2,0,0,0,1.8-.87,4.87,4.87,0,0,0,.55-2.58A4.74,4.74,0,0,0,72,28.3a2.36,2.36,0,0,0-3.62,0A4.73,4.73,0,0,0,67.82,30.85Z"/><path class="cls-2" d="M86.45,36.6L86,35.13H85.87a3.31,3.31,0,0,1-1.43,1.24,4.87,4.87,0,0,1-2.1.44,4,4,0,0,1-3-1.08,4.35,4.35,0,0,1-1-3.11V25.14H81.4v6.7a3.21,3.21,0,0,0,.44,1.86,1.6,1.6,0,0,0,1.41.62,2.11,2.11,0,0,0,1.9-.88,5.44,5.44,0,0,0,.58-2.91V25.14h3.13V36.6h-2.4Z"/><path class="cls-2" d="M98.53,24.92a5.05,5.05,0,0,1,1.06.09l-0.24,2.93a3.58,3.58,0,0,0-.92-0.1,3.32,3.32,0,0,0-2.33.77,2.78,2.78,0,0,0-.84,2.15V36.6H92.13V25.14H94.5L95,27.06h0.15a4.3,4.3,0,0,1,1.44-1.55A3.55,3.55,0,0,1,98.53,24.92Z"/><path class="cls-2" d="M109.66,33.2a3.16,3.16,0,0,1-1.23,2.69,6.05,6.05,0,0,1-3.67.92,11.54,11.54,0,0,1-2.13-.17,8.08,8.08,0,0,1-1.65-.5V33.56a10.89,10.89,0,0,0,2,.69,8,8,0,0,0,1.92.28q1.7,0,1.7-1a0.82,0.82,0,0,0-.23-0.6,3.27,3.27,0,0,0-.78-0.52q-0.55-.29-1.48-0.68a9.23,9.23,0,0,1-1.94-1,2.87,2.87,0,0,1-.9-1.08,3.57,3.57,0,0,1-.28-1.5,2.72,2.72,0,0,1,1.18-2.36,5.77,5.77,0,0,1,3.36-.84,9.55,9.55,0,0,1,4,.9l-0.94,2.26q-0.86-.37-1.61-0.6a5.06,5.06,0,0,0-1.53-.24q-1.38,0-1.38.75a0.88,0.88,0,0,0,.45.73,12.2,12.2,0,0,0,2,.91,9.07,9.07,0,0,1,2,1,3,3,0,0,1,.92,1.09A3.36,3.36,0,0,1,109.66,33.2Z"/><path class="cls-2" d="M24.37,46.16h-8.9V21.79l0.09-4L15.7,13.4q-2.22,2.22-3.08,2.91L7.78,20.2,3.49,14.84,17.05,4h7.32V46.16Z"/></svg>