<svg id="Calque_1" data-name="Calque 1" xmlns="http://www.w3.org/2000/svg" viewBox="0 0 252.47 252.47"><defs><style>.cls-1{fill:#afa70e;}.cls-2{fill:#fff;}</style></defs><title>page7_icon3</title><rect class="cls-1" x="-0.4" y="132.59" width="120.12" height="120.12"/><rect class="cls-1" x="132.75" y="132.37" width="120.12" height="120.12"/><rect class="cls-1" x="132.42" y="-0.23" width="120.12" height="120.12"/><rect class="cls-1" x="-0.4" y="-0.23" width="120.12" height="120.12"/><path class="cls-2" d="M63.33,24.37A35.36,35.36,0,0,0,36.4,36.79L17.68,55.51A17.81,17.81,0,0,0,12.45,68h16.4A35.45,35.45,0,1,0,63.33,24.37Zm0,58.08A22.63,22.63,0,1,1,86,59.82,22.66,22.66,0,0,1,63.33,82.45Z"/><polygon class="cls-2" points="55.62 59.83 55.62 46.63 67.05 53.23 78.47 59.83 67.05 66.42 55.62 73.02 55.62 59.83"/><polygon class="cls-2" points="87.81 177.71 68.28 157.85 67.13 157.85 67.13 178.63 87.81 178.63 87.81 177.71"/><path class="cls-2" d="M60.62,185.13V157.85H31.52v68.28H87.81v-41H60.62Zm17.23,33.49H41.48v-9.75H77.85v9.75Zm0-16.26H41.48v-9.75H77.85v9.75Z"/><path class="cls-2" d="M196,29.18h0a19.43,19.43,0,0,0-3,2.43l0,0-7.4,7.4-4.27,4.27a19.6,19.6,0,0,0,0,27.63h0a19.48,19.48,0,0,0,1.94,1.69l9-9a5.61,5.61,0,0,1-2.26-1.38,5.68,5.68,0,0,1,0-8L204,40.32a5.67,5.67,0,0,1,8,8l-1.33,1.33a23.22,23.22,0,0,1,2.64,17l7.4-7.4a19.6,19.6,0,0,0,0-27.63h0A19.61,19.61,0,0,0,196,29.18Z"/><path class="cls-2" d="M201.68,47l-9,9a5.61,5.61,0,0,1,2.26,1.38,5.68,5.68,0,0,1,0,8L181,79.33a5.67,5.67,0,0,1-8-8L174.31,70a23.22,23.22,0,0,1-2.64-17l-7.4,7.4a19.6,19.6,0,0,0,0,27.63h0a19.6,19.6,0,0,0,27.63,0l0,0,7.37-7.37,4.32-4.32a19.6,19.6,0,0,0,0-27.63h0A19.46,19.46,0,0,0,201.68,47Z"/><path class="cls-2" d="M174.41,204.56c-1.54-4.8-6-7.72-9.89-6.5l-0.75.23c-3.9,1.22-5.83,6.15-4.28,10.95l3.32,10.34c1.54,4.8,6,7.72,9.89,6.5l0.75-.23c3.9-1.22,5.83-6.15,4.28-10.95Z"/><path class="cls-2" d="M217.55,187.87a31.62,31.62,0,0,1-1,7.55,8,8,0,0,1,4.44-.15,22.85,22.85,0,0,0,1.12-7.4,29.38,29.38,0,0,0-29.38-29.38h0a29.38,29.38,0,0,0-29.38,29.38,22.85,22.85,0,0,0,1.12,7.4,8,8,0,0,1,4.44.15,31.62,31.62,0,0,1-1-7.55A24.83,24.83,0,0,1,192.73,163h0A24.83,24.83,0,0,1,217.55,187.87Z"/><path class="cls-2" d="M211.21,204.56c1.54-4.8,6-7.72,9.89-6.5l0.75,0.23c3.9,1.22,5.83,6.15,4.28,10.95l-3.32,10.34c-1.54,4.8-6,7.72-9.89,6.5l-0.75-.23c-3.9-1.22-5.83-6.15-4.28-10.95Z"/></svg>