<?xml version="1.0" encoding="utf-8"?>
<!-- Generator: Adobe Illustrator 19.2.1, SVG Export Plug-In . SVG Version: 6.00 Build 0)  -->
<svg version="1.1" id="Calque_1" xmlns="http://www.w3.org/2000/svg" xmlns:xlink="http://www.w3.org/1999/xlink" x="0px" y="0px"
	 viewBox="0 0 196.7 250.9" style="enable-background:new 0 0 196.7 250.9;" xml:space="preserve">
<style type="text/css">
	.st0{fill:#C84B24;}
	.st1{fill:#FFFFFF;}
</style>
<title>page3_icon1</title>
<rect x="1.2" y="55.3" class="st0" width="195.5" height="195.5"/>
<path class="st1" d="M132.8,94.6l-31.2,31.2l-15.3-15.3c-4.2,4.3-6.6,10-6.6,16.1v21.1L54,173.3l-10.3,38.3L82,201.3l78.7-78.7
	L132.8,94.6z M68.4,186.8c-3.9,0-7.1-3.2-7.1-7.1s3.2-7.1,7.1-7.1c3.9,0,7.1,3.2,7.1,7.1C75.5,183.6,72.3,186.8,68.4,186.8
	C68.4,186.8,68.4,186.8,68.4,186.8L68.4,186.8z"/>
<path class="st1" d="M73.1,36.4h-8.6v-15h8.6V24h-5.5v3.3h5.1v2.6h-5.1v3.9h5.5L73.1,36.4L73.1,36.4z"/>
<path class="st1" d="M78.3,30.6L74.6,25h3.6l2.2,3.6l2.3-3.6h3.6l-3.7,5.6l3.9,5.9h-3.6l-2.4-3.9L78,36.4h-3.5L78.3,30.6z"/>
<path class="st1" d="M93.3,36.6c-1.6,0.1-3.1-0.5-4.3-1.5c-1.1-1.2-1.7-2.7-1.6-4.3c-0.1-1.6,0.4-3.2,1.4-4.5c1-1.1,2.5-1.7,4-1.6
	c1.4-0.1,2.8,0.4,3.8,1.4c0.9,1,1.4,2.4,1.3,3.8v1.5h-7.4c0,0.8,0.3,1.5,0.8,2.1c0.6,0.5,1.3,0.8,2.1,0.8c0.7,0,1.3-0.1,2-0.2
	c0.7-0.2,1.3-0.4,1.9-0.7v2.4c-0.6,0.3-1.1,0.5-1.8,0.6C94.9,36.6,94.1,36.6,93.3,36.6z M92.9,27c-0.6,0-1.2,0.2-1.6,0.6
	c-0.4,0.5-0.6,1.1-0.7,1.8H95c0-0.6-0.2-1.3-0.6-1.8C94,27.2,93.5,26.9,92.9,27L92.9,27z"/>
<path class="st1" d="M107,24.7c0.4,0,0.7,0,1.1,0.1l-0.2,2.9c-0.3-0.1-0.6-0.1-0.9-0.1c-0.8-0.1-1.7,0.2-2.3,0.8
	c-0.6,0.6-0.9,1.3-0.8,2.1v5.8h-3.2V25h2.4l0.5,1.9h0.2c0.4-0.6,0.9-1.2,1.5-1.6C105.6,24.9,106.3,24.7,107,24.7z"/>
<path class="st1" d="M114.7,36.6c-3.6,0-5.4-2-5.3-5.9c-0.1-1.6,0.4-3.2,1.5-4.5c1.1-1.1,2.6-1.6,4.2-1.5c1.2,0,2.5,0.2,3.6,0.8
	l-0.9,2.4c-0.5-0.2-0.9-0.4-1.4-0.5c-0.4-0.1-0.8-0.2-1.3-0.2c-1.6,0-2.4,1.2-2.4,3.5s0.8,3.4,2.4,3.4c0.6,0,1.1-0.1,1.7-0.2
	c0.5-0.2,1.1-0.4,1.5-0.8v2.7c-0.5,0.3-1,0.5-1.5,0.7C116,36.6,115.4,36.6,114.7,36.6z"/>
<path class="st1" d="M120.7,22c0.1-0.9,0.9-1.6,1.9-1.5c0.8,0.1,1.4,0.7,1.5,1.5c0,0.4-0.1,0.8-0.4,1.1c-0.4,0.3-0.8,0.4-1.3,0.4
	c-0.8,0.1-1.5-0.4-1.7-1.2C120.7,22.2,120.7,22.1,120.7,22z M124,36.4h-3.1V25h3.1V36.4z"/>
<path class="st1" d="M131.9,36.6c-3.6,0-5.4-2-5.4-5.9c-0.1-1.6,0.4-3.2,1.5-4.5c1.1-1.1,2.6-1.6,4.2-1.5c1.2,0,2.5,0.2,3.6,0.8
	l-0.9,2.4c-0.5-0.2-0.9-0.4-1.4-0.5c-0.4-0.1-0.8-0.2-1.3-0.2c-1.6,0-2.4,1.2-2.4,3.5s0.8,3.4,2.4,3.4c0.6,0,1.1-0.1,1.7-0.2
	c0.5-0.2,1.1-0.4,1.5-0.8v2.7c-0.5,0.3-1,0.5-1.5,0.7C133.2,36.6,132.6,36.6,131.9,36.6z"/>
<path class="st1" d="M143.2,36.6c-1.6,0.1-3.1-0.5-4.3-1.5c-1.1-1.2-1.7-2.7-1.6-4.3c-0.1-1.6,0.4-3.2,1.4-4.5c1-1.1,2.5-1.7,4-1.6
	c1.4-0.1,2.8,0.4,3.8,1.4c0.9,1,1.4,2.4,1.3,3.8v1.5h-7.4c0,0.8,0.3,1.5,0.8,2.1c0.6,0.5,1.3,0.8,2.1,0.8c0.7,0,1.3-0.1,2-0.2
	c0.7-0.2,1.3-0.4,1.9-0.7v2.4c-0.6,0.3-1.1,0.5-1.8,0.6C144.8,36.6,144,36.6,143.2,36.6z M142.8,27c-0.6,0-1.2,0.2-1.6,0.6
	c-0.4,0.5-0.6,1.1-0.6,1.8h4.4c0-0.7-0.2-1.3-0.6-1.8C144,27.2,143.4,26.9,142.8,27L142.8,27z"/>
<path class="st1" d="M158.5,33c0.1,1-0.4,2.1-1.2,2.7c-1.1,0.7-2.4,1-3.7,0.9c-0.7,0-1.4,0-2.1-0.2c-0.6-0.1-1.1-0.3-1.6-0.5v-2.6
	c0.6,0.3,1.3,0.5,2,0.7c0.6,0.2,1.3,0.3,1.9,0.3c1.1,0,1.7-0.3,1.7-1c0-0.2-0.1-0.4-0.2-0.6c-0.2-0.2-0.5-0.4-0.8-0.5
	c-0.4-0.2-0.9-0.4-1.5-0.7c-0.7-0.3-1.3-0.6-1.9-1c-0.4-0.3-0.7-0.7-0.9-1.1c-0.2-0.5-0.3-1-0.3-1.5c0-0.9,0.4-1.8,1.2-2.3
	c1-0.6,2.2-0.9,3.4-0.8c1.4,0,2.7,0.3,4,0.9l-0.9,2.3c-0.6-0.2-1.1-0.4-1.6-0.6c-0.5-0.2-1-0.2-1.5-0.2c-0.9,0-1.4,0.3-1.4,0.8
	c0,0.3,0.2,0.6,0.4,0.7c0.6,0.4,1.3,0.7,2,0.9c0.7,0.2,1.4,0.6,2,1c0.4,0.3,0.7,0.7,0.9,1.1C158.4,32,158.5,32.5,158.5,33z"/>
<path class="st1" d="M32.4,13.3c0.1,2.5-0.8,4.8-2.4,6.7c-1.8,1.9-4.1,3.3-6.7,3.8V24c3.4,0.4,6,1.5,7.7,3.1
	c1.8,1.7,2.7,4.2,2.6,6.6c0.2,3.7-1.5,7.2-4.4,9.5c-2.9,2.3-7.1,3.4-12.6,3.4c-4.2,0.1-8.3-0.7-12.2-2.3v-7.6c1.7,0.9,3.5,1.5,5.4,2
	c1.9,0.5,3.9,0.8,5.8,0.8c2.9,0,5.1-0.5,6.5-1.5c1.5-1.1,2.3-3,2.1-4.8c0.1-1.7-0.8-3.4-2.4-4.2c-1.6-0.8-4.2-1.2-7.7-1.2H11v-6.8
	h3.3c3.3,0,5.7-0.4,7.2-1.3c1.5-0.9,2.4-2.6,2.3-4.4c0-3.2-2-4.8-6-4.8c-1.4,0-2.9,0.2-4.2,0.7c-1.7,0.6-3.3,1.4-4.8,2.4L4.6,7.4
	c4-2.8,8.8-4.3,13.7-4.1c4.4,0,7.8,0.9,10.3,2.6C31.1,7.5,32.5,10.3,32.4,13.3z"/>
</svg>
