<svg id="Calque_2" data-name="Calque 2" xmlns="http://www.w3.org/2000/svg" viewBox="0 0 196.74 250.85"><defs><style>.cls-1{fill:#e8900c;}.cls-2{fill:#fff;}</style></defs><title>page3_icon2</title><rect class="cls-1" x="1.61" y="55.54" width="195.51" height="195.51"/><polygon class="cls-2" points="101.25 175.44 82.52 156.99 93.39 145.97 101.17 153.63 120.57 134.22 131.52 145.17 101.25 175.44"/><path class="cls-2" d="M107.43,99.08a54.09,54.09,0,0,0-41.2,19L37.6,146.7a27.24,27.24,0,0,0-8,19.15H54.68A54.22,54.22,0,1,0,107.43,99.08Zm0,88.84A34.61,34.61,0,1,1,142,153.3,34.65,34.65,0,0,1,107.43,187.91Z"/><path class="cls-2" d="M72.11,29.29a9.48,9.48,0,0,1-.94,4.43,5.74,5.74,0,0,1-2.75,2.62l3.61,4H68L65.21,37H65a6.84,6.84,0,0,1-5.29-2,8.16,8.16,0,0,1-1.85-5.74,8.05,8.05,0,0,1,1.85-5.72,6.92,6.92,0,0,1,5.31-2,6.83,6.83,0,0,1,5.29,2A8.16,8.16,0,0,1,72.11,29.29Zm-10.94,0a6.27,6.27,0,0,0,1,3.78A3.34,3.34,0,0,0,65,34.35q3.8,0,3.8-5.05T65,24.22a3.36,3.36,0,0,0-2.86,1.28A6.24,6.24,0,0,0,61.17,29.29Z"/><path class="cls-2" d="M83.09,36.81l-0.42-1.47H82.5a3.31,3.31,0,0,1-1.43,1.24A4.87,4.87,0,0,1,79,37a4,4,0,0,1-3-1.08,4.35,4.35,0,0,1-1-3.11V25.34H78V32a3.21,3.21,0,0,0,.44,1.86,1.6,1.6,0,0,0,1.41.62,2.11,2.11,0,0,0,1.9-.88,5.44,5.44,0,0,0,.58-2.91V25.34h3.13V36.81h-2.4Z"/><path class="cls-2" d="M88.64,22.38a1.71,1.71,0,0,1,3.4,0,1.49,1.49,0,0,1-.43,1.13,1.79,1.79,0,0,1-1.28.41A1.44,1.44,0,0,1,88.64,22.38ZM91.9,36.81H88.77V25.34H91.9V36.81Z"/><path class="cls-2" d="M103.16,36.81H94.1V35l5.31-7.23h-5V25.34H103v2l-5.17,7h5.35v2.39Z"/><path class="cls-2" d="M113.4,36.81h-9.05V35l5.31-7.23h-5V25.34h8.55v2l-5.17,7h5.35v2.39Z"/><path class="cls-2" d="M31.42,46.36H2V40.17L12.55,29.48q4.69-4.81,6.14-6.67a14.7,14.7,0,0,0,2.07-3.44,8.77,8.77,0,0,0,.63-3.28A4.79,4.79,0,0,0,20,12.31a5.42,5.42,0,0,0-3.73-1.24,10.72,10.72,0,0,0-4.75,1.12,24.52,24.52,0,0,0-4.81,3.2L1.86,9.66A31.61,31.61,0,0,1,7,5.92a19,19,0,0,1,4.46-1.69,22.89,22.89,0,0,1,5.42-.59,16,16,0,0,1,7,1.44,11.13,11.13,0,0,1,4.7,4A10.72,10.72,0,0,1,30.24,15a14.53,14.53,0,0,1-1,5.46A21,21,0,0,1,26,25.74a77.42,77.42,0,0,1-7.56,7.63l-5.42,5.1v0.4H31.42v7.49Z"/></svg>