<?xml version="1.0" standalone="no"?>
<!DOCTYPE svg PUBLIC "-//W3C//DTD SVG 1.1//EN" "http://www.w3.org/Graphics/SVG/1.1/DTD/svg11.dtd" >
<svg xmlns="http://www.w3.org/2000/svg">
<metadata></metadata>
<defs>
<font id="dynoitalic" horiz-adv-x="1000" >
<font-face units-per-em="2048" ascent="1638" descent="-410" />
<missing-glyph horiz-adv-x="600" />
<glyph horiz-adv-x="0" />
<glyph horiz-adv-x="682" />
<glyph unicode=" "  horiz-adv-x="600" />
<glyph unicode="&#x09;" horiz-adv-x="600" />
<glyph unicode="&#xa0;" horiz-adv-x="600" />
<glyph unicode="!" horiz-adv-x="450" d="M99 -6l35 250h250l-35 -250h-250zM180 391l130 1000h220l-160 -1000h-190z" />
<glyph unicode="&#x22;" horiz-adv-x="700" d="M271 1000v22q0 191 33 428h200q-35 -251 -93 -450h-140zM571 1000v22q0 191 33 428h200q-35 -251 -93 -450h-140z" />
<glyph unicode="#" horiz-adv-x="1400" d="M142 300l28 200h207l142 400h-193l28 200h236l107 300h199l-107 -300h301l107 300h199l-107 -300h165l-28 -200h-208l-142 -400h194l-28 -200h-236l-106 -300h-200l106 300h-300l-106 -300h-200l106 300h-164zM576 500h301l142 400h-301z" />
<glyph unicode="$" horiz-adv-x="1077" d="M109 66l79 192q123 -44 310 -56l58 412q-294 64 -294 316q0 33 5 70q48 338 398 390l30 210h150l-29 -200q179 -2 300 -61l-72 -185q-57 22 -120 33.5t-136 12.5l-57 -410q307 -60 307 -319q0 -34 -5 -71q-49 -349 -412 -394l-29 -206h-150l28 200q-225 5 -361 66z M465 975q0 -100 121 -150l50 359q-149 -41 -169 -184q-2 -13 -2 -25zM649 211q162 36 184 189q2 14 2 26q0 107 -133 156z" />
<glyph unicode="%" horiz-adv-x="1500" d="M252 1057q0 21 3 43q8 61 40 116t78 95.5t104 64.5t120 24q61 0 112.5 -24t86.5 -64.5t51 -95.5q11 -37 11 -76q0 -20 -3 -40q-9 -62 -40.5 -116.5t-78 -95t-104.5 -64.5t-119 -24q-62 0 -113.5 24t-86 64.5t-50.5 95.5q-11 35 -11 73zM300 0l897 1400h200l-897 -1400 h-200zM425 1080q0 -16 5 -30q6 -23 21.5 -40.5t37 -27.5t48.5 -10q26 0 51 10t44.5 27.5t33.5 40.5t18 50q1 8 1 15q0 18 -5 35q-7 23 -22 40.5t-37 28t-48 10.5q-27 0 -51.5 -10.5t-44.5 -28t-33.5 -41t-16.5 -49.5q-2 -10 -2 -20zM839 259q0 20 3 41q9 61 40.5 116 t78 95.5t104 64.5t119.5 24q61 0 113 -24t86.5 -64.5t51.5 -95.5q10 -36 10 -74q0 -20 -3 -42q-8 -62 -40 -116.5t-78 -95t-104.5 -64.5t-119.5 -24q-62 0 -113 24t-86 64.5t-51 95.5q-11 36 -11 75zM1013 281q0 -16 4 -31q7 -23 22 -40.5t36.5 -27.5t48.5 -10q26 0 51 10 t45 27.5t33.5 40.5t17.5 50q1 9 1 19q0 16 -4 31q-7 23 -22.5 40.5t-37.5 28t-48 10.5q-27 0 -51.5 -10.5t-44 -28t-33 -41t-17.5 -49.5q-1 -10 -1 -19z" />
<glyph unicode="&#x26;" horiz-adv-x="1250" d="M150 323q0 37 6 77q28 199 242 300q-161 88 -161 249q0 25 4 51q56 400 556 400q197 0 343 -50l-77 -190q-92 40 -294 40q-300 0 -328 -200q-3 -18 -3 -34q0 -167 273 -176h200l23 160l207 50l-30 -210h150l-25 -180h-150l-72 -510q-213 -100 -414 -100q-450 0 -450 323z M354 367q0 -167 274 -167q102 0 206 40l52 370h-200q-302 -11 -330 -210q-2 -17 -2 -33z" />
<glyph unicode="'" horiz-adv-x="400" d="M271 1000v22q0 191 33 428h200q-35 -251 -93 -450h-140z" />
<glyph unicode="(" horiz-adv-x="670" d="M178 431q0 130 20 269q21 148 61.5 287t100.5 261t140.5 224.5t180.5 177.5l106 -100q-67 -54 -128.5 -138t-112.5 -192.5t-89 -240t-59 -279.5q-20 -142 -20 -268v-12q1 -131 22 -239.5t58.5 -192.5t89.5 -138l-134 -100q-79 75 -130.5 177t-77.5 224.5t-27 261.5 q-1 9 -1 18z" />
<glyph unicode=")" horiz-adv-x="670" d="M79 -150q68 54 129 138t112.5 192.5t89.5 239.5t58 280q20 141 20 268v12q-1 131 -21.5 239.5t-58.5 192.5t-90 138l134 100q79 -75 130.5 -177t77.5 -224.5t28 -261.5v-19q0 -130 -20 -268q-20 -149 -61 -288t-101.5 -261t-140.5 -224t-180 -177z" />
<glyph unicode="*" horiz-adv-x="840" d="M277 1260l61 150l183 -50l27 190h170l-27 -190l207 50l19 -150l-187 -50l105 -180l-142 -80l-116 170l-164 -170l-118 80l155 180z" />
<glyph unicode="+" d="M184 600l28 200h300l42 300h200l-42 -300h300l-28 -200h-300l-42 -300h-200l42 300h-300z" />
<glyph unicode="," horiz-adv-x="400" d="M83 -120q110 70 117 120h-100l35 250h200l-35 -250q-21 -151 -178 -200z" />
<glyph unicode="-" horiz-adv-x="800" d="M184 600l28 200h600l-28 -200h-600z" />
<glyph unicode="." horiz-adv-x="400" d="M100 0l35 250h200l-35 -250h-200z" />
<glyph unicode="/" horiz-adv-x="601" d="M-82 -200l753 1800h199l-752 -1800h-200z" />
<glyph unicode="0" horiz-adv-x="1200" d="M182 489q0 96 16 211q99 700 599 700q417 0 417 -488q0 -96 -16 -212q-98 -700 -598 -700q-418 0 -418 489zM385 529q0 -329 243 -329q300 0 370 500q14 96 14 173q0 327 -243 327q-300 0 -371 -500q-13 -95 -13 -171z" />
<glyph unicode="1" horiz-adv-x="600" d="M200 0l190 1350l207 50l-197 -1400h-200z" />
<glyph unicode="2" horiz-adv-x="1001" d="M101 0l28 200q45 319 368 480q322 160 345 320q3 22 3 41q0 159 -205 159q-176 0 -322 -46l-30 185q170 61 380 61q380 0 380 -313q0 -41 -6 -87q-36 -251 -359 -420q-324 -170 -354 -380h600l-28 -200h-800z" />
<glyph unicode="3" horiz-adv-x="1050" d="M107 50l77 190q92 -40 294 -40q300 0 328 200q2 17 2 33q0 167 -272 177h-120l25 180h120q301 10 330 210q2 17 2 33q0 167 -274 167q-202 0 -306 -40l-23 190q160 50 357 50q450 0 450 -323q0 -37 -6 -77q-28 -199 -243 -300q162 -88 162 -250q0 -24 -4 -50 q-56 -400 -556 -400q-197 0 -343 50z" />
<glyph unicode="4" horiz-adv-x="1150" d="M156 400l28 200l683 800h230l-113 -800h150l-28 -200h-150l-56 -400h-200l56 400h-600zM434 600h350l70 500z" />
<glyph unicode="5" horiz-adv-x="1070" d="M107 50l98 200q96 -50 293 -50q300 0 337 260q5 34 5 63q0 177 -172 177q-150 0 -321 -150l-163 50l113 800h820l-28 -200h-590l-67 -400q114 100 264 100q347 0 347 -331q0 -51 -8 -109q-65 -460 -565 -460q-206 0 -363 50z" />
<glyph unicode="6" horiz-adv-x="1100" d="M161 375q0 58 9 125l42 300q85 600 585 600q147 0 293 -50l-77 -190q-92 40 -244 40q-300 0 -357 -400q114 100 314 100q346 0 346 -336q0 -53 -9 -114q-63 -450 -513 -450q-389 0 -389 375zM364 420q0 -220 214 -220q250 0 285 250q5 37 5 69q0 181 -170 181 q-200 0 -314 -100l-14 -100q-6 -43 -6 -80z" />
<glyph unicode="7" horiz-adv-x="1040" d="M269 1200l28 200h840l-28 -200l-609 -1200h-230l609 1200h-610z" />
<glyph unicode="8" horiz-adv-x="1100" d="M150 316q0 40 6 84q31 220 242 300q-142 66 -142 233q0 32 5 67q56 400 486 400q380 0 380 -313q0 -41 -6 -87q-32 -221 -223 -300q162 -69 162 -241q0 -28 -4 -59q-56 -400 -506 -400q-400 0 -400 316zM353 362q0 -162 225 -162q250 0 278 200q3 20 3 38q0 162 -225 162 q-250 0 -278 -200q-3 -20 -3 -38zM458 958q0 -158 204 -158q230 0 259 200q3 22 3 41q0 159 -205 159q-230 0 -258 -200q-3 -22 -3 -42z" />
<glyph unicode="9" horiz-adv-x="1100" d="M207 50l76 190q93 -40 245 -40q300 0 356 400q-114 -100 -314 -100q-346 0 -346 336q0 53 9 114q63 450 513 450q389 0 389 -375q0 -58 -9 -125l-42 -300q-84 -600 -584 -600q-147 0 -293 50zM428 881q0 -181 170 -181q200 0 314 100l14 100q6 43 6 80q0 220 -214 220 q-250 0 -285 -250q-5 -37 -5 -69z" />
<glyph unicode=":" horiz-adv-x="400" d="M100 0l35 250h200l-35 -250h-200zM216 828l36 250h200l-36 -250h-200z" />
<glyph unicode=";" horiz-adv-x="400" d="M83 -120q110 70 117 120h-100l35 250h200l-35 -250q-21 -151 -178 -200zM216 828l35 250h200l-35 -250h-200z" />
<glyph unicode="&#x3c;" d="M182 580l34 240l853 380l-31 -220l-589 -280l511 -280l-31 -220z" />
<glyph unicode="=" d="M156 400l28 200h800l-28 -200h-800zM212 800l28 200h800l-28 -200h-800z" />
<glyph unicode="&#x3e;" d="M128 200l31 220l589 280l-510 280l31 220l746 -380l-34 -240z" />
<glyph unicode="?" horiz-adv-x="950" d="M290 1350q160 50 307 50q400 0 400 -316q0 -40 -6 -84q-42 -300 -356 -400l-49 -200h-160l30 350q307 49 335 250q3 20 3 38q0 162 -225 162q-152 0 -256 -40zM319 -6l36 250h250l-36 -250h-250z" />
<glyph unicode="@" horiz-adv-x="1900" d="M161 320q0 107 17 230q133 950 983 950q740 0 740 -683q0 -101 -16 -217q-85 -600 -485 -600q-157 0 -220 81q-146 -81 -280 -81q-346 0 -346 336q0 53 9 114l29 200q63 450 463 450q300 0 386 -100l-100 -712q-1 -11 -1 -21q0 -87 86 -87q200 0 259 420q13 92 13 171 q0 529 -565 529q-650 0 -755 -750q-14 -99 -14 -184q0 -566 608 -566q150 0 276 12.5t231 37.5l26 -170q-163 -80 -561 -80q-783 0 -783 720zM758 381q0 -181 170 -181q51 0 101 5t102 15l93 660q-50 10 -98 15t-99 5q-200 0 -235 -250l-29 -200q-5 -37 -5 -69z" />
<glyph unicode="A" horiz-adv-x="1100" d="M0 0l627 1400h240l233 -1400h-220l-44 300h-488l-128 -300h-220zM433 500h373l-94 650z" />
<glyph unicode="B" horiz-adv-x="1150" d="M100 0l197 1400h530q351 0 351 -308q0 -43 -7 -92q-29 -200 -223 -300q162 -88 162 -250q0 -24 -4 -50q-56 -400 -456 -400h-550zM328 200h350q200 0 228 198q3 25 3 47q0 155 -175 155h-350zM412 800h330q200 0 228 198q4 26 4 48q0 154 -175 154h-330z" />
<glyph unicode="C" horiz-adv-x="1100" d="M183 504q0 90 15 196q99 700 649 700q227 0 390 -72l-90 -175q-123 47 -328 47q-350 0 -421 -500q-12 -83 -12 -153q0 -347 292 -347q206 0 343 47l37 -176q-185 -71 -408 -71q-467 0 -467 504z" />
<glyph unicode="D" horiz-adv-x="1200" d="M100 0l197 1400h450q466 0 466 -503q0 -90 -15 -197q-98 -700 -648 -700h-450zM328 200h250q350 0 420 500q12 84 12 154q0 346 -291 346h-250z" />
<glyph unicode="E" d="M100 0l197 1400h800l-28 -200h-600l-57 -400h550l-28 -200h-550l-56 -400h600l-28 -200h-800z" />
<glyph unicode="F" d="M100 0l197 1400h800l-28 -200h-600l-57 -400h550l-28 -200h-550l-84 -600h-200z" />
<glyph unicode="G" horiz-adv-x="1200" d="M183 504q0 90 15 196q99 700 649 700q227 0 390 -72l-90 -175q-123 47 -328 47q-350 0 -421 -500q-12 -83 -12 -153q0 -347 292 -347q73 0 136.5 5.5t116.5 16.5l46 328h-250l28 200h450l-94 -670l-9 3l6 -12q-185 -71 -458 -71q-467 0 -467 504z" />
<glyph unicode="H" horiz-adv-x="1150" d="M100 0l197 1400h200l-85 -600h550l85 600h200l-197 -1400h-200l84 600h-550l-84 -600h-200z" />
<glyph unicode="I" horiz-adv-x="400" d="M100 0l197 1400h200l-197 -1400h-200z" />
<glyph unicode="J" horiz-adv-x="650" d="M100 0l28 200h50q200 0 228 200l141 1000h200l-141 -1000q-56 -400 -456 -400h-50z" />
<glyph unicode="K" horiz-adv-x="1049" d="M100 0l197 1400h200l-99 -699l559 699h240l-559 -700l362 -700h-240l-362 700l-98 -700h-200z" />
<glyph unicode="L" horiz-adv-x="954" d="M100 0l197 1400h200l-169 -1200h600l-28 -200h-800z" />
<glyph unicode="M" horiz-adv-x="1500" d="M100 0l197 1400h320l175 -1100l485 1100h320l-197 -1400h-200l155 1100l-485 -1100h-240l-175 1100l-155 -1100h-200z" />
<glyph unicode="N" horiz-adv-x="1150" d="M100 0l197 1400h200l411 -990l139 990h200l-197 -1400h-200l-411 990l-139 -990h-200z" />
<glyph unicode="O" horiz-adv-x="1300" d="M183 504q0 90 15 196q99 700 649 700q466 0 466 -503q0 -90 -15 -197q-98 -700 -648 -700q-467 0 -467 504zM386 547q0 -347 292 -347q350 0 420 500q12 84 12 154q0 346 -291 346q-350 0 -421 -500q-12 -83 -12 -153z" />
<glyph unicode="P" horiz-adv-x="1150" d="M100 0l197 1400h450q444 0 444 -355q0 -45 -7 -95q-64 -450 -564 -450h-250l-70 -500h-200zM398 700h250q300 0 336 250q4 26 4 50q0 200 -269 200h-250z" />
<glyph unicode="Q" horiz-adv-x="1300" d="M183 504q0 90 15 196q99 700 649 700q466 0 466 -503q0 -90 -15 -197q-44 -318 -183 -492l88 -120l-154 -137l-92 122q-128 -73 -307 -73q-467 0 -467 504zM386 547q0 -347 292 -347q86 0 161 32l-121 162l165 137l112 -155q74 117 103 324q12 84 12 154q0 346 -291 346 q-350 0 -421 -500q-12 -83 -12 -153z" />
<glyph unicode="R" horiz-adv-x="1150" d="M100 0l197 1400h450q444 0 444 -355q0 -45 -7 -95q-48 -340 -351 -430l217 -520h-230l-200 500h-250l-70 -500h-200zM398 700h250q300 0 336 250q4 26 4 50q0 200 -269 200h-250z" />
<glyph unicode="S" horiz-adv-x="1077" d="M109 66l79 192q66 -23 152 -38t195 -20q270 0 298 200q2 14 2 26q0 129 -194 174q-379 44 -379 330q0 34 5 70q56 400 536 400q190 0 313 -61l-72 -185q-113 46 -269 46q-280 0 -308 -200q-2 -13 -2 -25q0 -129 204 -175q369 -45 369 -329q0 -34 -5 -71 q-56 -400 -526 -400q-250 0 -398 66z" />
<glyph unicode="T" horiz-adv-x="1100" d="M269 1200l28 200h900l-28 -200h-350l-169 -1200h-200l169 1200h-350z" />
<glyph unicode="U" horiz-adv-x="1150" d="M161 381q0 55 9 119l127 900h200l-127 -900q-5 -39 -5 -73q0 -227 243 -227q270 0 312 300l127 900h200l-127 -900q-70 -500 -540 -500q-419 0 -419 381z" />
<glyph unicode="V" horiz-adv-x="1100" d="M197 1400h220l168 -1150l492 1150h220l-627 -1400h-240z" />
<glyph unicode="W" horiz-adv-x="1700" d="M197 1400h220l65 -1100l465 1100h200l155 -1100l375 1100h220l-507 -1400h-240l-159 1000l-441 -1000h-240z" />
<glyph unicode="X" horiz-adv-x="1200" d="M100 0l448 700l-251 700h230l190 -570l350 570h230l-449 -700l252 -700h-230l-190 570l-350 -570h-230z" />
<glyph unicode="Y" d="M197 1400h230l190 -570l350 570h230l-512 -800l-85 -600h-200l85 600z" />
<glyph unicode="Z" horiz-adv-x="1100" d="M100 0l28 200l761 1000h-590l28 200h840l-28 -200l-761 -1000h650l-28 -200h-900z" />
<glyph unicode="[" horiz-adv-x="650" d="M72 -200l253 1800h450l-28 -200h-250l-197 -1400h250l-28 -200h-450z" />
<glyph unicode="\" horiz-adv-x="601" d="M171 1600h199l247 -1800h-200z" />
<glyph unicode="]" horiz-adv-x="650" d="M72 -200l28 200h250l197 1400h-250l28 200h450l-253 -1800h-450z" />
<glyph unicode="^" d="M255 1100l363 450h200l237 -450h-200l-158 300l-242 -300h-200z" />
<glyph unicode="_" horiz-adv-x="800" d="M-42 -300l21 150h800l-21 -150h-800z" />
<glyph unicode="`" horiz-adv-x="470" d="M318 1550h220l8 -300h-150z" />
<glyph unicode="a" d="M143 271q0 33 5 69q50 360 650 360q3 25 3 46q0 154 -175 154q-134 0 -273 -45l-33 179q172 66 335 66q350 0 350 -306q0 -44 -7 -94l-84 -600q-114 -100 -414 -100q-357 0 -357 271zM346 316q0 -116 182 -116q51 0 101 5t102 15l39 280q-400 0 -422 -160q-2 -13 -2 -24z " />
<glyph unicode="b" d="M107 50l190 1350l207 50l-54 -380q105 30 205 30q345 0 345 -334q0 -54 -9 -116l-28 -200q-63 -450 -463 -450q-300 0 -393 50zM331 220q49 -10 97.5 -15t99.5 -5q200 0 235 250l28 200q5 37 5 69q0 181 -170 181q-51 0 -100.5 -5t-101.5 -15z" />
<glyph unicode="c" horiz-adv-x="900" d="M161 375q0 58 9 125l14 100q71 500 521 500q197 0 293 -50l-77 -190q-93 40 -245 40q-250 0 -292 -300l-14 -100q-6 -43 -6 -80q0 -220 214 -220q152 0 256 40l23 -190q-110 -50 -307 -50q-389 0 -389 375z" />
<glyph unicode="d" d="M154 336q0 53 9 114l28 200q64 450 464 450q99 0 195 -30l47 330l207 50l-197 -1400q-107 -50 -407 -50q-346 0 -346 336zM358 381q0 -181 170 -181q51 0 101 5t102 15l93 660q-50 10 -98.5 15t-99.5 5q-200 0 -235 -250l-28 -200q-5 -37 -5 -69z" />
<glyph unicode="e" d="M160 362q0 64 10 138l14 100q71 500 501 500q349 0 349 -363q0 -63 -10 -137q-21 -150 -71 -150h-590q-5 -37 -5 -69q0 -181 170 -181q197 0 321 44l12 -185q-112 -59 -361 -59q-340 0 -340 362zM390 640h440q5 38 5 71q0 189 -179 189q-230 0 -266 -260z" />
<glyph unicode="f" horiz-adv-x="845" d="M219 850l28 200h150q56 400 406 400q119 0 183 -50l-75 -180q-67 30 -136 30q-150 0 -178 -200h300l-28 -200h-300l-119 -850h-200l119 850h-150z" />
<glyph unicode="g" d="M94 -400l78 200q96 -50 293 -50q200 0 228 200l11 80q-105 -30 -204 -30q-346 0 -346 336q0 53 9 114l29 200q63 450 463 450q300 0 393 -50l-155 -1100q-56 -400 -456 -400q-197 0 -343 50zM358 381q0 -181 170 -181q51 0 101 5t102 15l93 660q-50 10 -98 15t-99 5 q-200 0 -235 -250l-29 -200q-5 -37 -5 -69z" />
<glyph unicode="h" d="M100 0l196 1395l207 50l-53 -380q104 30 204 30q346 0 346 -336q0 -53 -9 -114l-91 -645h-200l91 645q5 37 5 69q0 181 -170 181q-51 0 -101 -5t-102 -15l-123 -875h-200z" />
<glyph unicode="i" horiz-adv-x="400" d="M100 0l155 1100h200l-155 -1100h-200zM276 1250l35 250h200l-35 -250h-200z" />
<glyph unicode="j" horiz-adv-x="401" d="M-212 -450l28 200h50q200 0 228 200l162 1150h200l-162 -1150q-56 -400 -456 -400h-50zM277 1250l35 250h200l-35 -250h-200z" />
<glyph unicode="k" horiz-adv-x="952" d="M100 0l197 1400l207 50l-127 -899l438 549h240l-438 -550l283 -550h-240l-283 550l-77 -550h-200z" />
<glyph unicode="l" horiz-adv-x="400" d="M100 0l197 1400l207 50l-204 -1450h-200z" />
<glyph unicode="m" horiz-adv-x="1500" d="M100 0l148 1050q110 50 407 50q146 0 222 -71q123 71 328 71q301 0 301 -296q0 -48 -8 -104l-98 -700h-200l98 700q4 31 4 58q0 142 -126 142q-97 0 -207 -50l-119 -850h-200l98 700q4 31 4 58q0 142 -126 142q-51 0 -100.5 -5t-101.5 -15l-124 -880h-200z" />
<glyph unicode="n" d="M100 0l148 1050q110 50 407 50q350 0 350 -306q0 -44 -7 -94l-98 -700h-200l98 700q3 25 3 46q0 154 -175 154q-51 0 -100.5 -5t-101.5 -15l-124 -880h-200z" />
<glyph unicode="o" horiz-adv-x="1100" d="M161 375q0 58 9 125l14 100q71 500 521 500q389 0 389 -373q0 -59 -10 -127l-14 -100q-70 -500 -520 -500q-389 0 -389 375zM364 420q0 -220 214 -220q250 0 292 300l14 100q6 43 6 80q0 220 -214 220q-250 0 -292 -300l-14 -100q-6 -43 -6 -80z" />
<glyph unicode="p" d="M37 -450l211 1500q107 50 407 50q346 0 346 -336q0 -53 -9 -114l-29 -200q-63 -450 -463 -450q-100 0 -196 30l-60 -430zM331 220q50 -10 98 -15t99 -5q200 0 235 250l29 200q5 37 5 69q0 181 -170 181q-51 0 -101 -5t-102 -15z" />
<glyph unicode="q" d="M154 336q0 53 9 114l28 200q64 450 464 450q300 0 393 -50l-204 -1450l-207 -50l67 480q-105 -30 -204 -30q-346 0 -346 336zM358 381q0 -181 170 -181q51 0 101 5t102 15l93 660q-50 10 -98.5 15t-99.5 5q-200 0 -235 -250l-28 -200q-5 -37 -5 -69z" />
<glyph unicode="r" horiz-adv-x="660" d="M100 0l148 1050q110 50 407 50q69 0 124 -12l-73 -198q-32 10 -80 10q-51 0 -100.5 -5t-101.5 -15l-124 -880h-200z" />
<glyph unicode="s" horiz-adv-x="954" d="M107 50l77 190q121 -40 344 -40q200 0 217 120q1 7 1 13q0 89 -183 117q-337 27 -337 271q0 28 4 59q45 320 425 320q147 0 323 -50l-77 -190q-122 40 -275 40q-180 0 -196 -120q-1 -7 -1 -14q0 -88 162 -116q358 -27 358 -275q0 -26 -4 -55q-45 -320 -445 -320 q-217 0 -393 50z" />
<glyph unicode="t" horiz-adv-x="850" d="M226 900l28 200h150l42 300l207 50l-49 -350h300l-28 -200h-300l-70 -500q-4 -31 -4 -58q0 -142 126 -142q69 0 144 30l25 -180q-78 -50 -197 -50q-302 0 -302 297q0 48 8 103l70 500h-150z" />
<glyph unicode="u" d="M149 308q0 43 7 92l99 700h200l-99 -700q-3 -25 -3 -46q0 -154 175 -154q51 0 101 5t102 15l124 880h200l-141 -1000q-114 -100 -414 -100q-351 0 -351 308z" />
<glyph unicode="v" horiz-adv-x="900" d="M155 1100h220l111 -850l349 850h220l-485 -1100h-240z" />
<glyph unicode="w" horiz-adv-x="1400" d="M155 1100h220l50 -780l320 780h220l100 -780l270 780h220l-415 -1100h-230l-101 770l-319 -770h-230z" />
<glyph unicode="x" horiz-adv-x="1100" d="M100 0l377 550l-222 550h230l161 -420l279 420h230l-378 -550l223 -550h-230l-161 420l-279 -420h-230z" />
<glyph unicode="y" d="M94 -400l78 200q96 -50 293 -50q200 0 228 200l11 80q-105 -30 -204 -30q-346 0 -346 336q0 53 9 114l92 650h200l-92 -650q-5 -37 -5 -69q0 -181 170 -181q51 0 101 5t102 15l124 880h200l-162 -1150q-56 -400 -456 -400q-197 0 -343 50z" />
<glyph unicode="z" horiz-adv-x="950" d="M100 0l28 200l598 700h-480l29 200h710l-29 -200l-598 -700h520l-28 -200h-750z" />
<glyph unicode="{" horiz-adv-x="800" d="M184 600l28 200q200 0 214 100l42 300q57 400 457 400l-29 -200q-200 0 -228 -200l-42 -300q-21 -151 -178 -200q125 -44 125 -163q0 -18 -3 -37l-42 -300q-3 -25 -3 -46q0 -154 175 -154l-28 -200q-351 0 -351 308q0 43 7 92l42 300q1 7 1 13q0 87 -187 87z" />
<glyph unicode="|" horiz-adv-x="400" d="M72 -200l253 1800h200l-253 -1800h-200z" />
<glyph unicode="}" horiz-adv-x="800" d="M72 -200l28 200q200 0 228 200l42 300q22 151 178 200q-124 44 -124 163q0 18 3 37l42 300q3 25 3 46q0 154 -175 154l28 200q351 0 351 -308q0 -43 -7 -92l-42 -300q-1 -7 -1 -13q0 -87 187 -87l-29 -200q-200 0 -214 -100l-42 -300q-56 -400 -456 -400z" />
<glyph unicode="~" horiz-adv-x="1002" d="M177 550q42 300 308 300q58 0 138 -65t139 -65q91 0 124 130h135q-42 -300 -308 -300q-59 0 -139 65t-138 65q-91 0 -124 -130h-135z" />
<glyph unicode="&#xa1;" horiz-adv-x="450" d="M73 -297l161 1000h190l-131 -1000h-220zM219 850l35 250h250l-35 -250h-250z" />
<glyph unicode="&#xa2;" horiz-adv-x="950" d="M160 374q0 58 10 126l14 100q64 453 439 495l43 305h150l-42 -302q147 -8 223 -48l-77 -190q-36 14 -79 23.5t-95 13.5l-98 -695q52 4 98.5 13t86.5 25l24 -190q-45 -20 -103.5 -32.5t-133.5 -16.5l-43 -301h-150l43 304q-310 36 -310 370zM364 419q0 -174 135 -210 l96 682q-176 -44 -211 -291l-14 -100q-6 -43 -6 -81z" />
<glyph unicode="&#xa3;" horiz-adv-x="1100" d="M100 0l28 200h150l56 400h-150l28 200h150l14 100q71 500 571 500q97 0 243 -50l-78 -200q-96 50 -193 50q-300 0 -343 -300l-14 -100h400l-28 -200h-400l-56 -400h550l-28 -200h-900z" />
<glyph unicode="&#xa5;" horiz-adv-x="1200" d="M185 250l25 180h350l20 140h-350l25 180h275l-233 650h230l190 -570l350 570h230l-417 -650h275l-25 -180h-350l-20 -140h350l-25 -180h-350l-35 -250h-200l35 250h-350z" />
<glyph unicode="&#xa6;" horiz-adv-x="400" d="M72 -200l112 800h200l-112 -800h-200zM213 800l112 800h200l-112 -800h-200z" />
<glyph unicode="&#xa8;" horiz-adv-x="800" d="M276 1250l35 250h200l-35 -250h-200zM676 1250l35 250h200l-35 -250h-200z" />
<glyph unicode="&#xa9;" horiz-adv-x="1400" d="M191 607q0 44 7 91q35 247 234.5 422t447.5 175q247 0 398 -175q122 -142 122 -331q0 -44 -7 -91q-35 -248 -234.5 -423t-446.5 -175q-248 0 -398 175q-123 142 -123 332zM334 628q0 -144 94 -253q115 -134 304 -134t341.5 134t179.5 323q5 35 5 68q0 146 -94 255 q-115 134 -304 134t-342 -134t-179 -323q-5 -36 -5 -70zM475 649q0 24 4 49q18 131 124 223.5t237 92.5t210 -93q59 -67 65 -154h-147q-8 30 -31 55q-43 52 -116 52t-132 -51.5t-69 -124.5q-2 -14 -2 -26q0 -57 36 -98q44 -52 117 -52t131 51q32 28 49 61h146 q-31 -91 -110 -160q-105 -93 -236 -93t-211 93q-65 75 -65 175z" />
<glyph unicode="&#xab;" horiz-adv-x="1221" d="M198 700l397 500h240l-397 -500l259 -504h-240zM650 700l397 500h240l-397 -500l258 -504h-240z" />
<glyph unicode="&#xac;" horiz-adv-x="900" d="M184 600l28 200h700l-70 -500h-200l42 300h-500z" />
<glyph unicode="&#xad;" horiz-adv-x="800" d="M184 600l28 200h600l-28 -200h-600z" />
<glyph unicode="&#xae;" horiz-adv-x="1389" d="M191 602q0 44 7 91q35 247 234.5 422t447.5 175q247 0 398 -175q122 -142 122 -331q0 -44 -7 -91q-35 -248 -234.5 -423t-446.5 -175q-248 0 -398 175q-123 142 -123 332zM334 623q0 -144 94 -253q115 -134 304 -134t341.5 134t179.5 323q5 35 5 68q0 146 -94 255 q-115 134 -304 134t-342 -134t-179 -323q-5 -36 -5 -70zM499 376l89 633h302q186 0 186 -163q0 -23 -4 -48q-20 -136 -122 -185l62 -237h-152l-52 211h-138l-30 -211h-141zM690 728h161q70 0 80 70q1 9 1 17q0 54 -61 54h-161z" />
<glyph unicode="&#xaf;" horiz-adv-x="800" d="M276 1250l28 200h600l-28 -200h-600z" />
<glyph unicode="&#xb0;" horiz-adv-x="700" d="M259 1114q0 18 2 36q7 51 33 96.5t65 79.5t87 54t100 20q51 0 94 -20t72 -54t43 -79q8 -30 8 -63q0 -17 -2 -34q-7 -52 -33.5 -97.5t-65 -79.5t-87 -53.5t-99.5 -19.5q-52 0 -94.5 19.5t-72 53.5t-42.5 80q-8 29 -8 61zM386 1133q0 -17 4 -31q6 -23 21 -40t36 -26.5 t47 -9.5q25 0 49.5 10t43.5 26.5t32.5 39t16.5 48.5q1 9 1 18q0 15 -4 30q-7 23 -21.5 40t-36 27t-46.5 10q-26 0 -50 -10t-43 -27t-32 -40t-17 -48q-1 -9 -1 -17z" />
<glyph unicode="&#xb1;" d="M114 100l28 200h800l-28 -200h-800zM212 800l28 200h300l43 300h200l-43 -300h300l-28 -200h-300l-42 -300h-200l42 300h-300z" />
<glyph unicode="&#xb4;" horiz-adv-x="470" d="M276 1250l92 300h220l-162 -300h-150z" />
<glyph unicode="&#xb5;" d="M51 -350l204 1450h200l-124 -880q50 -10 98 -15t99 -5q200 0 235 250l92 650h200l-92 -650q-63 -450 -463 -450q-100 0 -196 30l-46 -330z" />
<glyph unicode="&#xb6;" horiz-adv-x="1300" d="M227 857q0 45 7 97q62 446 562 446h600l-245 -1750h-200l217 1550h-200l-217 -1550h-200l119 850q-443 0 -443 357z" />
<glyph unicode="&#xb7;" horiz-adv-x="370" d="M182 583l30 212h170l-30 -212h-170z" />
<glyph unicode="&#xb8;" horiz-adv-x="650" d="M49 -360l43 90q95 -30 195 -30q70 0 80 70q1 9 1 16q0 54 -61 54h-100l28 200h100l-14 -100q198 0 198 -138q0 -15 -2 -32q-24 -170 -244 -170q-113 0 -224 40z" />
<glyph unicode="&#xbb;" horiz-adv-x="1221" d="M128 196l401 504l-257 500h240l257 -500l-401 -504h-240zM580 196l400 504l-257 500h240l257 -500l-400 -504h-240z" />
<glyph unicode="&#xbf;" horiz-adv-x="950" d="M107 10q0 40 6 84q42 300 356 400l49 200h160l-30 -350q-307 -49 -335 -250q-3 -20 -3 -38q0 -162 225 -162q152 0 256 40l23 -190q-160 -50 -307 -50q-400 0 -400 316zM499 850l36 250h250l-36 -250h-250z" />
<glyph unicode="&#xc0;" horiz-adv-x="1100" d="M0 0l627 1400h240l233 -1400h-220l-44 300h-488l-128 -300h-220zM433 500h373l-94 650zM630 1850h220l8 -300h-150z" />
<glyph unicode="&#xc1;" horiz-adv-x="1100" d="M0 0l627 1400h240l233 -1400h-220l-44 300h-488l-128 -300h-220zM433 500h373l-94 650zM678 1550l92 300h220l-162 -300h-150z" />
<glyph unicode="&#xc2;" horiz-adv-x="1100" d="M0 0l627 1400h240l233 -1400h-220l-44 300h-488l-128 -300h-220zM433 500h373l-94 650zM468 1550l242 300h200l158 -300h-200l-79 150l-121 -150h-200z" />
<glyph unicode="&#xc3;" horiz-adv-x="1100" d="M0 0l627 1400h240l233 -1400h-220l-44 300h-488l-128 -300h-220zM422 1570q36 261 247 261q118 0 164 -57q45 -56 95 -56q78 0 108 113h120q-36 -261 -247 -261q-119 0 -165 56q-48 57 -94 57q-78 0 -108 -113h-120zM433 500h373l-94 650z" />
<glyph unicode="&#xc4;" horiz-adv-x="1100" d="M0 0l627 1400h240l233 -1400h-220l-44 300h-488l-128 -300h-220zM433 500h373l-94 650zM468 1550l35 250h200l-35 -250h-200zM868 1550l35 250h200l-35 -250h-200z" />
<glyph unicode="&#xc5;" horiz-adv-x="1100" d="M0 0l627 1400h240l233 -1400h-220l-44 300h-488l-128 -300h-220zM433 500h373l-94 650zM587 1670q0 15 2 30q6 41 27 77.5t52 63.5t69.5 43t79.5 16t75.5 -16t57.5 -43t34 -63q7 -24 7 -50q0 -14 -2 -28q-6 -41 -27 -77.5t-52 -63.5t-69.5 -43t-79.5 -16 q-42 0 -76.5 15.5t-57.5 42.5t-33 64q-7 23 -7 48zM709 1687q0 -25 16 -43q20 -23 53 -23t59.5 23t31.5 56q1 6 1 13q0 25 -16 44q-21 23 -54 23t-59 -23.5t-31 -56.5q-1 -7 -1 -13z" />
<glyph unicode="&#xc6;" horiz-adv-x="1600" d="M0 0l597 1400h1100l-28 -200h-550l-57 -400h500l-28 -200h-500l-56 -400h550l-28 -200h-750l42 300h-450l-122 -300h-220zM440 500h380l99 700h-190z" />
<glyph unicode="&#xc7;" horiz-adv-x="1150" d="M184 503q0 90 15 197q98 700 648 700q227 0 390 -72l-90 -175q-123 47 -328 47q-350 0 -420 -500q-12 -84 -12 -154q0 -346 291 -346q206 0 343 47l37 -176q-176 -69 -393 -71l-8 -60q198 0 198 -138q0 -15 -2 -32q-24 -170 -244 -170q-113 0 -224 40l42 90 q96 -30 196 -30q70 0 80 70q1 9 1 16q0 54 -61 54h-100l23 164q-382 43 -382 499z" />
<glyph unicode="&#xc8;" d="M100 0l197 1400h800l-28 -200h-600l-57 -400h550l-28 -200h-550l-56 -400h600l-28 -200h-800zM580 1850h220l8 -300h-150z" />
<glyph unicode="&#xc9;" d="M100 0l197 1400h800l-28 -200h-600l-57 -400h550l-28 -200h-550l-56 -400h600l-28 -200h-800zM628 1550l92 300h220l-162 -300h-150z" />
<glyph unicode="&#xca;" d="M100 0l197 1400h800l-28 -200h-600l-57 -400h550l-28 -200h-550l-56 -400h600l-28 -200h-800zM418 1550l242 300h200l158 -300h-200l-79 150l-121 -150h-200z" />
<glyph unicode="&#xcb;" d="M100 0l197 1400h800l-28 -200h-600l-57 -400h550l-28 -200h-550l-56 -400h600l-28 -200h-800zM418 1550l35 250h200l-35 -250h-200zM818 1550l35 250h200l-35 -250h-200z" />
<glyph unicode="&#xcc;" horiz-adv-x="400" d="M100 0l197 1400h200l-197 -1400h-200zM280 1850h220l8 -300h-150z" />
<glyph unicode="&#xcd;" horiz-adv-x="400" d="M100 0l197 1400h200l-197 -1400h-200zM328 1550l92 300h220l-162 -300h-150z" />
<glyph unicode="&#xce;" horiz-adv-x="400" d="M100 0l197 1400h200l-197 -1400h-200zM118 1550l242 300h200l158 -300h-200l-79 150l-121 -150h-200z" />
<glyph unicode="&#xcf;" horiz-adv-x="400" d="M100 0l197 1400h200l-197 -1400h-200zM118 1550l35 250h200l-35 -250h-200zM518 1550l35 250h200l-35 -250h-200z" />
<glyph unicode="&#xd0;" horiz-adv-x="1195" d="M33 625l21 150h150l88 625h450q467 0 467 -504q0 -90 -15 -196q-99 -700 -649 -700h-450l88 625h-150zM323 200h250q350 0 421 500q12 83 12 153q0 347 -292 347h-250l-60 -425h150l-21 -150h-150z" />
<glyph unicode="&#xd1;" horiz-adv-x="1150" d="M100 0l197 1400h200l411 -990l139 990h200l-197 -1400h-200l-411 990l-139 -990h-200zM447 1570q36 261 247 261q118 0 164 -57q45 -56 95 -56q78 0 108 113h120q-36 -261 -247 -261q-119 0 -165 56q-48 57 -94 57q-78 0 -108 -113h-120z" />
<glyph unicode="&#xd2;" horiz-adv-x="1300" d="M183 504q0 90 15 196q99 700 649 700q466 0 466 -503q0 -90 -15 -197q-98 -700 -648 -700q-467 0 -467 504zM386 547q0 -347 292 -347q350 0 420 500q12 84 12 154q0 346 -291 346q-350 0 -421 -500q-12 -83 -12 -153zM730 1850h220l8 -300h-150z" />
<glyph unicode="&#xd3;" horiz-adv-x="1300" d="M183 504q0 90 15 196q99 700 649 700q466 0 466 -503q0 -90 -15 -197q-98 -700 -648 -700q-467 0 -467 504zM386 547q0 -347 292 -347q350 0 420 500q12 84 12 154q0 346 -291 346q-350 0 -421 -500q-12 -83 -12 -153zM778 1550l92 300h220l-162 -300h-150z" />
<glyph unicode="&#xd4;" horiz-adv-x="1300" d="M183 504q0 90 15 196q99 700 649 700q466 0 466 -503q0 -90 -15 -197q-98 -700 -648 -700q-467 0 -467 504zM386 547q0 -347 292 -347q350 0 420 500q12 84 12 154q0 346 -291 346q-350 0 -421 -500q-12 -83 -12 -153zM568 1550l242 300h200l158 -300h-200l-79 150 l-121 -150h-200z" />
<glyph unicode="&#xd5;" horiz-adv-x="1300" d="M183 504q0 90 15 196q99 700 649 700q466 0 466 -503q0 -90 -15 -197q-98 -700 -648 -700q-467 0 -467 504zM386 547q0 -347 292 -347q350 0 420 500q12 84 12 154q0 346 -291 346q-350 0 -421 -500q-12 -83 -12 -153zM522 1570q36 261 247 261q118 0 164 -57 q45 -56 95 -56q78 0 108 113h120q-36 -261 -247 -261q-119 0 -165 56q-48 57 -94 57q-78 0 -108 -113h-120z" />
<glyph unicode="&#xd6;" horiz-adv-x="1300" d="M183 504q0 90 15 196q99 700 649 700q466 0 466 -503q0 -90 -15 -197q-98 -700 -648 -700q-467 0 -467 504zM386 547q0 -347 292 -347q350 0 420 500q12 84 12 154q0 346 -291 346q-350 0 -421 -500q-12 -83 -12 -153zM568 1550l35 250h200l-35 -250h-200zM968 1550 l35 250h200l-35 -250h-200z" />
<glyph unicode="&#xd7;" horiz-adv-x="981" d="M167 450l280 249l-214 246l160 142l215 -246l280 250l123 -141l-281 -249l215 -246l-160 -142l-215 246l-281 -250z" />
<glyph unicode="&#xd8;" horiz-adv-x="1300" d="M183 504q0 90 15 196q99 700 649 700q129 0 222 -39l114 185l127 -64l-122 -200q125 -126 125 -387q0 -89 -15 -195q-98 -700 -648 -700q-130 0 -224 39l-113 -185l-127 64l122 199q-125 126 -125 387zM386 547q0 -140 48 -224l521 851q-61 26 -137 26q-350 0 -420 -500 q-12 -83 -12 -153zM541 226q60 -26 137 -26q350 0 420 500q12 84 12 154q0 140 -48 223z" />
<glyph unicode="&#xd9;" horiz-adv-x="1150" d="M161 381q0 55 9 119l127 900h200l-127 -900q-5 -39 -5 -73q0 -227 243 -227q270 0 312 300l127 900h200l-127 -900q-70 -500 -540 -500q-419 0 -419 381zM655 1850h220l8 -300h-150z" />
<glyph unicode="&#xda;" horiz-adv-x="1150" d="M161 381q0 55 9 119l127 900h200l-127 -900q-5 -39 -5 -73q0 -227 243 -227q270 0 312 300l127 900h200l-127 -900q-70 -500 -540 -500q-419 0 -419 381zM703 1550l92 300h220l-162 -300h-150z" />
<glyph unicode="&#xdb;" horiz-adv-x="1150" d="M161 381q0 55 9 119l127 900h200l-127 -900q-5 -39 -5 -73q0 -227 243 -227q270 0 312 300l127 900h200l-127 -900q-70 -500 -540 -500q-419 0 -419 381zM493 1550l242 300h200l158 -300h-200l-79 150l-121 -150h-200z" />
<glyph unicode="&#xdc;" horiz-adv-x="1150" d="M161 381q0 55 9 119l127 900h200l-127 -900q-5 -39 -5 -73q0 -227 243 -227q270 0 312 300l127 900h200l-127 -900q-70 -500 -540 -500q-419 0 -419 381zM493 1550l35 250h200l-35 -250h-200zM893 1550l35 250h200l-35 -250h-200z" />
<glyph unicode="&#xdd;" d="M197 1400h230l190 -570l350 570h230l-512 -800l-85 -600h-200l85 600zM628 1550l92 300h220l-162 -300h-150z" />
<glyph unicode="&#xde;" horiz-adv-x="1150" d="M100 0l197 1400h200l-35 -250h250q443 0 443 -354q0 -45 -7 -96q-63 -450 -563 -450h-250l-35 -250h-200zM363 450h250q300 0 335 250q4 27 4 51q0 199 -268 199h-250z" />
<glyph unicode="&#xdf;" horiz-adv-x="1100" d="M100 0l126 900q71 500 521 500q400 0 400 -316q0 -40 -6 -84q-36 -250 -243 -300q163 -42 163 -228q0 -34 -5 -72q-56 -400 -506 -400h-100l28 200h100q250 0 278 200q3 20 3 38q0 162 -225 162h-100l28 200h100q250 0 279 200q3 20 3 38q0 162 -225 162 q-250 0 -293 -300l-126 -900h-200z" />
<glyph unicode="&#xe0;" d="M143 271q0 33 5 69q50 360 650 360q3 25 3 46q0 154 -175 154q-134 0 -273 -45l-33 179q172 66 335 66q350 0 350 -306q0 -44 -7 -94l-84 -600q-114 -100 -414 -100q-357 0 -357 271zM346 316q0 -116 182 -116q51 0 101 5t102 15l39 280q-400 0 -422 -160q-2 -13 -2 -24z M538 1550h220l8 -300h-150z" />
<glyph unicode="&#xe1;" d="M143 271q0 33 5 69q50 360 650 360q3 25 3 46q0 154 -175 154q-134 0 -273 -45l-33 179q172 66 335 66q350 0 350 -306q0 -44 -7 -94l-84 -600q-114 -100 -414 -100q-357 0 -357 271zM346 316q0 -116 182 -116q51 0 101 5t102 15l39 280q-400 0 -422 -160q-2 -13 -2 -24z M586 1250l92 300h220l-162 -300h-150z" />
<glyph unicode="&#xe2;" d="M143 271q0 33 5 69q50 360 650 360q3 25 3 46q0 154 -175 154q-134 0 -273 -45l-33 179q172 66 335 66q350 0 350 -306q0 -44 -7 -94l-84 -600q-114 -100 -414 -100q-357 0 -357 271zM346 316q0 -116 182 -116q51 0 101 5t102 15l39 280q-400 0 -422 -160q-2 -13 -2 -24z M376 1250l242 300h200l158 -300h-200l-79 150l-121 -150h-200z" />
<glyph unicode="&#xe3;" d="M143 271q0 33 5 69q50 360 650 360q3 25 3 46q0 154 -175 154q-134 0 -273 -45l-33 179q172 66 335 66q350 0 350 -306q0 -44 -7 -94l-84 -600q-114 -100 -414 -100q-357 0 -357 271zM329 1270q37 261 248 261q118 0 164 -57q45 -56 95 -56q78 0 108 113h120 q-37 -261 -248 -261q-119 0 -165 56q-48 57 -94 57q-78 0 -108 -113h-120zM346 316q0 -116 182 -116q51 0 101 5t102 15l39 280q-400 0 -422 -160q-2 -13 -2 -24z" />
<glyph unicode="&#xe4;" d="M143 271q0 33 5 69q50 360 650 360q3 25 3 46q0 154 -175 154q-134 0 -273 -45l-33 179q172 66 335 66q350 0 350 -306q0 -44 -7 -94l-84 -600q-114 -100 -414 -100q-357 0 -357 271zM346 316q0 -116 182 -116q51 0 101 5t102 15l39 280q-400 0 -422 -160q-2 -13 -2 -24z M376 1250l35 250h200l-35 -250h-200zM776 1250l35 250h200l-35 -250h-200z" />
<glyph unicode="&#xe5;" d="M143 271q0 33 5 69q50 360 650 360q3 25 3 46q0 154 -175 154q-134 0 -273 -45l-33 179q172 66 335 66q350 0 350 -306q0 -44 -7 -94l-84 -600q-114 -100 -414 -100q-357 0 -357 271zM346 316q0 -116 182 -116q51 0 101 5t102 15l39 280q-400 0 -422 -160q-2 -13 -2 -24z M495 1370q0 15 2 30q6 41 27 77.5t51.5 63.5t69.5 43t80 16t75 -16t57.5 -43t34.5 -63q7 -24 7 -50q0 -14 -2 -28q-6 -41 -27 -77.5t-52 -63.5t-69.5 -43t-79.5 -16q-42 0 -76.5 15.5t-57.5 42.5t-33 64q-7 23 -7 48zM617 1387q0 -25 16 -43q20 -23 53 -23t59.5 23t31.5 56 q1 5 1 11q0 26 -17 46q-20 23 -53 23t-59.5 -23.5t-30.5 -56.5q-1 -7 -1 -13z" />
<glyph unicode="&#xe6;" horiz-adv-x="1646" d="M143 271q0 33 5 69q50 360 650 360q3 25 3 46q0 154 -175 154q-134 0 -273 -45l-33 179q172 66 335 66q219 0 301 -120q123 120 335 120q349 0 349 -363q0 -63 -10 -137q-21 -150 -71 -150h-590q-5 -37 -5 -69q0 -181 170 -181q197 0 321 44l12 -185q-112 -59 -361 -59 q-150 0 -234 70q-119 -70 -372 -70q-357 0 -357 271zM346 316q0 -116 182 -116q51 0 101 5t102 15l39 280q-400 0 -422 -160q-2 -13 -2 -24zM996 640h440q5 38 5 71q0 189 -179 189q-230 0 -266 -260z" />
<glyph unicode="&#xe7;" horiz-adv-x="950" d="M161 375q0 58 9 125l14 100q71 500 521 500q197 0 293 -50l-77 -190q-92 40 -244 40q-250 0 -293 -300l-14 -100q-6 -43 -6 -80q0 -220 214 -220q152 0 256 40l23 -190q-52 -25 -125 -37t-167 -13l-8 -60q198 0 198 -138q0 -15 -2 -32q-24 -170 -244 -170q-113 0 -224 40 l42 90q96 -30 196 -30q70 0 80 70q1 9 1 16q0 54 -61 54h-100l23 165q-305 37 -305 370z" />
<glyph unicode="&#xe8;" d="M160 362q0 64 10 138l14 100q71 500 501 500q349 0 349 -363q0 -63 -10 -137q-21 -150 -71 -150h-590q-5 -37 -5 -69q0 -181 170 -181q197 0 321 44l12 -185q-112 -59 -361 -59q-340 0 -340 362zM390 640h440q5 38 5 71q0 189 -179 189q-230 0 -266 -260zM558 1550h220 l8 -300h-150z" />
<glyph unicode="&#xe9;" d="M160 362q0 64 10 138l14 100q71 500 501 500q349 0 349 -363q0 -63 -10 -137q-21 -150 -71 -150h-590q-5 -37 -5 -69q0 -181 170 -181q197 0 321 44l12 -185q-112 -59 -361 -59q-340 0 -340 362zM390 640h440q5 38 5 71q0 189 -179 189q-230 0 -266 -260zM606 1250 l92 300h220l-162 -300h-150z" />
<glyph unicode="&#xea;" d="M160 362q0 64 10 138l14 100q71 500 501 500q349 0 349 -363q0 -63 -10 -137q-21 -150 -71 -150h-590q-5 -37 -5 -69q0 -181 170 -181q197 0 321 44l12 -185q-112 -59 -361 -59q-340 0 -340 362zM390 640h440q5 38 5 71q0 189 -179 189q-230 0 -266 -260zM396 1250 l242 300h200l158 -300h-200l-79 150l-121 -150h-200z" />
<glyph unicode="&#xeb;" d="M160 362q0 64 10 138l14 100q71 500 501 500q349 0 349 -363q0 -63 -10 -137q-21 -150 -71 -150h-590q-5 -37 -5 -69q0 -181 170 -181q197 0 321 44l12 -185q-112 -59 -361 -59q-340 0 -340 362zM390 640h440q5 38 5 71q0 189 -179 189q-230 0 -266 -260zM396 1250 l35 250h200l-35 -250h-200zM796 1250l35 250h200l-35 -250h-200z" />
<glyph unicode="&#xec;" horiz-adv-x="400" d="M100 0l155 1100h200l-155 -1100h-200zM238 1550h220l8 -300h-150z" />
<glyph unicode="&#xed;" horiz-adv-x="400" d="M100 0l155 1100h200l-155 -1100h-200zM286 1250l92 300h220l-162 -300h-150z" />
<glyph unicode="&#xee;" horiz-adv-x="400" d="M76 1250l242 300h200l158 -300h-200l-79 150l-121 -150h-200zM100 0l155 1100h200l-155 -1100h-200z" />
<glyph unicode="&#xef;" horiz-adv-x="400" d="M76 1250l35 250h200l-35 -250h-200zM100 0l155 1100h200l-155 -1100h-200zM476 1250l35 250h200l-35 -250h-200z" />
<glyph unicode="&#xf0;" d="M154 336q0 53 9 114l28 200q64 450 464 450q99 0 195 -30l14 100h-150l22 150h150l11 80l207 50l-18 -130h150l-22 -150h-150l-150 -1070q-114 -100 -414 -100q-346 0 -346 336zM358 381q0 -181 170 -181q51 0 101 5t102 15l93 660q-50 10 -98.5 15t-99.5 5 q-200 0 -235 -250l-28 -200q-5 -37 -5 -69z" />
<glyph unicode="&#xf1;" d="M100 0l148 1050q110 50 407 50q350 0 350 -306q0 -44 -7 -94l-98 -700h-200l98 700q3 25 3 46q0 154 -175 154q-51 0 -100.5 -5t-101.5 -15l-124 -880h-200zM329 1270q37 261 248 261q118 0 164 -57q45 -56 95 -56q78 0 108 113h120q-37 -261 -248 -261q-119 0 -165 56 q-48 57 -94 57q-78 0 -108 -113h-120z" />
<glyph unicode="&#xf2;" horiz-adv-x="1100" d="M161 375q0 58 9 125l14 100q71 500 521 500q389 0 389 -373q0 -59 -10 -127l-14 -100q-70 -500 -520 -500q-389 0 -389 375zM364 420q0 -220 214 -220q250 0 292 300l14 100q6 43 6 80q0 220 -214 220q-250 0 -292 -300l-14 -100q-6 -43 -6 -80zM588 1550h220l8 -300 h-150z" />
<glyph unicode="&#xf3;" horiz-adv-x="1100" d="M161 375q0 58 9 125l14 100q71 500 521 500q389 0 389 -373q0 -59 -10 -127l-14 -100q-70 -500 -520 -500q-389 0 -389 375zM364 420q0 -220 214 -220q250 0 292 300l14 100q6 43 6 80q0 220 -214 220q-250 0 -292 -300l-14 -100q-6 -43 -6 -80zM636 1250l92 300h220 l-162 -300h-150z" />
<glyph unicode="&#xf4;" horiz-adv-x="1100" d="M161 375q0 58 9 125l14 100q71 500 521 500q389 0 389 -373q0 -59 -10 -127l-14 -100q-70 -500 -520 -500q-389 0 -389 375zM364 420q0 -220 214 -220q250 0 292 300l14 100q6 43 6 80q0 220 -214 220q-250 0 -292 -300l-14 -100q-6 -43 -6 -80zM426 1250l242 300h200 l158 -300h-200l-79 150l-121 -150h-200z" />
<glyph unicode="&#xf5;" horiz-adv-x="1100" d="M161 375q0 58 9 125l14 100q71 500 521 500q389 0 389 -373q0 -59 -10 -127l-14 -100q-70 -500 -520 -500q-389 0 -389 375zM364 420q0 -220 214 -220q250 0 292 300l14 100q6 43 6 80q0 220 -214 220q-250 0 -292 -300l-14 -100q-6 -43 -6 -80zM379 1270q37 261 248 261 q118 0 164 -57q45 -56 95 -56q78 0 108 113h120q-37 -261 -248 -261q-119 0 -165 56q-48 57 -94 57q-78 0 -108 -113h-120z" />
<glyph unicode="&#xf6;" horiz-adv-x="1100" d="M161 375q0 58 9 125l14 100q71 500 521 500q389 0 389 -373q0 -59 -10 -127l-14 -100q-70 -500 -520 -500q-389 0 -389 375zM364 420q0 -220 214 -220q250 0 292 300l14 100q6 43 6 80q0 220 -214 220q-250 0 -292 -300l-14 -100q-6 -43 -6 -80zM426 1250l35 250h200 l-35 -250h-200zM826 1250l35 250h200l-35 -250h-200z" />
<glyph unicode="&#xf7;" d="M184 600l28 200h800l-28 -200h-800zM421 150l35 250h200l-35 -250h-200zM540 1000l35 250h200l-35 -250h-200z" />
<glyph unicode="&#xf8;" horiz-adv-x="1100" d="M132 -156l139 239q-110 93 -110 291q0 59 10 127l14 100q70 500 520 500q85 0 152 -18l140 239l127 -64l-140 -239q111 -94 111 -292q0 -59 -10 -126l-14 -100q-70 -500 -520 -500q-86 0 -153 18l-139 -239zM364 417q0 -78 28 -127l354 604q-15 4 -32.5 5.5t-36.5 1.5 q-250 0 -292 -300l-14 -100q-7 -45 -7 -84zM509 208q28 -7 70 -7q250 0 292 300l14 100q6 44 6 81q0 80 -28 130z" />
<glyph unicode="&#xf9;" d="M149 308q0 43 7 92l99 700h200l-99 -700q-3 -25 -3 -46q0 -154 175 -154q51 0 101 5t102 15l124 880h200l-141 -1000q-114 -100 -414 -100q-351 0 -351 308zM538 1550h220l8 -300h-150z" />
<glyph unicode="&#xfa;" d="M149 308q0 43 7 92l99 700h200l-99 -700q-3 -25 -3 -46q0 -154 175 -154q51 0 101 5t102 15l124 880h200l-141 -1000q-114 -100 -414 -100q-351 0 -351 308zM586 1250l92 300h220l-162 -300h-150z" />
<glyph unicode="&#xfb;" d="M149 308q0 43 7 92l99 700h200l-99 -700q-3 -25 -3 -46q0 -154 175 -154q51 0 101 5t102 15l124 880h200l-141 -1000q-114 -100 -414 -100q-351 0 -351 308zM376 1250l242 300h200l158 -300h-200l-79 150l-121 -150h-200z" />
<glyph unicode="&#xfc;" d="M149 308q0 43 7 92l99 700h200l-99 -700q-3 -25 -3 -46q0 -154 175 -154q51 0 101 5t102 15l124 880h200l-141 -1000q-114 -100 -414 -100q-351 0 -351 308zM376 1250l35 250h200l-35 -250h-200zM776 1250l35 250h200l-35 -250h-200z" />
<glyph unicode="&#xfd;" d="M94 -400l78 200q96 -50 293 -50q200 0 228 200l11 80q-105 -30 -204 -30q-346 0 -346 336q0 53 9 114l92 650h200l-92 -650q-5 -37 -5 -69q0 -181 170 -181q51 0 101 5t102 15l124 880h200l-162 -1150q-56 -400 -456 -400q-197 0 -343 50zM586 1250l92 300h220l-162 -300 h-150z" />
<glyph unicode="&#xfe;" d="M37 -450l260 1850l207 50l-53 -380q104 30 204 30q351 0 351 -308q0 -43 -7 -92l-43 -300q-56 -400 -456 -400q-100 0 -196 30l-60 -430zM331 220q50 -10 98 -15t99 -5q200 0 235 250l29 200q5 37 5 69q0 181 -170 181q-51 0 -101 -5t-102 -15z" />
<glyph unicode="&#xff;" d="M94 -400l78 200q96 -50 293 -50q200 0 228 200l11 80q-105 -30 -204 -30q-346 0 -346 336q0 53 9 114l92 650h200l-92 -650q-5 -37 -5 -69q0 -181 170 -181q51 0 101 5t102 15l124 880h200l-162 -1150q-56 -400 -456 -400q-197 0 -343 50zM376 1250l35 250h200l-35 -250 h-200zM776 1250l35 250h200l-35 -250h-200z" />
<glyph unicode="&#x152;" horiz-adv-x="1750" d="M182 490q0 95 16 210q99 700 600 700q184 0 286 -94l13 94h750l-28 -200h-550l-57 -400h500l-28 -200h-500l-56 -400h550l-28 -200h-750l13 94q-128 -94 -312 -94q-419 0 -419 490zM385 529q0 -329 244 -329q276 0 358 420l22 159q5 51 5 95q0 326 -244 326 q-301 0 -372 -500q-13 -94 -13 -171z" />
<glyph unicode="&#x153;" horiz-adv-x="1740" d="M161 375q0 58 9 125l14 100q71 500 521 500q234 0 327 -137q128 137 353 137q349 0 349 -363q0 -63 -10 -137q-21 -150 -71 -150h-590q-5 -37 -5 -69q0 -181 170 -181q197 0 321 44l12 -185q-112 -59 -361 -59q-206 0 -287 132q-132 -132 -363 -132q-389 0 -389 375z M364 420q0 -220 214 -220q250 0 292 300l14 100q6 43 6 80q0 220 -214 220q-250 0 -292 -300l-14 -100q-6 -43 -6 -80zM1090 640h440q5 38 5 71q0 189 -179 189q-230 0 -266 -260z" />
<glyph unicode="&#x178;" d="M197 1400h230l190 -570l350 570h230l-512 -800l-85 -600h-200l85 600zM418 1550l35 250h200l-35 -250h-200zM818 1550l35 250h200l-35 -250h-200z" />
<glyph unicode="&#x2c6;" horiz-adv-x="800" d="M276 1250l242 300h200l158 -300h-200l-79 150l-121 -150h-200z" />
<glyph unicode="&#x2dc;" horiz-adv-x="898" d="M278 1270q37 261 248 261q118 0 164 -57q45 -56 95 -56q78 0 108 113h120q-37 -261 -248 -261q-119 0 -165 56q-48 57 -94 57q-78 0 -108 -113h-120z" />
<glyph unicode="&#x2000;" horiz-adv-x="950" />
<glyph unicode="&#x2001;" horiz-adv-x="1900" />
<glyph unicode="&#x2002;" horiz-adv-x="950" />
<glyph unicode="&#x2003;" horiz-adv-x="1900" />
<glyph unicode="&#x2004;" horiz-adv-x="633" />
<glyph unicode="&#x2005;" horiz-adv-x="475" />
<glyph unicode="&#x2006;" horiz-adv-x="316" />
<glyph unicode="&#x2007;" horiz-adv-x="316" />
<glyph unicode="&#x2008;" horiz-adv-x="237" />
<glyph unicode="&#x2009;" horiz-adv-x="380" />
<glyph unicode="&#x200a;" horiz-adv-x="105" />
<glyph unicode="&#x2010;" horiz-adv-x="800" d="M184 600l28 200h600l-28 -200h-600z" />
<glyph unicode="&#x2011;" horiz-adv-x="800" d="M184 600l28 200h600l-28 -200h-600z" />
<glyph unicode="&#x2012;" horiz-adv-x="800" d="M184 600l28 200h600l-28 -200h-600z" />
<glyph unicode="&#x2013;" horiz-adv-x="800" d="M184 600l28 200h600l-28 -200h-600z" />
<glyph unicode="&#x2014;" d="M184 600l28 200h800l-28 -200h-800z" />
<glyph unicode="&#x2018;" horiz-adv-x="400" d="M241 1000l35 250q21 150 178 200l39 -80q-110 -70 -117 -120h100l-35 -250h-200z" />
<glyph unicode="&#x2019;" horiz-adv-x="400" d="M252 1080q110 70 117 120h-100l35 250h200l-35 -250q-21 -151 -178 -200z" />
<glyph unicode="&#x201a;" horiz-adv-x="400" d="M80 -145q110 70 117 120h-100l35 250h200l-35 -250q-21 -151 -178 -200z" />
<glyph unicode="&#x201c;" horiz-adv-x="700" d="M241 1000l35 250q21 150 178 200l39 -80q-110 -70 -117 -120h100l-35 -250h-200zM541 1000l35 250q21 150 178 200l39 -80q-110 -70 -117 -120h100l-35 -250h-200z" />
<glyph unicode="&#x201d;" horiz-adv-x="700" d="M252 1080q110 70 117 120h-100l35 250h200l-35 -250q-21 -151 -178 -200zM552 1080q110 70 117 120h-100l35 250h200l-35 -250q-21 -151 -178 -200z" />
<glyph unicode="&#x201e;" horiz-adv-x="700" d="M80 -145q110 70 117 120h-100l35 250h200l-35 -250q-21 -151 -178 -200zM380 -145q110 70 117 120h-100l35 250h200l-35 -250q-21 -151 -178 -200z" />
<glyph unicode="&#x2022;" horiz-adv-x="500" d="M177 550l42 300h300l-42 -300h-300z" />
<glyph unicode="&#x2026;" horiz-adv-x="1100" d="M100 0l35 250h200l-35 -250h-200zM450 0l35 250h200l-35 -250h-200zM800 0l35 250h200l-35 -250h-200z" />
<glyph unicode="&#x202f;" horiz-adv-x="380" />
<glyph unicode="&#x2039;" horiz-adv-x="770" d="M198 700l397 500h240l-397 -500l259 -504h-240z" />
<glyph unicode="&#x203a;" horiz-adv-x="770" d="M128 196l401 504l-257 500h240l257 -500l-401 -504h-240z" />
<glyph unicode="&#x205f;" horiz-adv-x="475" />
<glyph unicode="&#x20ac;" horiz-adv-x="1250" d="M163 450l21 150h103q4 48 11 100t17 100h-103l21 150h121q152 450 593 450q227 0 389 -72l-89 -175q-124 47 -329 47q-248 0 -355 -250h470l-71 -150h-446q-5 -23 -9.5 -48.5t-8.5 -51.5t-6.5 -51.5t-3.5 -48.5h446l-71 -150h-370q37 -250 285 -250q206 0 342 47l38 -176 q-185 -71 -408 -71q-441 0 -466 450h-121z" />
<glyph unicode="&#x2122;" horiz-adv-x="1294" d="M279 1274l18 126h429l-18 -126h-151l-65 -463h-135l65 463h-143zM719 811l83 589h210l25 -421l144 421h210l-83 -589h-126l59 421l-143 -421h-169l-25 421l-59 -421h-126z" />
<glyph unicode="&#x25fc;" horiz-adv-x="1100" d="M0 0v1100h1100v-1100h-1100z" />
</font>
</defs>
</svg>
