<svg id="Calque_1" data-name="Calque 1" xmlns="http://www.w3.org/2000/svg" viewBox="0 0 110.37 111.6"><defs><style>.cls-1{fill:#afa70e;}</style></defs><title>CC</title><g id="g5706"><path id="path5708" class="cls-1" d="M88.07,22.86q13.45,13.45,13.45,32.94T88.3,88.39q-14,13.8-33.17,13.8-18.91,0-32.59-13.69A44.62,44.62,0,0,1,8.85,55.8q0-19,13.69-32.94A44.13,44.13,0,0,1,55.13,9.4Q74.62,9.4,88.07,22.86Zm-59.49,6Q17.2,40.38,17.2,55.81A36.46,36.46,0,0,0,28.46,82.49,36.61,36.61,0,0,0,55.27,93.75q15.55,0,27-11.37Q93.21,71.82,93.21,55.81a36.71,36.71,0,0,0-11.09-27A36.58,36.58,0,0,0,55.27,17.75,35.92,35.92,0,0,0,28.58,28.89Zm20,22.39q-1.74-3.79-5.21-3.79-6.13,0-6.13,8.26T43.33,64a5.94,5.94,0,0,0,5.79-4l5.67,3a13.12,13.12,0,0,1-12.16,7.2,13.4,13.4,0,0,1-10-3.83q-3.77-3.83-3.77-10.57t3.88-10.51a13.1,13.1,0,0,1,9.67-3.89q8.57,0,12.28,6.75Zm26.67,0q-1.74-3.79-5.1-3.79-6.26,0-6.26,8.26T70.1,64a5.74,5.74,0,0,0,5.68-4l5.79,3a13.1,13.1,0,0,1-12.14,7.2,13.38,13.38,0,0,1-10-3.83q-3.75-3.83-3.76-10.57t3.82-10.51A13,13,0,0,1,69.2,41.4q8.55,0,12.25,6.75Z"/></g></svg>