<?xml version="1.0" encoding="utf-8"?>
<!-- Generator: Adobe Illustrator 19.2.1, SVG Export Plug-In . SVG Version: 6.00 Build 0)  -->
<svg version="1.1" id="Calque_1" xmlns="http://www.w3.org/2000/svg" xmlns:xlink="http://www.w3.org/1999/xlink" x="0px" y="0px"
	 viewBox="0 0 365.4 398" style="enable-background:new 0 0 365.4 398;" xml:space="preserve">
<style type="text/css">
	.st0{fill:#0091C3;}
	.st1{fill:#AFA715;}
</style>
<title>page8_icon2</title>
<path class="st0" d="M4.3,335.8c-1-0.6,53.9-60,94.2-58.3c37.4,1.5,61,28.2,61,28.2l25.5,1c0,0,24-41.7,53.1-11.6
	c-12.2,15.6-25.7,30-40.5,43.1c-5.5,5.1-67,15.2-104.8,7.3v7.5c11.6,8.5,116.8,3.7,121.4-19.4c12.3-1.5,54.6-12.3,64.3-15
	s83.9-30.8,83.2-0.6C335.4,329.9,237,367.7,237,367.7s-15.2,6.4-19.8,10.1s-10.8,8.4-16.3,9.5s-61.2-10.1-66-10.4
	s-49.3-10.6-80.6,17.8C29.4,397-1.4,347.4,4.3,335.8z"/>
<path class="st1" d="M209.8,4.5H92.3v218.2h179.9V67.9L209.8,4.5z M232.7,183.2H131.8V44H189v44.7h43.7V183.2z"/>
</svg>
