<svg id="Calque_1" data-name="Calque 1" xmlns="http://www.w3.org/2000/svg" viewBox="0 0 75.76 66.08"><defs><style>.cls-1{fill:#afa715;}</style></defs><title>page9_icon3</title><path class="cls-1" d="M51.34,42.36c1.35,1.9,4.21,5.53,6.09,4.94s2.17-5.05,2.2-7.41c1.48-.3,3-0.55,4.65-0.75,0.71,2.17,2.32,6.35,4.23,6.35,2.09,0,3.82-5,4.4-6.89h0.84V13.08H27.28A12.84,12.84,0,0,0,14.47,1H1.62V64.14H73.76V61.28H73.44c-16.4,0-29.69-5.08-29.69-11.35C43.75,47,46.62,44.37,51.34,42.36Zm0.09-17.27a4.9,4.9,0,1,1-4.9,4.9A4.9,4.9,0,0,1,51.43,25.09Z"/></svg>