<?xml version="1.0" encoding="utf-8"?>
<!-- Generator: Adobe Illustrator 19.2.1, SVG Export Plug-In . SVG Version: 6.00 Build 0)  -->
<svg version="1.1" id="Calque_1" xmlns="http://www.w3.org/2000/svg" xmlns:xlink="http://www.w3.org/1999/xlink" x="0px" y="0px"
	 viewBox="0 0 1015.3 497.6" style="enable-background:new 0 0 1015.3 497.6;" xml:space="preserve">
<style type="text/css">
	.st0{fill:#6B8893;}
	.st1{fill:#FFFFFF;}
	.st2{fill:#E8900C;}
	.st3{enable-background:new    ;}
	.st4{fill:#9DAFB7;}
</style>
<title>maintitle</title>
<g id="Calque_2">
	<path class="st0" d="M351,127.4c-15.7,0-31.3,3-45.9,9c5.6,11.6,17.3,32.8,27.7,31.5c11.3-1.5,17.2-28.9,19.2-40.4
		C351.7,127.4,351.3,127.4,351,127.4z"/>
	<path class="st0" d="M253.4,176.4c7.3,3.9,29.3,14.8,36,8.1c6.5-6.5-3.6-27.5-7.8-35.4C270.8,156.7,261.3,165.9,253.4,176.4z"/>
	<path class="st0" d="M351,370.7c-15.7,0-31.3-3-45.9-9c5.6-11.6,17.3-32.8,27.7-31.5c11.3,1.5,17.2,28.9,19.2,40.4
		C351.7,370.7,351.3,370.7,351,370.7z"/>
	<path class="st0" d="M253.4,321.7c7.3-3.9,29.3-14.8,36-8.1c6.5,6.5-3.6,27.5-7.8,35.4C270.9,341.4,261.4,332.2,253.4,321.7z"/>
	<path class="st1" d="M221.3,249c0-71.6,58.1-129.7,129.7-129.7l0,0h1.9c-46.8-42.8-120.2-41.6-165.4,3.7l-7.4,7.4l0,0L51.6,258.9
		c-19.2,19.1-30,45-30.1,72.1h122c0.9,0.9,1.7,1.8,2.6,2.7l41.4,41.4c45.3,45.3,118.6,46.5,165.4,3.7H351
		C279.4,378.8,221.3,320.6,221.3,249z M166.3,267.2c-10.1,0-18.2-8.1-18.2-18.2c0-10.1,8.1-18.2,18.2-18.2
		c10.1,0,18.2,8.1,18.2,18.2l0,0C184.5,259.1,176.4,267.2,166.3,267.2C166.3,267.2,166.3,267.2,166.3,267.2L166.3,267.2z"/>
	<path class="st2" d="M251,6.8C117.5,6.8,8.8,115.5,8.8,249c0,8,0.4,16,1.2,24c6.1-12,14.1-22.9,23.6-32.4l18-18
		C64.6,124.1,149,47.8,251,47.8c110.9,0,201.2,90.3,201.2,201.2S361.9,450.2,251,450.2c-68.9,0-133-35.4-169.9-93.6h-47
		c39.7,79.7,122,134.6,216.9,134.6c133.5,0,242.2-108.6,242.2-242.2S384.5,6.8,251,6.8z"/>
</g>
<g class="st3">
	<path class="st1" d="M319.4,231.2c-4.8-1.7-10.2-2.5-16.1-2.5c-9,0-13.6,6.4-13.6,19.2c0,12.8,4.5,19.2,13.6,19.2
		c5.9,0,11.2-0.8,16.1-2.5l4.1,11c-6.5,2.6-13.3,3.9-20.2,3.9c-17.6,0-26.4-10.5-26.4-31.5c0-21,8.8-31.5,26.4-31.5
		c7.1,0,13.9,1.3,20.4,3.9L319.4,231.2z"/>
	<path class="st1" d="M330.2,229h12.9v31.5c0,4.3,2.3,6.5,6.9,6.5c1.4,0,2.7,0,3.8-0.1c1.1-0.1,2.1-0.2,3.1-0.4V229h12.9v47.2
		c-3.8,2.1-10.4,3.2-19.8,3.2c-13.2,0-19.8-6.3-19.8-18.8V229z"/>
	<path class="st1" d="M378.7,216.7l12.9-3v65.6h-12.9V216.7z"/>
	<path class="st1" d="M407.1,216.7l12.9-3V229h13.3v12.4H420v19.2c0,4.3,1.6,6.5,4.7,6.5c1.7,0,4.2-0.7,7.5-2l3.2,11
		c-3.3,2.2-6.8,3.3-10.8,3.3c-11.7,0-17.6-6.3-17.6-18.8v-19.2h-6.7V229h6.7V216.7z"/>
	<path class="st1" d="M442.3,229h12.9v31.5c0,4.3,2.3,6.5,6.9,6.5c1.4,0,2.7,0,3.8-0.1c1.1-0.1,2.1-0.2,3.1-0.4V229h12.9v47.2
		c-3.8,2.1-10.4,3.2-19.8,3.2c-13.2,0-19.8-6.3-19.8-18.8V229z"/>
	<path class="st1" d="M490.7,231.8c3.9-1.9,10.5-2.8,19.8-2.8c2.2,0,4.8,0.3,8,0.9l-2.9,12.3c-2.2-0.6-3.9-0.8-5.1-0.8
		c-1.4,0-2.7,0-3.8,0.1c-1.1,0.1-2.1,0.2-3.1,0.4v37.5h-12.9V231.8z"/>
	<path class="st1" d="M527.4,252c0-15.4,7-23.1,21.1-23.1c13.5,0,20.2,7.7,20.2,23.1c0,5.5-1.4,8.3-4.2,8.3h-24.2
		c0,4.4,2.3,6.7,6.9,6.7c5.7,0,10.8-0.8,15.5-2.5l2.4,11.4c-4.2,2.3-10.2,3.5-18,3.5c-13.2,0-19.8-7.7-19.8-23.1V252z M555.8,248.4
		c0-4.7-2.4-7.1-7.3-7.1c-5.5,0-8.2,2.4-8.2,7.1H555.8z"/>
	<path class="st1" d="M600.8,231.8c3.9-1.9,10.5-2.8,19.8-2.8c13.2,0,19.8,6.3,19.8,18.8v31.5h-12.9v-31.5c0-4.3-2.3-6.5-6.9-6.5
		c-1.4,0-2.7,0-3.8,0.1c-1.1,0.1-2.1,0.2-3.1,0.4v37.5h-12.9V231.8z"/>
	<path class="st1" d="M649.2,229h12.9v31.5c0,4.3,2.3,6.5,6.9,6.5c1.4,0,2.7,0,3.8-0.1c1.1-0.1,2.1-0.2,3.1-0.4V229h12.9v47.2
		c-3.8,2.1-10.4,3.2-19.8,3.2c-13.2,0-19.8-6.3-19.8-18.8V229z"/>
	<path class="st1" d="M697.7,231.8c3.9-1.9,10.5-2.8,19.8-2.8c4.8,0,8.3,0.9,10.5,2.6c2.8-1.7,7.4-2.6,14-2.6
		c11.7,0,17.6,6.3,17.6,18.8v31.5h-12.9v-31.5c0-4.3-1.6-6.5-4.7-6.5c-2.8,0-5.1,0.5-6.9,1.4v36.6h-12.9v-31.5
		c0-4.3-1.6-6.5-4.7-6.5c-1.4,0-2.7,0-3.8,0.1c-1.1,0.1-2.1,0.2-3.1,0.4v37.5h-12.9V231.8z"/>
	<path class="st1" d="M768.3,252c0-15.4,7-23.1,21.1-23.1c13.5,0,20.2,7.7,20.2,23.1c0,5.5-1.4,8.3-4.2,8.3h-24.2
		c0,4.4,2.3,6.7,6.9,6.7c5.7,0,10.8-0.8,15.5-2.5l2.4,11.4c-4.2,2.3-10.2,3.5-18,3.5c-13.2,0-19.8-7.7-19.8-23.1V252z M796.8,248.4
		c0-4.7-2.4-7.1-7.3-7.1c-5.5,0-8.2,2.4-8.2,7.1H796.8z M786.1,208.2h14.4l-7,16.5h-10.4L786.1,208.2z"/>
	<path class="st1" d="M817.2,231.8c3.9-1.9,10.5-2.8,19.8-2.8c2.2,0,4.8,0.3,8,0.9l-2.9,12.3c-2.2-0.6-3.9-0.8-5.1-0.8
		c-1.4,0-2.7,0-3.8,0.1c-1.1,0.1-2.1,0.2-3.1,0.4v37.5h-12.9V231.8z"/>
	<path class="st1" d="M853.8,209.9h12.9v14.4h-12.9V209.9z M853.8,229h12.9v50.3h-12.9V229z"/>
	<path class="st1" d="M875.6,249.9c0-14,6.6-20.9,19.8-20.9c9.4,0,16,1,19.8,3.1V296l-12.9,3v-20.4c-1.5,0.4-3.8,0.6-6.9,0.6
		c-13.2,0-19.8-7-19.8-21V249.9z M902.3,241.8c-0.9-0.1-1.9-0.3-3.1-0.4c-1.1-0.1-2.4-0.1-3.8-0.1c-4.6,0-6.9,2.9-6.9,8.6v8.4
		c0,5.7,2.3,8.6,6.9,8.6c1.4,0,2.7,0,3.8-0.1s2.1-0.2,3.1-0.4V241.8z"/>
	<path class="st1" d="M924.1,229h12.9v31.5c0,4.3,2.3,6.5,6.9,6.5c1.4,0,2.7,0,3.8-0.1s2.1-0.2,3.1-0.4V229h12.9v47.2
		c-3.8,2.1-10.4,3.2-19.8,3.2c-13.2,0-19.8-6.3-19.8-18.8V229z"/>
	<path class="st1" d="M972.5,252c0-15.4,7-23.1,21.1-23.1c13.5,0,20.2,7.7,20.2,23.1c0,5.5-1.4,8.3-4.2,8.3h-24.2
		c0,4.4,2.3,6.7,6.9,6.7c5.7,0,10.8-0.8,15.5-2.5l2.4,11.4c-4.2,2.3-10.2,3.5-18,3.5c-13.2,0-19.8-7.7-19.8-23.1V252z M1000.9,248.4
		c0-4.7-2.4-7.1-7.3-7.1c-5.5,0-8.2,2.4-8.2,7.1H1000.9z"/>
</g>
<g class="st3">
	<path class="st4" d="M532.4,311.2v12.9c0,2.3-0.7,4.1-2.1,5.4s-3.3,2-5.7,2s-4.3-0.7-5.6-2s-2-3.1-2-5.4v-12.9h2.3v13
		c0,1.7,0.5,2.9,1.4,3.8s2.3,1.3,4,1.3c1.7,0,3-0.4,3.9-1.3s1.4-2.2,1.4-3.9v-13H532.4z"/>
	<path class="st4" d="M547.6,331.2v-9.7c0-1.2-0.3-2.1-0.8-2.7s-1.4-0.9-2.6-0.9c-1.6,0-2.7,0.4-3.4,1.3s-1.1,2.2-1.1,4.2v7.9h-2.3
		v-15h1.8l0.4,2.1h0.1c0.5-0.7,1.1-1.3,2-1.7s1.8-0.6,2.8-0.6c1.8,0,3.2,0.4,4.1,1.3s1.4,2.3,1.4,4.2v9.8H547.6z"/>
	<path class="st4" d="M560.9,331.5c-2.2,0-4-0.7-5.2-2s-1.9-3.2-1.9-5.6c0-2.4,0.6-4.3,1.8-5.8s2.8-2.1,4.8-2.1
		c1.9,0,3.4,0.6,4.5,1.9s1.6,2.9,1.6,4.9v1.4h-10.3c0,1.8,0.5,3.1,1.3,4s2,1.4,3.6,1.4c1.6,0,3.2-0.3,4.8-1v2
		c-0.8,0.3-1.6,0.6-2.3,0.7S561.9,331.5,560.9,331.5z M560.3,317.9c-1.2,0-2.2,0.4-2.9,1.2s-1.1,1.9-1.3,3.3h7.8
		c0-1.4-0.3-2.5-1-3.3S561.5,317.9,560.3,317.9z"/>
	<path class="st4" d="M587.8,331.2v-9.7c0-1.2-0.3-2.1-0.8-2.7s-1.4-0.9-2.6-0.9c-1.6,0-2.7,0.4-3.4,1.3s-1.1,2.2-1.1,4.2v7.9h-2.3
		v-15h1.8l0.4,2.1h0.1c0.5-0.7,1.1-1.3,2-1.7s1.8-0.6,2.8-0.6c1.8,0,3.2,0.4,4.1,1.3s1.4,2.3,1.4,4.2v9.8H587.8z"/>
	<path class="st4" d="M607.7,323.7c0,2.4-0.6,4.3-1.8,5.7s-2.9,2.1-5.1,2.1c-1.3,0-2.5-0.3-3.6-0.9s-1.8-1.5-2.4-2.7
		s-0.8-2.6-0.8-4.1c0-2.4,0.6-4.3,1.8-5.7s2.9-2,5.1-2c2.1,0,3.8,0.7,5,2.1S607.7,321.3,607.7,323.7z M596.3,323.7
		c0,1.9,0.4,3.4,1.1,4.4s1.9,1.5,3.4,1.5s2.6-0.5,3.4-1.5s1.2-2.5,1.2-4.4c0-1.9-0.4-3.4-1.2-4.3s-1.9-1.5-3.4-1.5
		c-1.5,0-2.6,0.5-3.4,1.5S596.3,321.8,596.3,323.7z"/>
	<path class="st4" d="M613.8,316.2v9.7c0,1.2,0.3,2.1,0.8,2.7s1.4,0.9,2.6,0.9c1.6,0,2.7-0.4,3.4-1.3s1.1-2.3,1.1-4.2v-7.9h2.3v15
		h-1.9l-0.3-2h-0.1c-0.5,0.7-1.1,1.3-1.9,1.7s-1.8,0.6-2.8,0.6c-1.8,0-3.2-0.4-4.1-1.3s-1.4-2.3-1.4-4.2v-9.8H613.8z"/>
	<path class="st4" d="M632.1,331.2l-5.7-15h2.4l3.2,8.9c0.7,2.1,1.2,3.4,1.3,4h0.1c0.1-0.5,0.4-1.5,1-3s1.7-4.8,3.6-9.9h2.4l-5.7,15
		H632.1z"/>
	<path class="st4" d="M649.2,331.5c-2.2,0-4-0.7-5.2-2s-1.9-3.2-1.9-5.6c0-2.4,0.6-4.3,1.8-5.8s2.8-2.1,4.8-2.1
		c1.9,0,3.4,0.6,4.5,1.9s1.6,2.9,1.6,4.9v1.4h-10.3c0,1.8,0.5,3.1,1.3,4s2,1.4,3.6,1.4c1.6,0,3.2-0.3,4.8-1v2
		c-0.8,0.3-1.6,0.6-2.3,0.7S650.2,331.5,649.2,331.5z M648.6,317.9c-1.2,0-2.2,0.4-2.9,1.2s-1.1,1.9-1.3,3.3h7.8
		c0-1.4-0.3-2.5-1-3.3S649.8,317.9,648.6,317.9z"/>
	<path class="st4" d="M660.8,331.2h-2.3v-21.3h2.3V331.2z"/>
	<path class="st4" d="M667.9,331.2h-2.3v-21.3h2.3V331.2z"/>
	<path class="st4" d="M679.1,331.5c-2.2,0-4-0.7-5.2-2s-1.9-3.2-1.9-5.6c0-2.4,0.6-4.3,1.8-5.8s2.8-2.1,4.8-2.1
		c1.9,0,3.4,0.6,4.5,1.9s1.6,2.9,1.6,4.9v1.4h-10.3c0,1.8,0.5,3.1,1.3,4s2,1.4,3.6,1.4c1.6,0,3.2-0.3,4.8-1v2
		c-0.8,0.3-1.6,0.6-2.3,0.7S680.1,331.5,679.1,331.5z M678.4,317.9c-1.2,0-2.2,0.4-2.9,1.2s-1.1,1.9-1.3,3.3h7.8
		c0-1.4-0.3-2.5-1-3.3S679.6,317.9,678.4,317.9z"/>
	<path class="st4" d="M704.9,331.2l-0.5-2.1h-0.1c-0.7,0.9-1.5,1.6-2.2,1.9s-1.7,0.5-2.8,0.5c-1.5,0-2.7-0.4-3.5-1.1
		s-1.3-1.9-1.3-3.3c0-3,2.4-4.6,7.3-4.8l2.5-0.1v-0.9c0-1.2-0.3-2-0.8-2.6s-1.3-0.8-2.4-0.8c-1.2,0-2.7,0.4-4.2,1.1l-0.7-1.7
		c0.7-0.4,1.5-0.7,2.4-0.9s1.8-0.3,2.6-0.3c1.8,0,3.1,0.4,4,1.2s1.3,2.1,1.3,3.8v10.2H704.9z M699.8,329.6c1.4,0,2.5-0.4,3.3-1.2
		s1.2-1.9,1.2-3.3v-1.4l-2.3,0.1c-1.8,0.1-3.1,0.3-3.9,0.8s-1.2,1.3-1.2,2.3c0,0.8,0.2,1.4,0.7,1.9S698.9,329.6,699.8,329.6z"/>
	<path class="st4" d="M718.3,331.5c-1,0-1.9-0.2-2.7-0.5s-1.5-0.9-2-1.7h-0.2c0.1,0.9,0.2,1.7,0.2,2.5v6.2h-2.3v-21.7h1.8l0.3,2.1
		h0.1c0.6-0.8,1.3-1.4,2-1.8s1.7-0.5,2.7-0.5c2,0,3.5,0.7,4.6,2s1.6,3.3,1.6,5.7c0,2.5-0.5,4.4-1.6,5.7S720.2,331.5,718.3,331.5z
		 M717.9,317.9c-1.5,0-2.6,0.4-3.3,1.3s-1,2.2-1.1,4v0.5c0,2.1,0.4,3.6,1.1,4.5s1.8,1.4,3.4,1.4c1.3,0,2.3-0.5,3-1.6
		s1.1-2.5,1.1-4.3c0-1.9-0.4-3.3-1.1-4.3S719.3,317.9,717.9,317.9z"/>
	<path class="st4" d="M735.4,331.5c-1,0-1.9-0.2-2.7-0.5s-1.5-0.9-2-1.7h-0.2c0.1,0.9,0.2,1.7,0.2,2.5v6.2h-2.3v-21.7h1.8l0.3,2.1
		h0.1c0.6-0.8,1.3-1.4,2-1.8s1.7-0.5,2.7-0.5c2,0,3.5,0.7,4.6,2s1.6,3.3,1.6,5.7c0,2.5-0.5,4.4-1.6,5.7S737.4,331.5,735.4,331.5z
		 M735.1,317.9c-1.5,0-2.6,0.4-3.3,1.3s-1,2.2-1.1,4v0.5c0,2.1,0.4,3.6,1.1,4.5s1.8,1.4,3.4,1.4c1.3,0,2.3-0.5,3-1.6
		s1.1-2.5,1.1-4.3c0-1.9-0.4-3.3-1.1-4.3S736.4,317.9,735.1,317.9z"/>
	<path class="st4" d="M752.4,316c0.7,0,1.3,0.1,1.8,0.2l-0.3,2.1c-0.6-0.1-1.2-0.2-1.6-0.2c-1.2,0-2.2,0.5-3.1,1.5s-1.3,2.2-1.3,3.7
		v8h-2.3v-15h1.9l0.3,2.8h0.1c0.6-1,1.2-1.7,2-2.3S751.5,316,752.4,316z"/>
	<path class="st4" d="M770,323.7c0,2.4-0.6,4.3-1.8,5.7s-2.9,2.1-5.1,2.1c-1.3,0-2.5-0.3-3.6-0.9s-1.8-1.5-2.4-2.7s-0.8-2.6-0.8-4.1
		c0-2.4,0.6-4.3,1.8-5.7s2.9-2,5.1-2c2.1,0,3.8,0.7,5,2.1S770,321.3,770,323.7z M758.6,323.7c0,1.9,0.4,3.4,1.1,4.4s1.9,1.5,3.4,1.5
		s2.6-0.5,3.4-1.5s1.2-2.5,1.2-4.4c0-1.9-0.4-3.4-1.2-4.3s-1.9-1.5-3.4-1.5c-1.5,0-2.6,0.5-3.4,1.5S758.6,321.8,758.6,323.7z"/>
	<path class="st4" d="M779.9,331.5c-2.2,0-3.8-0.7-5-2s-1.8-3.2-1.8-5.7c0-2.5,0.6-4.4,1.8-5.8s2.9-2.1,5.2-2.1
		c0.7,0,1.4,0.1,2.2,0.2s1.3,0.3,1.7,0.5l-0.7,1.9c-0.5-0.2-1-0.4-1.6-0.5s-1.1-0.2-1.6-0.2c-3,0-4.6,1.9-4.6,5.8
		c0,1.8,0.4,3.3,1.1,4.2s1.8,1.5,3.3,1.5c1.2,0,2.5-0.3,3.8-0.8v2C782.7,331.2,781.5,331.5,779.9,331.5z"/>
	<path class="st4" d="M797.5,331.2v-9.7c0-1.2-0.3-2.1-0.8-2.7s-1.4-0.9-2.6-0.9c-1.6,0-2.7,0.4-3.5,1.3s-1.1,2.3-1.1,4.2v7.8h-2.3
		v-21.3h2.3v6.4c0,0.8,0,1.4-0.1,1.9h0.1c0.4-0.7,1.1-1.3,1.9-1.7s1.8-0.6,2.8-0.6c1.8,0,3.2,0.4,4.1,1.3s1.4,2.3,1.4,4.1v9.8H797.5
		z"/>
	<path class="st4" d="M810.8,331.5c-2.2,0-4-0.7-5.2-2s-1.9-3.2-1.9-5.6c0-2.4,0.6-4.3,1.8-5.8s2.8-2.1,4.8-2.1
		c1.9,0,3.4,0.6,4.5,1.9s1.6,2.9,1.6,4.9v1.4H806c0,1.8,0.5,3.1,1.3,4s2,1.4,3.6,1.4c1.6,0,3.2-0.3,4.8-1v2
		c-0.8,0.3-1.6,0.6-2.3,0.7S811.8,331.5,810.8,331.5z M810.2,317.9c-1.2,0-2.2,0.4-2.9,1.2s-1.1,1.9-1.3,3.3h7.8
		c0-1.4-0.3-2.5-1-3.3S811.4,317.9,810.2,317.9z"/>
	<path class="st4" d="M837.6,329.2h-0.1c-1,1.5-2.6,2.3-4.7,2.3c-2,0-3.5-0.7-4.6-2s-1.6-3.2-1.6-5.7s0.5-4.4,1.6-5.8
		s2.6-2.1,4.6-2.1c2,0,3.6,0.7,4.7,2.2h0.2l-0.1-1.1l-0.1-1.1v-6.1h2.3v21.3h-1.8L837.6,329.2z M833.1,329.6c1.5,0,2.7-0.4,3.4-1.3
		s1-2.2,1-4.1v-0.5c0-2.1-0.4-3.6-1.1-4.5s-1.8-1.4-3.4-1.4c-1.3,0-2.3,0.5-3.1,1.6s-1.1,2.5-1.1,4.4c0,1.9,0.4,3.4,1.1,4.3
		S831.7,329.6,833.1,329.6z"/>
	<path class="st4" d="M846.7,316.2v9.7c0,1.2,0.3,2.1,0.8,2.7s1.4,0.9,2.6,0.9c1.6,0,2.7-0.4,3.4-1.3s1.1-2.3,1.1-4.2v-7.9h2.3v15
		h-1.9l-0.3-2h-0.1c-0.5,0.7-1.1,1.3-1.9,1.7s-1.8,0.6-2.8,0.6c-1.8,0-3.2-0.4-4.1-1.3s-1.4-2.3-1.4-4.2v-9.8H846.7z"/>
	<path class="st4" d="M879.3,331.2v-9.7c0-1.2-0.3-2.1-0.8-2.7s-1.4-0.9-2.6-0.9c-1.6,0-2.7,0.4-3.4,1.3s-1.1,2.2-1.1,4.2v7.9h-2.3
		v-15h1.8l0.4,2.1h0.1c0.5-0.7,1.1-1.3,2-1.7s1.8-0.6,2.8-0.6c1.8,0,3.2,0.4,4.1,1.3s1.4,2.3,1.4,4.2v9.8H879.3z"/>
	<path class="st4" d="M888.4,316.2v9.7c0,1.2,0.3,2.1,0.8,2.7s1.4,0.9,2.6,0.9c1.6,0,2.7-0.4,3.4-1.3s1.1-2.3,1.1-4.2v-7.9h2.3v15
		h-1.9l-0.3-2h-0.1c-0.5,0.7-1.1,1.3-1.9,1.7s-1.8,0.6-2.8,0.6c-1.8,0-3.2-0.4-4.1-1.3s-1.4-2.3-1.4-4.2v-9.8H888.4z"/>
	<path class="st4" d="M922.5,331.2v-9.7c0-1.2-0.3-2.1-0.8-2.7s-1.3-0.9-2.4-0.9c-1.4,0-2.5,0.4-3.1,1.2s-1,2.1-1,3.7v8.4H913v-9.7
		c0-1.2-0.3-2.1-0.8-2.7s-1.3-0.9-2.4-0.9c-1.4,0-2.5,0.4-3.1,1.3s-1,2.2-1,4.2v7.9h-2.3v-15h1.8l0.4,2.1h0.1c0.4-0.7,1-1.3,1.8-1.7
		s1.7-0.6,2.6-0.6c2.3,0,3.9,0.8,4.6,2.5h0.1c0.4-0.8,1.1-1.4,1.9-1.9s1.8-0.7,2.9-0.7c1.7,0,3,0.4,3.8,1.3s1.3,2.3,1.3,4.2v9.8
		H922.5z"/>
	<path class="st4" d="M935.8,331.5c-2.2,0-4-0.7-5.2-2s-1.9-3.2-1.9-5.6c0-2.4,0.6-4.3,1.8-5.8s2.8-2.1,4.8-2.1
		c1.9,0,3.4,0.6,4.5,1.9s1.6,2.9,1.6,4.9v1.4H931c0,1.8,0.5,3.1,1.3,4s2,1.4,3.6,1.4c1.6,0,3.2-0.3,4.8-1v2
		c-0.8,0.3-1.6,0.6-2.3,0.7S936.8,331.5,935.8,331.5z M935.2,317.9c-1.2,0-2.2,0.4-2.9,1.2s-1.1,1.9-1.3,3.3h7.8
		c0-1.4-0.3-2.5-1-3.3S936.4,317.9,935.2,317.9z M933.5,313.9c0.4-0.6,0.9-1.2,1.4-2.1s0.9-1.5,1.2-2.1h2.8v0.3
		c-0.4,0.6-1,1.3-1.8,2.2s-1.5,1.5-2.1,2h-1.5V313.9z"/>
	<path class="st4" d="M952,316c0.7,0,1.3,0.1,1.8,0.2l-0.3,2.1c-0.6-0.1-1.2-0.2-1.6-0.2c-1.2,0-2.2,0.5-3.1,1.5s-1.3,2.2-1.3,3.7v8
		h-2.3v-15h1.9l0.3,2.8h0.1c0.6-1,1.2-1.7,2-2.3S951.1,316,952,316z"/>
	<path class="st4" d="M956.4,312.2c0-0.5,0.1-0.9,0.4-1.1s0.6-0.4,1-0.4c0.4,0,0.7,0.1,0.9,0.4s0.4,0.6,0.4,1.1s-0.1,0.9-0.4,1.1
		s-0.6,0.4-0.9,0.4c-0.4,0-0.7-0.1-1-0.4S956.4,312.7,956.4,312.2z M958.9,331.2h-2.3v-15h2.3V331.2z"/>
	<path class="st4" d="M969,331.5c-1.9,0-3.4-0.7-4.5-2s-1.6-3.3-1.6-5.7c0-2.5,0.5-4.4,1.6-5.7s2.6-2.1,4.6-2.1
		c2.1,0,3.6,0.8,4.7,2.3h0.1l0.3-2.1h1.8v21.7h-2.3v-6.4c0-0.9,0-1.7,0.2-2.3h-0.2C972.7,330.7,971.1,331.5,969,331.5z M969.4,329.6
		c1.5,0,2.6-0.4,3.3-1.2s1.1-2.2,1.1-4.1v-0.5c0-2.1-0.4-3.6-1.1-4.5s-1.8-1.4-3.4-1.4c-1.3,0-2.3,0.5-3.1,1.6s-1.1,2.5-1.1,4.4
		s0.3,3.3,1,4.3S968,329.6,969.4,329.6z"/>
	<path class="st4" d="M983,316.2v9.7c0,1.2,0.3,2.1,0.8,2.7s1.4,0.9,2.6,0.9c1.6,0,2.7-0.4,3.4-1.3s1.1-2.3,1.1-4.2v-7.9h2.3v15
		h-1.9l-0.3-2h-0.1c-0.5,0.7-1.1,1.3-1.9,1.7s-1.8,0.6-2.8,0.6c-1.8,0-3.2-0.4-4.1-1.3s-1.4-2.3-1.4-4.2v-9.8H983z"/>
	<path class="st4" d="M1004.4,331.5c-2.2,0-4-0.7-5.2-2s-1.9-3.2-1.9-5.6c0-2.4,0.6-4.3,1.8-5.8s2.8-2.1,4.8-2.1
		c1.9,0,3.4,0.6,4.5,1.9s1.6,2.9,1.6,4.9v1.4h-10.3c0,1.8,0.5,3.1,1.3,4s2,1.4,3.6,1.4c1.6,0,3.2-0.3,4.8-1v2
		c-0.8,0.3-1.6,0.6-2.3,0.7S1005.4,331.5,1004.4,331.5z M1003.8,317.9c-1.2,0-2.2,0.4-2.9,1.2s-1.1,1.9-1.3,3.3h7.8
		c0-1.4-0.3-2.5-1-3.3S1004.9,317.9,1003.8,317.9z"/>
</g>
</svg>
