<svg id="Calque_3" data-name="Calque 3" xmlns="http://www.w3.org/2000/svg" viewBox="0 0 196.74 250.85"><defs><style>.cls-1{fill:#0091c3;}.cls-2{fill:#c84b24;}.cls-3{fill:#802489;}.cls-4{fill:#afa70e;}.cls-5{fill:#fff;}</style></defs><title>page3_icon3</title><rect class="cls-1" x="0.31" y="158.22" width="93.02" height="93.02"/><rect class="cls-2" x="103.41" y="158.05" width="93.02" height="93.02"/><rect class="cls-3" x="103.16" y="55.36" width="93.02" height="93.02"/><rect class="cls-4" x="0.31" y="55.36" width="93.02" height="93.02"/><path class="cls-5" d="M49.66,74.42A27.38,27.38,0,0,0,28.8,84L14.3,98.53a13.79,13.79,0,0,0-4.05,9.7H23A27.45,27.45,0,1,0,49.66,74.42Zm0,45a17.53,17.53,0,1,1,17.53-17.53A17.54,17.54,0,0,1,49.66,119.4Z"/><polygon class="cls-5" points="43.68 101.87 43.68 91.65 52.53 96.76 61.38 101.87 52.53 106.98 43.68 112.09 43.68 101.87"/><polygon class="cls-5" points="68.61 193.16 53.49 177.78 52.59 177.78 52.59 193.87 68.61 193.87 68.61 193.16"/><path class="cls-5" d="M47.56,198.91V177.78H25v52.88H68.61V198.91H47.56ZM60.9,224.85H32.73v-7.55H60.9v7.55Zm0-12.59H32.73V204.7H60.9v7.55Z"/><path class="cls-5" d="M152.42,78.14h0a15,15,0,0,0-2.3,1.88h0l-5.73,5.73-3.31,3.31a15.18,15.18,0,0,0,0,21.4h0a15.08,15.08,0,0,0,1.51,1.31l7-7a4.34,4.34,0,0,1-1.75-1.07,4.4,4.4,0,0,1,0-6.21l10.75-10.75A4.39,4.39,0,0,1,164.77,93l-1,1a18,18,0,0,1,2,13.15l5.73-5.73a15.18,15.18,0,0,0,0-21.4h0A15.19,15.19,0,0,0,152.42,78.14Z"/><path class="cls-5" d="M156.79,91.93l-7,7a4.34,4.34,0,0,1,1.75,1.07,4.4,4.4,0,0,1,0,6.21L140.78,117a4.39,4.39,0,0,1-6.21-6.21l1-1a18,18,0,0,1-2-13.15l-5.73,5.73a15.18,15.18,0,0,0,0,21.4h0a15.18,15.18,0,0,0,21.4,0l0,0L155,118l3.34-3.34a15.18,15.18,0,0,0,0-21.4h0A15.07,15.07,0,0,0,156.79,91.93Z"/><path class="cls-5" d="M135.67,214c-1.19-3.72-4.64-6-7.66-5l-0.58.18c-3,.95-4.51,4.76-3.32,8.48l2.57,8c1.19,3.72,4.64,6,7.66,5l0.58-.18c3-.95,4.51-4.76,3.32-8.48Z"/><path class="cls-5" d="M169.09,201a24.49,24.49,0,0,1-.78,5.85,6.17,6.17,0,0,1,3.44-.11,17.7,17.7,0,0,0,.87-5.73,22.75,22.75,0,0,0-22.75-22.75h0A22.75,22.75,0,0,0,127.11,201a17.7,17.7,0,0,0,.87,5.73,6.17,6.17,0,0,1,3.44.11,24.49,24.49,0,0,1-.78-5.85,19.23,19.23,0,0,1,19.23-19.23h0A19.23,19.23,0,0,1,169.09,201Z"/><path class="cls-5" d="M164.17,214c1.19-3.72,4.64-6,7.66-5l0.58,0.18c3,0.95,4.51,4.76,3.32,8.48l-2.57,8c-1.19,3.72-4.64,6-7.66,5l-0.58-.18c-3-.95-4.51-4.76-3.32-8.48Z"/><path class="cls-5" d="M71.12,36.81H62.49v-15h8.63v2.6H65.67v3.29h5.08v2.61H65.67v3.87h5.46v2.63Z"/><path class="cls-5" d="M76.35,31l-3.69-5.61h3.55L78.44,29l2.25-3.65h3.55L80.5,31l3.91,5.86H80.85l-2.41-3.93L76,36.81H72.47Z"/><path class="cls-5" d="M91.33,37A5.92,5.92,0,0,1,87,35.48a5.79,5.79,0,0,1-1.56-4.33,6.37,6.37,0,0,1,1.44-4.46,5.13,5.13,0,0,1,4-1.57,5,5,0,0,1,3.78,1.38A5.24,5.24,0,0,1,96,30.33v1.52H88.62a3,3,0,0,0,.79,2.08,2.78,2.78,0,0,0,2.07.75,8.6,8.6,0,0,0,2-.21,9.76,9.76,0,0,0,1.93-.69V36.2a7.3,7.3,0,0,1-1.75.61A11,11,0,0,1,91.33,37Zm-0.44-9.66a2,2,0,0,0-1.56.63,2.91,2.91,0,0,0-.65,1.79h4.39A2.6,2.6,0,0,0,92.47,28,2,2,0,0,0,90.89,27.35Z"/><path class="cls-5" d="M105,25.13a5.05,5.05,0,0,1,1.06.09l-0.24,2.93a3.58,3.58,0,0,0-.92-0.1,3.32,3.32,0,0,0-2.33.77,2.78,2.78,0,0,0-.84,2.15v5.83H98.55V25.34h2.37l0.46,1.93h0.15A4.3,4.3,0,0,1,103,25.72,3.55,3.55,0,0,1,105,25.13Z"/><path class="cls-5" d="M112.74,37q-5.35,0-5.35-5.88a6.27,6.27,0,0,1,1.46-4.47A5.46,5.46,0,0,1,113,25.13a8,8,0,0,1,3.57.78l-0.92,2.42q-0.74-.3-1.37-0.49a4.41,4.41,0,0,0-1.27-.19q-2.44,0-2.44,3.46T113,34.48a5.58,5.58,0,0,0,1.67-.24,6.05,6.05,0,0,0,1.54-.75v2.68a5,5,0,0,1-1.53.67A8.62,8.62,0,0,1,112.74,37Z"/><path class="cls-5" d="M118.75,22.38a1.71,1.71,0,0,1,3.4,0,1.49,1.49,0,0,1-.43,1.13,1.79,1.79,0,0,1-1.28.41A1.44,1.44,0,0,1,118.75,22.38ZM122,36.81h-3.13V25.34H122V36.81Z"/><path class="cls-5" d="M129.95,37q-5.35,0-5.35-5.88a6.27,6.27,0,0,1,1.46-4.47,5.46,5.46,0,0,1,4.17-1.54,8,8,0,0,1,3.57.78l-0.92,2.42q-0.74-.3-1.37-0.49a4.41,4.41,0,0,0-1.27-.19q-2.44,0-2.44,3.46t2.44,3.36a5.58,5.58,0,0,0,1.67-.24,6.05,6.05,0,0,0,1.54-.75v2.68a5,5,0,0,1-1.53.67A8.62,8.62,0,0,1,129.95,37Z"/><path class="cls-5" d="M141.28,37A5.92,5.92,0,0,1,137,35.48a5.79,5.79,0,0,1-1.56-4.33,6.37,6.37,0,0,1,1.44-4.46,5.13,5.13,0,0,1,4-1.57,5,5,0,0,1,3.78,1.38A5.24,5.24,0,0,1,146,30.33v1.52h-7.39a3,3,0,0,0,.79,2.08,2.78,2.78,0,0,0,2.07.75,8.6,8.6,0,0,0,2-.21,9.76,9.76,0,0,0,1.93-.69V36.2a7.3,7.3,0,0,1-1.75.61A11,11,0,0,1,141.28,37Zm-0.44-9.66a2,2,0,0,0-1.56.63,2.91,2.91,0,0,0-.65,1.79H143a2.6,2.6,0,0,0-.61-1.79A2,2,0,0,0,140.84,27.35Z"/><path class="cls-5" d="M156.5,33.4a3.16,3.16,0,0,1-1.23,2.69,6.05,6.05,0,0,1-3.67.92,11.54,11.54,0,0,1-2.13-.17,8.08,8.08,0,0,1-1.65-.5V33.76a10.89,10.89,0,0,0,2,.69,8,8,0,0,0,1.92.28q1.7,0,1.7-1a0.82,0.82,0,0,0-.23-0.6,3.27,3.27,0,0,0-.78-0.52q-0.55-.29-1.48-0.68a9.23,9.23,0,0,1-1.94-1,2.87,2.87,0,0,1-.9-1.08,3.57,3.57,0,0,1-.28-1.5A2.72,2.72,0,0,1,149,26a5.77,5.77,0,0,1,3.36-.84,9.55,9.55,0,0,1,4,.9l-0.94,2.26q-0.86-.37-1.61-0.6a5.06,5.06,0,0,0-1.53-.24q-1.38,0-1.38.75a0.88,0.88,0,0,0,.45.73,12.2,12.2,0,0,0,2,.91,9.07,9.07,0,0,1,2,1,3,3,0,0,1,.92,1.09A3.36,3.36,0,0,1,156.5,33.4Z"/><path class="cls-5" d="M30.47,13.67a9.91,9.91,0,0,1-2.39,6.71,12.4,12.4,0,0,1-6.71,3.8v0.17q5.1,0.63,7.72,3.1a8.68,8.68,0,0,1,2.62,6.64,11.25,11.25,0,0,1-4.41,9.46q-4.41,3.39-12.59,3.38A30.58,30.58,0,0,1,2.55,44.66V37.09a27.45,27.45,0,0,0,5.39,2,22.66,22.66,0,0,0,5.82.78q4.41,0,6.51-1.5a5.5,5.5,0,0,0,2.1-4.81A4.35,4.35,0,0,0,20,29.37q-2.42-1.24-7.72-1.24H9V21.3h3.26q4.9,0,7.16-1.28a4.63,4.63,0,0,0,2.26-4.39q0-4.78-6-4.78a13.71,13.71,0,0,0-4.22.69,20.63,20.63,0,0,0-4.77,2.39L2.61,7.79A22.89,22.89,0,0,1,16.35,3.64q6.54,0,10.33,2.65A8.5,8.5,0,0,1,30.47,13.67Z"/></svg>