<svg id="Calque_1" data-name="Calque 1" xmlns="http://www.w3.org/2000/svg" viewBox="0 0 169.6 140.05"><defs><style>.cls-1{fill:#0c6d95;}.cls-2{fill:#c84a24;}</style></defs><title>use</title><path class="cls-1" d="M99.6,58.54a12,12,0,1,0,11.92,12A12,12,0,0,0,99.6,58.54Zm24,18.83-2.15,5.19,3.84,7.55,0.51,1-5.33,5.33-8.74-4.13-5.19,2.13-2.63,8.07-0.34,1.07H96l-3.26-9.1-5.19-2.14L80,96.17l-1,.5-5.33-5.33,4.13-8.75-2.14-5.19L67.6,74.77l-1.07-.35V66.9l9.11-3.26,2.14-5.18-3.83-7.57-0.51-1,5.32-5.32,8.76,4.12,5.18-2.14,2.63-8.06,0.34-1.07h7.53l3.26,9.12,5.18,2.14,7.56-3.84,1-.51,5.33,5.32-4.13,8.74,2.13,5.19,8.08,2.63,1.06,0.34V74.1Z"/><path class="cls-2" d="M99.6,5.44A64.9,64.9,0,0,0,50.17,28.23L15.82,62.58a32.68,32.68,0,0,0-9.6,23H36.31A65.06,65.06,0,1,0,99.6,5.44Zm0,106.6A41.53,41.53,0,1,1,141.14,70.5,41.58,41.58,0,0,1,99.6,112Z"/></svg>